{"glyphs":{"0":{"ha":1767,"x_min":74,"x_max":1692,"o":"m 497 199 l 556 199 q 567 58 563 128 q 575 -83 572 -12 q 583 24 579 -31 q 593 131 586 78 l 601 199 l 656 199 q 668 83 663 140 q 678 -32 674 26 l 682 -83 q 688 28 686 -26 q 696 138 690 83 q 699 168 699 153 q 701 199 700 183 l 743 199 l 715 -140 l 651 -140 q 638 -6 644 -74 q 629 129 632 61 q 622 28 626 79 q 613 -72 618 -22 l 607 -140 l 542 -140 l 526 50 l 510 -140 l 447 -140 q 433 -6 440 -74 q 424 129 426 61 q 417 28 421 79 q 408 -72 414 -22 l 401 -140 l 338 -140 l 321 54 l 306 -140 l 242 -140 q 228 -7 235 -74 q 219 128 222 60 q 214 27 218 76 q 204 -72 210 -22 l 196 -140 l 133 -140 l 104 199 l 146 199 q 158 58 153 128 q 165 -83 163 -12 q 173 24 169 -31 q 183 131 176 78 l 192 199 l 246 199 q 258 83 253 140 q 268 -32 264 26 l 272 -83 q 278 28 276 -26 q 286 138 281 83 l 293 199 l 350 199 q 362 58 357 128 q 371 -83 367 -12 q 378 24 375 -31 q 388 131 382 78 q 392 164 390 147 q 396 199 393 181 l 451 199 q 463 83 458 140 q 474 -32 468 26 l 476 -83 q 483 28 481 -26 q 492 138 486 83 l 497 199 m 1672 932 l 103 932 l 103 963 l 1672 963 l 1672 932 m 1672 -357 l 103 -357 l 103 -326 l 1672 -326 l 1672 -357 m 1028 -140 l 979 -140 l 979 199 l 1029 199 q 1060 199 1044 199 q 1089 193 1075 200 q 1119 155 1113 182 q 1126 104 1126 128 q 1126 78 1126 93 q 1123 47 1126 63 q 1113 19 1119 32 q 1093 3 1106 7 l 1135 -140 l 1081 -140 l 1051 -6 l 1028 -6 l 1028 -140 m 1365 -65 l 1365 -140 l 1319 -140 l 1319 199 l 1364 199 q 1398 81 1381 139 q 1429 -39 1415 22 q 1423 80 1424 21 q 1422 199 1422 139 l 1467 199 l 1467 -140 l 1421 -140 q 1387 -24 1404 -82 q 1357 92 1369 33 q 1361 13 1360 51 q 1365 -65 1363 -25 m 842 -140 l 796 -140 l 836 199 l 915 199 l 957 -140 l 908 -140 l 899 -60 l 853 -60 l 842 -140 m 1601 72 q 1601 105 1603 88 q 1594 138 1600 122 q 1580 156 1590 149 q 1560 149 1569 163 q 1550 120 1551 138 q 1547 88 1549 103 q 1546 55 1546 71 q 1546 24 1546 39 q 1546 -8 1546 8 q 1549 -40 1546 -25 q 1551 -71 1549 -53 q 1567 -96 1554 -89 q 1589 -94 1581 -104 q 1600 -66 1597 -83 q 1603 -31 1603 -49 q 1604 -7 1604 -14 l 1569 -7 l 1569 32 l 1650 32 l 1650 -139 l 1614 -139 l 1613 -93 q 1602 -124 1610 -108 q 1579 -143 1594 -139 q 1549 -140 1564 -147 q 1524 -122 1533 -133 q 1501 -64 1504 -99 q 1499 -1 1499 -29 q 1497 72 1496 35 q 1508 142 1499 108 q 1518 171 1511 157 q 1539 192 1525 185 q 1569 201 1553 200 q 1601 197 1586 203 q 1628 176 1618 190 q 1642 145 1638 163 q 1647 110 1646 128 q 1649 76 1649 92 l 1601 72 m 311 371 q 328 390 318 382 q 350 401 338 399 q 372 399 361 404 q 396 399 383 394 l 371 351 q 363 338 368 347 q 364 325 358 328 q 379 328 371 319 q 394 346 388 336 q 401 360 397 353 q 410 374 406 367 l 421 399 q 442 404 432 399 l 415 351 q 408 338 413 347 q 410 325 404 329 q 424 327 415 319 q 438 344 432 335 q 451 371 443 357 q 464 397 458 385 q 476 422 471 410 q 489 447 482 435 q 508 451 500 444 l 471 375 q 465 361 468 368 q 458 347 461 354 q 453 330 456 340 q 461 325 450 319 q 474 335 468 328 q 486 350 481 342 q 497 371 490 361 q 514 390 504 382 q 536 401 524 399 q 560 399 549 404 q 583 399 571 394 q 571 376 576 388 q 558 351 565 364 q 551 338 556 347 q 551 325 547 328 q 560 324 556 321 q 570 331 565 326 q 579 342 575 336 q 586 353 583 349 l 588 356 l 632 447 q 650 451 643 447 q 636 419 643 435 q 618 388 629 403 q 641 403 628 397 q 664 394 654 410 q 665 363 672 381 q 647 333 657 344 q 663 336 656 332 q 676 346 669 340 q 689 372 682 358 q 703 397 696 385 l 728 447 q 746 451 738 444 q 728 413 736 432 q 708 375 719 394 q 702 361 706 368 q 694 347 699 354 q 692 340 693 344 q 690 331 690 335 q 692 324 690 326 q 700 325 693 322 q 715 336 707 328 q 726 353 722 344 q 743 383 731 371 q 756 394 747 388 q 776 403 765 400 q 794 403 786 406 q 806 389 803 401 q 801 368 807 378 q 784 352 794 358 q 761 342 774 346 q 740 339 749 339 q 744 326 739 331 q 758 321 750 321 q 792 331 776 321 q 815 356 807 340 l 821 353 q 789 322 810 333 q 746 314 768 310 q 724 339 724 318 q 713 326 718 332 q 700 317 707 319 q 680 315 690 311 q 672 332 669 318 l 672 335 q 667 332 669 332 q 650 328 661 328 l 640 328 q 636 325 638 328 q 632 322 635 322 q 602 315 618 314 q 578 331 586 317 q 554 314 568 318 q 537 318 542 311 q 536 336 532 325 q 517 317 529 326 q 493 317 506 308 q 483 336 483 322 q 464 317 475 324 q 443 315 453 311 q 435 329 433 318 q 419 317 425 319 q 398 315 408 311 q 390 331 388 318 q 379 321 385 325 q 367 314 374 317 q 349 318 354 311 q 350 336 344 325 l 349 336 q 330 317 342 326 q 306 317 318 308 q 297 326 299 319 q 297 339 296 332 q 283 331 290 332 q 265 328 278 328 q 257 326 258 328 q 251 322 256 325 q 235 315 244 318 q 219 314 226 313 q 208 322 213 315 q 207 339 204 328 q 218 369 210 354 q 233 399 226 385 q 251 404 240 399 q 243 383 247 393 q 233 364 239 374 q 228 353 232 360 q 221 340 224 347 q 218 328 218 333 q 224 321 218 322 q 247 332 236 318 q 263 353 258 346 q 274 377 269 364 q 278 403 278 390 q 292 396 290 406 q 290 378 293 386 q 265 335 285 356 q 286 339 276 332 q 301 356 296 346 l 311 371 m 1310 536 q 1285 543 1294 536 q 1272 561 1276 550 q 1266 585 1268 572 q 1264 610 1264 599 q 1261 665 1261 636 q 1269 719 1261 693 q 1281 740 1274 731 q 1301 750 1289 749 q 1344 732 1329 757 q 1357 680 1357 708 q 1357 626 1357 651 q 1356 598 1357 614 q 1351 569 1356 582 q 1336 546 1346 556 q 1310 536 1326 536 m 540 536 q 516 543 525 536 q 502 561 507 550 q 496 585 497 572 q 493 610 494 599 q 492 665 492 636 q 500 719 492 693 q 511 740 504 731 q 532 750 518 749 q 575 732 561 757 q 587 680 586 708 q 588 626 588 651 q 586 598 588 614 q 580 569 585 582 q 566 546 575 556 q 540 536 557 536 m 1204 -140 l 1156 -140 l 1156 199 l 1204 199 l 1204 -140 m 313 538 l 283 538 l 283 749 l 315 749 q 335 749 325 749 q 353 746 344 749 q 371 723 367 739 q 375 694 375 707 q 374 656 376 679 q 354 626 371 633 l 379 538 l 346 538 l 328 622 q 320 623 324 622 q 313 624 317 624 l 313 538 m 1397 585 l 1397 538 l 1369 538 l 1369 749 l 1396 749 q 1418 676 1407 713 q 1438 601 1429 639 q 1434 675 1435 638 q 1433 749 1433 713 l 1461 749 l 1461 538 l 1432 538 q 1410 610 1421 574 q 1392 683 1400 646 q 1395 634 1394 658 q 1397 585 1396 610 m 122 538 l 92 538 l 92 749 l 139 749 q 183 713 175 749 q 188 668 189 693 q 176 624 188 643 q 152 608 167 610 q 122 607 138 607 l 122 538 m 628 585 l 628 538 l 600 538 l 600 749 l 626 749 q 648 676 638 713 q 667 601 658 639 q 663 675 664 638 q 663 749 663 713 l 690 749 l 690 538 l 661 538 q 641 610 651 574 q 622 683 631 646 q 625 634 625 658 q 628 585 625 610 m 728 538 l 699 538 l 724 749 l 772 749 l 799 538 l 769 538 l 763 589 l 733 589 l 728 538 m 974 536 q 942 548 953 536 q 928 577 932 560 q 926 614 925 594 q 926 650 926 633 l 926 749 l 957 749 l 957 601 q 956 588 957 594 q 958 574 956 581 q 968 563 961 567 q 982 567 975 560 q 990 585 989 574 q 990 606 990 597 q 991 639 992 622 q 990 672 990 656 l 990 749 l 1021 749 l 1021 650 q 1022 614 1021 633 q 1019 577 1022 594 q 1006 548 1015 560 q 974 536 996 536 m 1514 400 q 1532 404 1521 399 q 1524 390 1528 396 q 1515 376 1521 383 l 1515 375 q 1535 394 1524 385 q 1560 404 1547 403 q 1576 392 1576 404 q 1571 368 1575 379 q 1557 348 1567 363 q 1551 326 1547 333 q 1559 324 1554 322 q 1569 331 1564 325 q 1578 342 1574 336 q 1586 351 1583 347 l 1613 404 l 1601 404 l 1606 413 l 1617 413 l 1628 436 q 1647 440 1639 436 l 1633 413 l 1654 413 l 1649 404 l 1629 404 l 1604 353 q 1597 339 1601 347 q 1596 325 1593 331 q 1606 324 1600 321 q 1617 334 1611 328 q 1628 347 1624 340 q 1633 356 1632 353 l 1639 353 q 1622 329 1632 342 q 1597 314 1613 317 q 1581 317 1585 311 q 1579 331 1576 322 q 1571 323 1575 326 q 1563 317 1567 319 q 1542 314 1553 311 q 1533 331 1532 317 q 1542 352 1535 342 q 1554 372 1550 363 q 1559 385 1556 376 q 1553 393 1563 394 q 1525 374 1538 390 q 1506 346 1513 357 q 1497 330 1500 339 q 1489 313 1493 321 l 1472 313 l 1482 335 q 1481 333 1481 333 q 1467 328 1475 331 l 1454 328 q 1440 317 1447 319 q 1428 314 1432 314 q 1403 318 1414 308 q 1394 343 1392 328 q 1401 371 1396 358 q 1421 394 1408 383 q 1450 404 1433 404 q 1470 396 1464 404 q 1476 376 1476 388 q 1472 353 1476 365 q 1461 333 1467 342 q 1489 349 1479 333 l 1514 400 m 422 636 q 386 690 390 657 q 389 722 383 706 q 410 746 394 738 q 440 751 422 753 q 468 739 457 750 q 481 712 481 726 q 481 682 481 697 q 465 683 472 682 q 450 683 457 683 q 451 701 450 692 q 444 717 451 710 q 424 718 432 728 q 415 697 417 708 q 426 672 415 682 q 447 654 436 663 q 467 635 458 646 q 478 613 475 625 q 478 583 481 597 q 469 557 476 568 q 449 540 461 546 q 421 536 438 533 q 390 563 393 542 q 388 607 386 585 l 415 607 q 415 593 415 600 q 415 579 414 586 q 426 565 418 571 q 442 567 433 560 q 450 584 449 572 q 449 604 451 596 q 439 623 446 615 q 422 636 432 631 m 1071 636 q 1033 690 1039 654 q 1037 722 1032 706 q 1057 746 1042 738 q 1088 751 1071 753 q 1115 739 1104 750 q 1127 712 1128 726 q 1126 682 1126 697 q 1113 683 1119 682 q 1099 683 1106 683 q 1099 701 1099 692 q 1093 717 1100 710 q 1073 718 1081 728 q 1064 697 1065 708 q 1074 672 1064 682 q 1094 654 1083 663 q 1126 613 1118 638 q 1127 583 1129 597 q 1117 557 1125 568 q 1097 540 1110 546 q 1068 536 1085 533 q 1037 563 1040 542 q 1033 607 1033 585 l 1064 607 q 1063 593 1064 600 q 1064 579 1061 586 q 1074 565 1067 571 q 1089 567 1081 560 q 1099 584 1097 572 q 1097 604 1100 596 q 1088 623 1094 615 q 1071 636 1081 631 m 275 538 l 199 538 l 199 749 l 275 749 l 275 721 l 229 721 l 229 661 l 267 661 l 267 631 l 229 631 l 229 567 l 275 567 l 275 538 m 1215 538 l 1140 538 l 1140 749 l 1215 749 l 1215 721 l 1171 721 l 1171 661 l 1208 661 l 1208 631 l 1171 631 l 1171 567 l 1215 567 l 1215 538 m 178 360 l 119 357 q 107 333 113 346 q 100 307 101 321 q 87 310 89 304 q 87 326 85 317 q 93 345 89 336 q 100 357 97 354 l 81 356 l 74 367 l 106 367 q 142 414 121 390 q 190 451 163 438 q 213 458 199 457 q 229 444 226 460 q 228 430 232 438 q 222 415 225 422 q 209 388 215 401 q 196 363 203 375 q 183 338 192 353 q 179 313 175 324 q 165 315 168 310 q 165 329 163 321 q 171 347 167 338 q 178 360 175 356 m 1615 749 l 1644 749 q 1631 690 1638 719 q 1617 631 1624 660 q 1612 585 1610 608 q 1614 538 1614 561 l 1582 538 q 1583 585 1582 561 q 1578 631 1583 608 q 1564 690 1571 660 q 1550 749 1557 719 l 1579 749 q 1590 695 1585 722 q 1597 640 1594 668 q 1604 694 1599 668 q 1615 749 1610 721 m 1111 315 q 1103 331 1101 321 q 1110 350 1106 342 l 1133 399 q 1153 404 1142 399 l 1135 367 q 1124 347 1132 361 q 1121 326 1115 332 q 1141 330 1129 319 q 1157 346 1153 340 q 1164 356 1161 351 q 1171 368 1167 361 l 1188 401 q 1204 404 1193 401 q 1192 378 1199 392 q 1179 353 1186 365 q 1172 339 1176 347 q 1172 325 1168 331 q 1186 326 1178 318 q 1201 344 1194 335 q 1215 371 1207 357 q 1229 397 1222 385 q 1240 422 1235 410 q 1253 447 1246 435 q 1272 451 1263 444 l 1235 375 l 1221 347 q 1216 330 1218 340 q 1225 325 1214 319 q 1246 343 1236 329 q 1259 371 1251 357 q 1274 397 1267 385 q 1285 422 1279 410 q 1297 447 1290 435 q 1317 451 1307 444 l 1279 375 l 1265 347 q 1263 340 1264 344 q 1260 331 1261 335 q 1261 324 1260 326 q 1269 325 1263 322 q 1286 338 1279 328 q 1297 356 1293 347 l 1303 353 q 1289 332 1296 342 q 1271 317 1282 322 q 1251 315 1261 311 q 1243 329 1242 318 q 1226 317 1235 321 q 1207 315 1217 311 q 1199 331 1197 318 q 1185 318 1192 324 q 1171 313 1179 313 q 1157 321 1158 313 q 1160 338 1156 329 q 1137 318 1151 328 q 1111 315 1122 308 m 1547 538 l 1472 538 l 1472 749 l 1503 749 l 1503 564 l 1547 564 l 1547 538 m 881 538 l 806 538 l 806 749 l 836 749 l 836 564 l 881 564 l 881 538 m 1028 29 q 1045 28 1036 29 q 1061 33 1054 28 q 1076 61 1074 44 q 1079 92 1079 78 q 1076 125 1079 107 q 1063 154 1074 143 q 1046 160 1056 161 q 1028 160 1036 160 l 1028 29 m 938 400 q 957 404 946 399 q 949 390 953 396 q 940 376 946 383 l 940 375 q 960 394 949 385 q 985 404 972 403 q 1001 392 1001 404 q 994 368 1000 379 q 981 348 992 363 q 975 326 971 333 q 984 324 978 321 q 996 334 990 328 q 1006 347 1001 340 q 1013 356 1011 353 l 1018 353 q 1004 333 1011 343 q 986 317 997 324 q 967 314 976 311 q 958 331 957 317 q 967 352 960 342 q 979 372 975 363 q 982 378 981 374 q 984 385 983 382 q 983 392 985 389 q 976 393 982 394 q 949 374 961 390 q 931 346 938 357 l 914 313 l 897 313 l 903 325 q 897 320 900 322 q 892 317 894 318 q 871 315 881 311 q 864 332 861 318 q 870 353 864 343 q 881 374 876 363 q 893 399 889 386 q 914 404 907 399 l 888 351 q 881 338 885 347 q 881 325 876 329 q 890 324 885 321 q 901 334 896 328 q 911 347 907 340 q 917 356 915 353 l 938 400 m 1310 725 q 1297 715 1301 725 q 1292 690 1293 704 q 1291 663 1290 676 q 1292 643 1292 649 q 1291 624 1292 638 q 1292 597 1290 611 q 1297 573 1293 583 q 1310 563 1301 563 q 1322 573 1318 563 q 1328 597 1326 583 q 1328 624 1329 611 q 1328 643 1328 638 q 1328 663 1328 649 q 1328 690 1329 676 q 1322 715 1326 704 q 1310 725 1318 725 m 540 725 q 528 715 532 725 q 522 690 524 704 q 522 663 521 676 q 522 643 522 649 q 522 624 522 638 q 522 597 521 611 q 528 573 524 583 q 540 563 532 563 q 552 573 549 563 q 557 597 556 583 q 558 624 558 611 q 557 643 557 638 q 558 663 557 649 q 557 690 558 676 q 552 715 556 704 q 540 725 549 725 m 1653 749 l 1683 749 q 1682 671 1683 710 q 1678 592 1681 632 l 1658 592 q 1654 670 1656 632 q 1653 749 1653 708 m 211 450 q 185 440 200 453 q 164 421 171 428 q 124 367 142 396 l 182 367 l 200 404 q 206 415 201 408 q 213 430 210 422 q 216 443 215 438 q 211 450 217 449 m 1443 432 q 1434 433 1436 428 q 1433 443 1432 438 q 1410 435 1418 449 q 1400 413 1403 422 l 1419 413 l 1415 404 l 1396 404 l 1335 279 q 1315 276 1329 279 l 1379 404 l 1358 404 l 1363 413 l 1383 413 q 1394 435 1388 424 q 1415 449 1401 446 q 1436 447 1424 451 q 1444 441 1439 446 q 1443 432 1449 436 m 1160 432 q 1150 433 1153 428 q 1149 443 1147 438 q 1126 435 1133 449 q 1115 413 1118 422 l 1135 413 l 1131 404 l 1111 404 l 1050 279 q 1032 276 1043 279 l 1094 404 l 1074 404 l 1079 413 l 1099 413 q 1110 435 1103 424 q 1131 449 1117 446 q 1151 447 1139 451 q 1159 441 1154 446 q 1160 432 1164 436 m 864 43 q 860 15 861 29 q 856 -12 858 1 l 896 -12 q 885 69 892 28 q 875 151 878 110 q 870 97 874 124 q 864 43 867 71 m 122 632 q 135 631 129 632 q 146 636 142 631 q 153 656 153 643 q 154 678 154 668 q 153 700 154 688 q 146 719 153 713 q 135 726 142 726 q 122 725 129 725 l 122 632 m 1451 397 q 1431 385 1440 397 q 1415 358 1421 372 q 1410 331 1410 343 q 1421 319 1410 319 q 1439 332 1429 319 q 1455 359 1449 344 q 1461 385 1461 374 q 1451 397 1461 397 m 1289 -112 q 1281 -133 1289 -126 q 1262 -140 1272 -140 q 1243 -133 1251 -140 q 1235 -112 1235 -126 q 1243 -92 1235 -99 q 1262 -85 1251 -85 q 1281 -92 1272 -85 q 1289 -112 1289 -99 m 781 -112 q 772 -133 781 -126 q 753 -140 764 -140 q 735 -133 743 -140 q 726 -112 726 -126 q 735 -92 726 -99 q 753 -85 743 -85 q 772 -92 764 -85 q 781 -112 781 -99 m 642 393 q 624 386 632 393 q 610 369 617 379 q 599 347 604 358 q 590 328 594 335 q 619 328 606 317 q 640 350 633 339 q 646 360 642 353 q 651 374 650 367 q 651 388 653 382 q 642 393 650 393 m 321 322 q 339 331 331 322 q 353 350 347 339 q 365 373 360 361 q 374 393 369 385 q 346 389 360 400 q 325 367 332 378 q 319 357 324 364 q 313 342 315 350 q 312 328 311 335 q 321 322 313 322 m 313 644 q 324 644 318 644 q 333 646 329 643 q 343 664 342 653 q 344 685 344 675 q 343 705 344 693 q 333 722 342 717 q 324 725 329 725 q 313 725 319 725 l 313 644 m 508 322 q 526 331 518 322 q 541 350 535 339 q 552 373 547 361 q 561 393 557 385 q 533 389 546 400 q 513 367 519 378 q 507 357 511 364 q 501 342 503 350 q 499 328 499 335 q 508 322 500 322 m 749 364 q 743 353 744 357 q 740 344 742 349 q 774 358 756 344 q 793 388 793 371 q 785 397 793 399 q 771 392 778 396 q 758 378 764 386 q 749 364 753 371 m 740 651 l 736 618 l 760 618 q 753 668 757 643 q 749 718 750 693 q 745 686 747 703 q 740 651 743 669 m 1685 556 q 1679 542 1685 547 q 1667 538 1674 538 q 1656 542 1661 538 q 1651 556 1651 547 q 1656 569 1651 564 q 1667 574 1661 574 q 1679 569 1674 574 q 1685 556 1685 564 m 926 428 q 910 421 921 418 q 903 435 900 424 q 910 442 904 440 q 920 443 915 444 q 927 438 925 442 q 926 428 929 433 m 454 428 q 440 421 450 418 q 432 435 429 424 q 438 442 433 440 q 448 443 443 444 q 456 438 453 442 q 454 428 458 433 m 1658 321 q 1642 315 1653 310 q 1638 329 1632 319 q 1653 335 1643 340 q 1658 321 1664 331 m 1686 385 q 1679 378 1683 379 q 1671 378 1675 376 q 1665 384 1667 381 q 1667 393 1664 388 q 1682 399 1672 403 q 1686 385 1692 394 z "},"1":{"ha":1767,"x_min":74,"x_max":1692,"o":"m 497 199 l 556 199 q 567 58 563 128 q 575 -83 572 -12 q 583 24 579 -31 q 593 131 586 78 l 601 199 l 656 199 q 668 83 663 140 q 678 -32 674 26 l 682 -83 q 688 28 686 -26 q 696 138 690 83 q 699 168 699 153 q 701 199 700 183 l 743 199 l 715 -140 l 651 -140 q 638 -6 644 -74 q 629 129 632 61 q 622 28 626 79 q 613 -72 618 -22 l 607 -140 l 542 -140 l 526 50 l 510 -140 l 447 -140 q 433 -6 440 -74 q 424 129 426 61 q 417 28 421 79 q 408 -72 414 -22 l 401 -140 l 338 -140 l 321 54 l 306 -140 l 242 -140 q 228 -7 235 -74 q 219 128 222 60 q 214 27 218 76 q 204 -72 210 -22 l 196 -140 l 133 -140 l 104 199 l 146 199 q 158 58 153 128 q 165 -83 163 -12 q 173 24 169 -31 q 183 131 176 78 l 192 199 l 246 199 q 258 83 253 140 q 268 -32 264 26 l 272 -83 q 278 28 276 -26 q 286 138 281 83 l 293 199 l 350 199 q 362 58 357 128 q 371 -83 367 -12 q 378 24 375 -31 q 388 131 382 78 q 392 164 390 147 q 396 199 393 181 l 451 199 q 463 83 458 140 q 474 -32 468 26 l 476 -83 q 483 28 481 -26 q 492 138 486 83 l 497 199 m 1672 932 l 103 932 l 103 963 l 1672 963 l 1672 932 m 1672 -357 l 103 -357 l 103 -326 l 1672 -326 l 1672 -357 m 1028 -140 l 979 -140 l 979 199 l 1029 199 q 1060 199 1044 199 q 1089 193 1075 200 q 1119 155 1113 182 q 1126 104 1126 128 q 1126 78 1126 93 q 1123 47 1126 63 q 1113 19 1119 32 q 1093 3 1106 7 l 1135 -140 l 1081 -140 l 1051 -6 l 1028 -6 l 1028 -140 m 1365 -65 l 1365 -140 l 1319 -140 l 1319 199 l 1364 199 q 1398 81 1381 139 q 1429 -39 1415 22 q 1423 80 1424 21 q 1422 199 1422 139 l 1467 199 l 1467 -140 l 1421 -140 q 1387 -24 1404 -82 q 1357 92 1369 33 q 1361 13 1360 51 q 1365 -65 1363 -25 m 842 -140 l 796 -140 l 836 199 l 915 199 l 957 -140 l 908 -140 l 899 -60 l 853 -60 l 842 -140 m 1601 72 q 1601 105 1603 88 q 1594 138 1600 122 q 1580 156 1590 149 q 1560 149 1569 163 q 1550 120 1551 138 q 1547 88 1549 103 q 1546 55 1546 71 q 1546 24 1546 39 q 1546 -8 1546 8 q 1549 -40 1546 -25 q 1551 -71 1549 -53 q 1567 -96 1554 -89 q 1589 -94 1581 -104 q 1600 -66 1597 -83 q 1603 -31 1603 -49 q 1604 -7 1604 -14 l 1569 -7 l 1569 32 l 1650 32 l 1650 -139 l 1614 -139 l 1613 -93 q 1602 -124 1610 -108 q 1579 -143 1594 -139 q 1549 -140 1564 -147 q 1524 -122 1533 -133 q 1501 -64 1504 -99 q 1499 -1 1499 -29 q 1497 72 1496 35 q 1508 142 1499 108 q 1518 171 1511 157 q 1539 192 1525 185 q 1569 201 1553 200 q 1601 197 1586 203 q 1628 176 1618 190 q 1642 145 1638 163 q 1647 110 1646 128 q 1649 76 1649 92 l 1601 72 m 311 371 q 328 390 318 382 q 350 401 338 399 q 372 399 361 404 q 396 399 383 394 l 371 351 q 363 338 368 347 q 364 325 358 328 q 379 328 371 319 q 394 346 388 336 q 401 360 397 353 q 410 374 406 367 l 421 399 q 442 404 432 399 l 415 351 q 408 338 413 347 q 410 325 404 329 q 424 327 415 319 q 438 344 432 335 q 451 371 443 357 q 464 397 458 385 q 476 422 471 410 q 489 447 482 435 q 508 451 500 444 l 471 375 q 465 361 468 368 q 458 347 461 354 q 453 330 456 340 q 461 325 450 319 q 474 335 468 328 q 486 350 481 342 q 497 371 490 361 q 514 390 504 382 q 536 401 524 399 q 560 399 549 404 q 583 399 571 394 q 571 376 576 388 q 558 351 565 364 q 551 338 556 347 q 551 325 547 328 q 560 324 556 321 q 570 331 565 326 q 579 342 575 336 q 586 353 583 349 l 588 356 l 632 447 q 650 451 643 447 q 636 419 643 435 q 618 388 629 403 q 641 403 628 397 q 664 394 654 410 q 665 363 672 381 q 647 333 657 344 q 663 336 656 332 q 676 346 669 340 q 689 372 682 358 q 703 397 696 385 l 728 447 q 746 451 738 444 q 728 413 736 432 q 708 375 719 394 q 702 361 706 368 q 694 347 699 354 q 692 340 693 344 q 690 331 690 335 q 692 324 690 326 q 700 325 693 322 q 715 336 707 328 q 726 353 722 344 q 743 383 731 371 q 756 394 747 388 q 776 403 765 400 q 794 403 786 406 q 806 389 803 401 q 801 368 807 378 q 784 352 794 358 q 761 342 774 346 q 740 339 749 339 q 744 326 739 331 q 758 321 750 321 q 792 331 776 321 q 815 356 807 340 l 821 353 q 789 322 810 333 q 746 314 768 310 q 724 339 724 318 q 713 326 718 332 q 700 317 707 319 q 680 315 690 311 q 672 332 669 318 l 672 335 q 667 332 669 332 q 650 328 661 328 l 640 328 q 636 325 638 328 q 632 322 635 322 q 602 315 618 314 q 578 331 586 317 q 554 314 568 318 q 537 318 542 311 q 536 336 532 325 q 517 317 529 326 q 493 317 506 308 q 483 336 483 322 q 464 317 475 324 q 443 315 453 311 q 435 329 433 318 q 419 317 425 319 q 398 315 408 311 q 390 331 388 318 q 379 321 385 325 q 367 314 374 317 q 349 318 354 311 q 350 336 344 325 l 349 336 q 330 317 342 326 q 306 317 318 308 q 297 326 299 319 q 297 339 296 332 q 283 331 290 332 q 265 328 278 328 q 257 326 258 328 q 251 322 256 325 q 235 315 244 318 q 219 314 226 313 q 208 322 213 315 q 207 339 204 328 q 218 369 210 354 q 233 399 226 385 q 251 404 240 399 q 243 383 247 393 q 233 364 239 374 q 228 353 232 360 q 221 340 224 347 q 218 328 218 333 q 224 321 218 322 q 247 332 236 318 q 263 353 258 346 q 274 377 269 364 q 278 403 278 390 q 292 396 290 406 q 290 378 293 386 q 265 335 285 356 q 286 339 276 332 q 301 356 296 346 l 311 371 m 1310 536 q 1285 543 1294 536 q 1272 561 1276 550 q 1266 585 1268 572 q 1264 610 1264 599 q 1261 665 1261 636 q 1269 719 1261 693 q 1281 740 1274 731 q 1301 750 1289 749 q 1344 732 1329 757 q 1357 680 1357 708 q 1357 626 1357 651 q 1356 598 1357 614 q 1351 569 1356 582 q 1336 546 1346 556 q 1310 536 1326 536 m 540 536 q 516 543 525 536 q 502 561 507 550 q 496 585 497 572 q 493 610 494 599 q 492 665 492 636 q 500 719 492 693 q 511 740 504 731 q 532 750 518 749 q 575 732 561 757 q 587 680 586 708 q 588 626 588 651 q 586 598 588 614 q 580 569 585 582 q 566 546 575 556 q 540 536 557 536 m 1204 -140 l 1156 -140 l 1156 199 l 1204 199 l 1204 -140 m 313 538 l 283 538 l 283 749 l 315 749 q 335 749 325 749 q 353 746 344 749 q 371 723 367 739 q 375 694 375 707 q 374 656 376 679 q 354 626 371 633 l 379 538 l 346 538 l 328 622 q 320 623 324 622 q 313 624 317 624 l 313 538 m 1397 585 l 1397 538 l 1369 538 l 1369 749 l 1396 749 q 1418 676 1407 713 q 1438 601 1429 639 q 1434 675 1435 638 q 1433 749 1433 713 l 1461 749 l 1461 538 l 1432 538 q 1410 610 1421 574 q 1392 683 1400 646 q 1395 634 1394 658 q 1397 585 1396 610 m 122 538 l 92 538 l 92 749 l 139 749 q 183 713 175 749 q 188 668 189 693 q 176 624 188 643 q 152 608 167 610 q 122 607 138 607 l 122 538 m 628 585 l 628 538 l 600 538 l 600 749 l 626 749 q 648 676 638 713 q 667 601 658 639 q 663 675 664 638 q 663 749 663 713 l 690 749 l 690 538 l 661 538 q 641 610 651 574 q 622 683 631 646 q 625 634 625 658 q 628 585 625 610 m 728 538 l 699 538 l 724 749 l 772 749 l 799 538 l 769 538 l 763 589 l 733 589 l 728 538 m 974 536 q 942 548 953 536 q 928 577 932 560 q 926 614 925 594 q 926 650 926 633 l 926 749 l 957 749 l 957 601 q 956 588 957 594 q 958 574 956 581 q 968 563 961 567 q 982 567 975 560 q 990 585 989 574 q 990 606 990 597 q 991 639 992 622 q 990 672 990 656 l 990 749 l 1021 749 l 1021 650 q 1022 614 1021 633 q 1019 577 1022 594 q 1006 548 1015 560 q 974 536 996 536 m 1514 400 q 1532 404 1521 399 q 1524 390 1528 396 q 1515 376 1521 383 l 1515 375 q 1535 394 1524 385 q 1560 404 1547 403 q 1576 392 1576 404 q 1571 368 1575 379 q 1557 348 1567 363 q 1551 326 1547 333 q 1559 324 1554 322 q 1569 331 1564 325 q 1578 342 1574 336 q 1586 351 1583 347 l 1613 404 l 1601 404 l 1606 413 l 1617 413 l 1628 436 q 1647 440 1639 436 l 1633 413 l 1654 413 l 1649 404 l 1629 404 l 1604 353 q 1597 339 1601 347 q 1596 325 1593 331 q 1606 324 1600 321 q 1617 334 1611 328 q 1628 347 1624 340 q 1633 356 1632 353 l 1639 353 q 1622 329 1632 342 q 1597 314 1613 317 q 1581 317 1585 311 q 1579 331 1576 322 q 1571 323 1575 326 q 1563 317 1567 319 q 1542 314 1553 311 q 1533 331 1532 317 q 1542 352 1535 342 q 1554 372 1550 363 q 1559 385 1556 376 q 1553 393 1563 394 q 1525 374 1538 390 q 1506 346 1513 357 q 1497 330 1500 339 q 1489 313 1493 321 l 1472 313 l 1482 335 q 1481 333 1481 333 q 1467 328 1475 331 l 1454 328 q 1440 317 1447 319 q 1428 314 1432 314 q 1403 318 1414 308 q 1394 343 1392 328 q 1401 371 1396 358 q 1421 394 1408 383 q 1450 404 1433 404 q 1470 396 1464 404 q 1476 376 1476 388 q 1472 353 1476 365 q 1461 333 1467 342 q 1489 349 1479 333 l 1514 400 m 422 636 q 386 690 390 657 q 389 722 383 706 q 410 746 394 738 q 440 751 422 753 q 468 739 457 750 q 481 712 481 726 q 481 682 481 697 q 465 683 472 682 q 450 683 457 683 q 451 701 450 692 q 444 717 451 710 q 424 718 432 728 q 415 697 417 708 q 426 672 415 682 q 447 654 436 663 q 467 635 458 646 q 478 613 475 625 q 478 583 481 597 q 469 557 476 568 q 449 540 461 546 q 421 536 438 533 q 390 563 393 542 q 388 607 386 585 l 415 607 q 415 593 415 600 q 415 579 414 586 q 426 565 418 571 q 442 567 433 560 q 450 584 449 572 q 449 604 451 596 q 439 623 446 615 q 422 636 432 631 m 1071 636 q 1033 690 1039 654 q 1037 722 1032 706 q 1057 746 1042 738 q 1088 751 1071 753 q 1115 739 1104 750 q 1127 712 1128 726 q 1126 682 1126 697 q 1113 683 1119 682 q 1099 683 1106 683 q 1099 701 1099 692 q 1093 717 1100 710 q 1073 718 1081 728 q 1064 697 1065 708 q 1074 672 1064 682 q 1094 654 1083 663 q 1126 613 1118 638 q 1127 583 1129 597 q 1117 557 1125 568 q 1097 540 1110 546 q 1068 536 1085 533 q 1037 563 1040 542 q 1033 607 1033 585 l 1064 607 q 1063 593 1064 600 q 1064 579 1061 586 q 1074 565 1067 571 q 1089 567 1081 560 q 1099 584 1097 572 q 1097 604 1100 596 q 1088 623 1094 615 q 1071 636 1081 631 m 275 538 l 199 538 l 199 749 l 275 749 l 275 721 l 229 721 l 229 661 l 267 661 l 267 631 l 229 631 l 229 567 l 275 567 l 275 538 m 1215 538 l 1140 538 l 1140 749 l 1215 749 l 1215 721 l 1171 721 l 1171 661 l 1208 661 l 1208 631 l 1171 631 l 1171 567 l 1215 567 l 1215 538 m 178 360 l 119 357 q 107 333 113 346 q 100 307 101 321 q 87 310 89 304 q 87 326 85 317 q 93 345 89 336 q 100 357 97 354 l 81 356 l 74 367 l 106 367 q 142 414 121 390 q 190 451 163 438 q 213 458 199 457 q 229 444 226 460 q 228 430 232 438 q 222 415 225 422 q 209 388 215 401 q 196 363 203 375 q 183 338 192 353 q 179 313 175 324 q 165 315 168 310 q 165 329 163 321 q 171 347 167 338 q 178 360 175 356 m 1615 749 l 1644 749 q 1631 690 1638 719 q 1617 631 1624 660 q 1612 585 1610 608 q 1614 538 1614 561 l 1582 538 q 1583 585 1582 561 q 1578 631 1583 608 q 1564 690 1571 660 q 1550 749 1557 719 l 1579 749 q 1590 695 1585 722 q 1597 640 1594 668 q 1604 694 1599 668 q 1615 749 1610 721 m 1111 315 q 1103 331 1101 321 q 1110 350 1106 342 l 1133 399 q 1153 404 1142 399 l 1135 367 q 1124 347 1132 361 q 1121 326 1115 332 q 1141 330 1129 319 q 1157 346 1153 340 q 1164 356 1161 351 q 1171 368 1167 361 l 1188 401 q 1204 404 1193 401 q 1192 378 1199 392 q 1179 353 1186 365 q 1172 339 1176 347 q 1172 325 1168 331 q 1186 326 1178 318 q 1201 344 1194 335 q 1215 371 1207 357 q 1229 397 1222 385 q 1240 422 1235 410 q 1253 447 1246 435 q 1272 451 1263 444 l 1235 375 l 1221 347 q 1216 330 1218 340 q 1225 325 1214 319 q 1246 343 1236 329 q 1259 371 1251 357 q 1274 397 1267 385 q 1285 422 1279 410 q 1297 447 1290 435 q 1317 451 1307 444 l 1279 375 l 1265 347 q 1263 340 1264 344 q 1260 331 1261 335 q 1261 324 1260 326 q 1269 325 1263 322 q 1286 338 1279 328 q 1297 356 1293 347 l 1303 353 q 1289 332 1296 342 q 1271 317 1282 322 q 1251 315 1261 311 q 1243 329 1242 318 q 1226 317 1235 321 q 1207 315 1217 311 q 1199 331 1197 318 q 1185 318 1192 324 q 1171 313 1179 313 q 1157 321 1158 313 q 1160 338 1156 329 q 1137 318 1151 328 q 1111 315 1122 308 m 1547 538 l 1472 538 l 1472 749 l 1503 749 l 1503 564 l 1547 564 l 1547 538 m 881 538 l 806 538 l 806 749 l 836 749 l 836 564 l 881 564 l 881 538 m 1028 29 q 1045 28 1036 29 q 1061 33 1054 28 q 1076 61 1074 44 q 1079 92 1079 78 q 1076 125 1079 107 q 1063 154 1074 143 q 1046 160 1056 161 q 1028 160 1036 160 l 1028 29 m 938 400 q 957 404 946 399 q 949 390 953 396 q 940 376 946 383 l 940 375 q 960 394 949 385 q 985 404 972 403 q 1001 392 1001 404 q 994 368 1000 379 q 981 348 992 363 q 975 326 971 333 q 984 324 978 321 q 996 334 990 328 q 1006 347 1001 340 q 1013 356 1011 353 l 1018 353 q 1004 333 1011 343 q 986 317 997 324 q 967 314 976 311 q 958 331 957 317 q 967 352 960 342 q 979 372 975 363 q 982 378 981 374 q 984 385 983 382 q 983 392 985 389 q 976 393 982 394 q 949 374 961 390 q 931 346 938 357 l 914 313 l 897 313 l 903 325 q 897 320 900 322 q 892 317 894 318 q 871 315 881 311 q 864 332 861 318 q 870 353 864 343 q 881 374 876 363 q 893 399 889 386 q 914 404 907 399 l 888 351 q 881 338 885 347 q 881 325 876 329 q 890 324 885 321 q 901 334 896 328 q 911 347 907 340 q 917 356 915 353 l 938 400 m 1310 725 q 1297 715 1301 725 q 1292 690 1293 704 q 1291 663 1290 676 q 1292 643 1292 649 q 1291 624 1292 638 q 1292 597 1290 611 q 1297 573 1293 583 q 1310 563 1301 563 q 1322 573 1318 563 q 1328 597 1326 583 q 1328 624 1329 611 q 1328 643 1328 638 q 1328 663 1328 649 q 1328 690 1329 676 q 1322 715 1326 704 q 1310 725 1318 725 m 540 725 q 528 715 532 725 q 522 690 524 704 q 522 663 521 676 q 522 643 522 649 q 522 624 522 638 q 522 597 521 611 q 528 573 524 583 q 540 563 532 563 q 552 573 549 563 q 557 597 556 583 q 558 624 558 611 q 557 643 557 638 q 558 663 557 649 q 557 690 558 676 q 552 715 556 704 q 540 725 549 725 m 1653 749 l 1683 749 q 1682 671 1683 710 q 1678 592 1681 632 l 1658 592 q 1654 670 1656 632 q 1653 749 1653 708 m 211 450 q 185 440 200 453 q 164 421 171 428 q 124 367 142 396 l 182 367 l 200 404 q 206 415 201 408 q 213 430 210 422 q 216 443 215 438 q 211 450 217 449 m 1443 432 q 1434 433 1436 428 q 1433 443 1432 438 q 1410 435 1418 449 q 1400 413 1403 422 l 1419 413 l 1415 404 l 1396 404 l 1335 279 q 1315 276 1329 279 l 1379 404 l 1358 404 l 1363 413 l 1383 413 q 1394 435 1388 424 q 1415 449 1401 446 q 1436 447 1424 451 q 1444 441 1439 446 q 1443 432 1449 436 m 1160 432 q 1150 433 1153 428 q 1149 443 1147 438 q 1126 435 1133 449 q 1115 413 1118 422 l 1135 413 l 1131 404 l 1111 404 l 1050 279 q 1032 276 1043 279 l 1094 404 l 1074 404 l 1079 413 l 1099 413 q 1110 435 1103 424 q 1131 449 1117 446 q 1151 447 1139 451 q 1159 441 1154 446 q 1160 432 1164 436 m 864 43 q 860 15 861 29 q 856 -12 858 1 l 896 -12 q 885 69 892 28 q 875 151 878 110 q 870 97 874 124 q 864 43 867 71 m 122 632 q 135 631 129 632 q 146 636 142 631 q 153 656 153 643 q 154 678 154 668 q 153 700 154 688 q 146 719 153 713 q 135 726 142 726 q 122 725 129 725 l 122 632 m 1451 397 q 1431 385 1440 397 q 1415 358 1421 372 q 1410 331 1410 343 q 1421 319 1410 319 q 1439 332 1429 319 q 1455 359 1449 344 q 1461 385 1461 374 q 1451 397 1461 397 m 1289 -112 q 1281 -133 1289 -126 q 1262 -140 1272 -140 q 1243 -133 1251 -140 q 1235 -112 1235 -126 q 1243 -92 1235 -99 q 1262 -85 1251 -85 q 1281 -92 1272 -85 q 1289 -112 1289 -99 m 781 -112 q 772 -133 781 -126 q 753 -140 764 -140 q 735 -133 743 -140 q 726 -112 726 -126 q 735 -92 726 -99 q 753 -85 743 -85 q 772 -92 764 -85 q 781 -112 781 -99 m 642 393 q 624 386 632 393 q 610 369 617 379 q 599 347 604 358 q 590 328 594 335 q 619 328 606 317 q 640 350 633 339 q 646 360 642 353 q 651 374 650 367 q 651 388 653 382 q 642 393 650 393 m 321 322 q 339 331 331 322 q 353 350 347 339 q 365 373 360 361 q 374 393 369 385 q 346 389 360 400 q 325 367 332 378 q 319 357 324 364 q 313 342 315 350 q 312 328 311 335 q 321 322 313 322 m 313 644 q 324 644 318 644 q 333 646 329 643 q 343 664 342 653 q 344 685 344 675 q 343 705 344 693 q 333 722 342 717 q 324 725 329 725 q 313 725 319 725 l 313 644 m 508 322 q 526 331 518 322 q 541 350 535 339 q 552 373 547 361 q 561 393 557 385 q 533 389 546 400 q 513 367 519 378 q 507 357 511 364 q 501 342 503 350 q 499 328 499 335 q 508 322 500 322 m 749 364 q 743 353 744 357 q 740 344 742 349 q 774 358 756 344 q 793 388 793 371 q 785 397 793 399 q 771 392 778 396 q 758 378 764 386 q 749 364 753 371 m 740 651 l 736 618 l 760 618 q 753 668 757 643 q 749 718 750 693 q 745 686 747 703 q 740 651 743 669 m 1685 556 q 1679 542 1685 547 q 1667 538 1674 538 q 1656 542 1661 538 q 1651 556 1651 547 q 1656 569 1651 564 q 1667 574 1661 574 q 1679 569 1674 574 q 1685 556 1685 564 m 926 428 q 910 421 921 418 q 903 435 900 424 q 910 442 904 440 q 920 443 915 444 q 927 438 925 442 q 926 428 929 433 m 454 428 q 440 421 450 418 q 432 435 429 424 q 438 442 433 440 q 448 443 443 444 q 456 438 453 442 q 454 428 458 433 m 1658 321 q 1642 315 1653 310 q 1638 329 1632 319 q 1653 335 1643 340 q 1658 321 1664 331 m 1686 385 q 1679 378 1683 379 q 1671 378 1675 376 q 1665 384 1667 381 q 1667 393 1664 388 q 1682 399 1672 403 q 1686 385 1692 394 z "},"2":{"ha":1767,"x_min":74,"x_max":1692,"o":"m 497 199 l 556 199 q 567 58 563 128 q 575 -83 572 -12 q 583 24 579 -31 q 593 131 586 78 l 601 199 l 656 199 q 668 83 663 140 q 678 -32 674 26 l 682 -83 q 688 28 686 -26 q 696 138 690 83 q 699 168 699 153 q 701 199 700 183 l 743 199 l 715 -140 l 651 -140 q 638 -6 644 -74 q 629 129 632 61 q 622 28 626 79 q 613 -72 618 -22 l 607 -140 l 542 -140 l 526 50 l 510 -140 l 447 -140 q 433 -6 440 -74 q 424 129 426 61 q 417 28 421 79 q 408 -72 414 -22 l 401 -140 l 338 -140 l 321 54 l 306 -140 l 242 -140 q 228 -7 235 -74 q 219 128 222 60 q 214 27 218 76 q 204 -72 210 -22 l 196 -140 l 133 -140 l 104 199 l 146 199 q 158 58 153 128 q 165 -83 163 -12 q 173 24 169 -31 q 183 131 176 78 l 192 199 l 246 199 q 258 83 253 140 q 268 -32 264 26 l 272 -83 q 278 28 276 -26 q 286 138 281 83 l 293 199 l 350 199 q 362 58 357 128 q 371 -83 367 -12 q 378 24 375 -31 q 388 131 382 78 q 392 164 390 147 q 396 199 393 181 l 451 199 q 463 83 458 140 q 474 -32 468 26 l 476 -83 q 483 28 481 -26 q 492 138 486 83 l 497 199 m 1672 932 l 103 932 l 103 963 l 1672 963 l 1672 932 m 1672 -357 l 103 -357 l 103 -326 l 1672 -326 l 1672 -357 m 1028 -140 l 979 -140 l 979 199 l 1029 199 q 1060 199 1044 199 q 1089 193 1075 200 q 1119 155 1113 182 q 1126 104 1126 128 q 1126 78 1126 93 q 1123 47 1126 63 q 1113 19 1119 32 q 1093 3 1106 7 l 1135 -140 l 1081 -140 l 1051 -6 l 1028 -6 l 1028 -140 m 1365 -65 l 1365 -140 l 1319 -140 l 1319 199 l 1364 199 q 1398 81 1381 139 q 1429 -39 1415 22 q 1423 80 1424 21 q 1422 199 1422 139 l 1467 199 l 1467 -140 l 1421 -140 q 1387 -24 1404 -82 q 1357 92 1369 33 q 1361 13 1360 51 q 1365 -65 1363 -25 m 842 -140 l 796 -140 l 836 199 l 915 199 l 957 -140 l 908 -140 l 899 -60 l 853 -60 l 842 -140 m 1601 72 q 1601 105 1603 88 q 1594 138 1600 122 q 1580 156 1590 149 q 1560 149 1569 163 q 1550 120 1551 138 q 1547 88 1549 103 q 1546 55 1546 71 q 1546 24 1546 39 q 1546 -8 1546 8 q 1549 -40 1546 -25 q 1551 -71 1549 -53 q 1567 -96 1554 -89 q 1589 -94 1581 -104 q 1600 -66 1597 -83 q 1603 -31 1603 -49 q 1604 -7 1604 -14 l 1569 -7 l 1569 32 l 1650 32 l 1650 -139 l 1614 -139 l 1613 -93 q 1602 -124 1610 -108 q 1579 -143 1594 -139 q 1549 -140 1564 -147 q 1524 -122 1533 -133 q 1501 -64 1504 -99 q 1499 -1 1499 -29 q 1497 72 1496 35 q 1508 142 1499 108 q 1518 171 1511 157 q 1539 192 1525 185 q 1569 201 1553 200 q 1601 197 1586 203 q 1628 176 1618 190 q 1642 145 1638 163 q 1647 110 1646 128 q 1649 76 1649 92 l 1601 72 m 311 371 q 328 390 318 382 q 350 401 338 399 q 372 399 361 404 q 396 399 383 394 l 371 351 q 363 338 368 347 q 364 325 358 328 q 379 328 371 319 q 394 346 388 336 q 401 360 397 353 q 410 374 406 367 l 421 399 q 442 404 432 399 l 415 351 q 408 338 413 347 q 410 325 404 329 q 424 327 415 319 q 438 344 432 335 q 451 371 443 357 q 464 397 458 385 q 476 422 471 410 q 489 447 482 435 q 508 451 500 444 l 471 375 q 465 361 468 368 q 458 347 461 354 q 453 330 456 340 q 461 325 450 319 q 474 335 468 328 q 486 350 481 342 q 497 371 490 361 q 514 390 504 382 q 536 401 524 399 q 560 399 549 404 q 583 399 571 394 q 571 376 576 388 q 558 351 565 364 q 551 338 556 347 q 551 325 547 328 q 560 324 556 321 q 570 331 565 326 q 579 342 575 336 q 586 353 583 349 l 588 356 l 632 447 q 650 451 643 447 q 636 419 643 435 q 618 388 629 403 q 641 403 628 397 q 664 394 654 410 q 665 363 672 381 q 647 333 657 344 q 663 336 656 332 q 676 346 669 340 q 689 372 682 358 q 703 397 696 385 l 728 447 q 746 451 738 444 q 728 413 736 432 q 708 375 719 394 q 702 361 706 368 q 694 347 699 354 q 692 340 693 344 q 690 331 690 335 q 692 324 690 326 q 700 325 693 322 q 715 336 707 328 q 726 353 722 344 q 743 383 731 371 q 756 394 747 388 q 776 403 765 400 q 794 403 786 406 q 806 389 803 401 q 801 368 807 378 q 784 352 794 358 q 761 342 774 346 q 740 339 749 339 q 744 326 739 331 q 758 321 750 321 q 792 331 776 321 q 815 356 807 340 l 821 353 q 789 322 810 333 q 746 314 768 310 q 724 339 724 318 q 713 326 718 332 q 700 317 707 319 q 680 315 690 311 q 672 332 669 318 l 672 335 q 667 332 669 332 q 650 328 661 328 l 640 328 q 636 325 638 328 q 632 322 635 322 q 602 315 618 314 q 578 331 586 317 q 554 314 568 318 q 537 318 542 311 q 536 336 532 325 q 517 317 529 326 q 493 317 506 308 q 483 336 483 322 q 464 317 475 324 q 443 315 453 311 q 435 329 433 318 q 419 317 425 319 q 398 315 408 311 q 390 331 388 318 q 379 321 385 325 q 367 314 374 317 q 349 318 354 311 q 350 336 344 325 l 349 336 q 330 317 342 326 q 306 317 318 308 q 297 326 299 319 q 297 339 296 332 q 283 331 290 332 q 265 328 278 328 q 257 326 258 328 q 251 322 256 325 q 235 315 244 318 q 219 314 226 313 q 208 322 213 315 q 207 339 204 328 q 218 369 210 354 q 233 399 226 385 q 251 404 240 399 q 243 383 247 393 q 233 364 239 374 q 228 353 232 360 q 221 340 224 347 q 218 328 218 333 q 224 321 218 322 q 247 332 236 318 q 263 353 258 346 q 274 377 269 364 q 278 403 278 390 q 292 396 290 406 q 290 378 293 386 q 265 335 285 356 q 286 339 276 332 q 301 356 296 346 l 311 371 m 1310 536 q 1285 543 1294 536 q 1272 561 1276 550 q 1266 585 1268 572 q 1264 610 1264 599 q 1261 665 1261 636 q 1269 719 1261 693 q 1281 740 1274 731 q 1301 750 1289 749 q 1344 732 1329 757 q 1357 680 1357 708 q 1357 626 1357 651 q 1356 598 1357 614 q 1351 569 1356 582 q 1336 546 1346 556 q 1310 536 1326 536 m 540 536 q 516 543 525 536 q 502 561 507 550 q 496 585 497 572 q 493 610 494 599 q 492 665 492 636 q 500 719 492 693 q 511 740 504 731 q 532 750 518 749 q 575 732 561 757 q 587 680 586 708 q 588 626 588 651 q 586 598 588 614 q 580 569 585 582 q 566 546 575 556 q 540 536 557 536 m 1204 -140 l 1156 -140 l 1156 199 l 1204 199 l 1204 -140 m 313 538 l 283 538 l 283 749 l 315 749 q 335 749 325 749 q 353 746 344 749 q 371 723 367 739 q 375 694 375 707 q 374 656 376 679 q 354 626 371 633 l 379 538 l 346 538 l 328 622 q 320 623 324 622 q 313 624 317 624 l 313 538 m 1397 585 l 1397 538 l 1369 538 l 1369 749 l 1396 749 q 1418 676 1407 713 q 1438 601 1429 639 q 1434 675 1435 638 q 1433 749 1433 713 l 1461 749 l 1461 538 l 1432 538 q 1410 610 1421 574 q 1392 683 1400 646 q 1395 634 1394 658 q 1397 585 1396 610 m 122 538 l 92 538 l 92 749 l 139 749 q 183 713 175 749 q 188 668 189 693 q 176 624 188 643 q 152 608 167 610 q 122 607 138 607 l 122 538 m 628 585 l 628 538 l 600 538 l 600 749 l 626 749 q 648 676 638 713 q 667 601 658 639 q 663 675 664 638 q 663 749 663 713 l 690 749 l 690 538 l 661 538 q 641 610 651 574 q 622 683 631 646 q 625 634 625 658 q 628 585 625 610 m 728 538 l 699 538 l 724 749 l 772 749 l 799 538 l 769 538 l 763 589 l 733 589 l 728 538 m 974 536 q 942 548 953 536 q 928 577 932 560 q 926 614 925 594 q 926 650 926 633 l 926 749 l 957 749 l 957 601 q 956 588 957 594 q 958 574 956 581 q 968 563 961 567 q 982 567 975 560 q 990 585 989 574 q 990 606 990 597 q 991 639 992 622 q 990 672 990 656 l 990 749 l 1021 749 l 1021 650 q 1022 614 1021 633 q 1019 577 1022 594 q 1006 548 1015 560 q 974 536 996 536 m 1514 400 q 1532 404 1521 399 q 1524 390 1528 396 q 1515 376 1521 383 l 1515 375 q 1535 394 1524 385 q 1560 404 1547 403 q 1576 392 1576 404 q 1571 368 1575 379 q 1557 348 1567 363 q 1551 326 1547 333 q 1559 324 1554 322 q 1569 331 1564 325 q 1578 342 1574 336 q 1586 351 1583 347 l 1613 404 l 1601 404 l 1606 413 l 1617 413 l 1628 436 q 1647 440 1639 436 l 1633 413 l 1654 413 l 1649 404 l 1629 404 l 1604 353 q 1597 339 1601 347 q 1596 325 1593 331 q 1606 324 1600 321 q 1617 334 1611 328 q 1628 347 1624 340 q 1633 356 1632 353 l 1639 353 q 1622 329 1632 342 q 1597 314 1613 317 q 1581 317 1585 311 q 1579 331 1576 322 q 1571 323 1575 326 q 1563 317 1567 319 q 1542 314 1553 311 q 1533 331 1532 317 q 1542 352 1535 342 q 1554 372 1550 363 q 1559 385 1556 376 q 1553 393 1563 394 q 1525 374 1538 390 q 1506 346 1513 357 q 1497 330 1500 339 q 1489 313 1493 321 l 1472 313 l 1482 335 q 1481 333 1481 333 q 1467 328 1475 331 l 1454 328 q 1440 317 1447 319 q 1428 314 1432 314 q 1403 318 1414 308 q 1394 343 1392 328 q 1401 371 1396 358 q 1421 394 1408 383 q 1450 404 1433 404 q 1470 396 1464 404 q 1476 376 1476 388 q 1472 353 1476 365 q 1461 333 1467 342 q 1489 349 1479 333 l 1514 400 m 422 636 q 386 690 390 657 q 389 722 383 706 q 410 746 394 738 q 440 751 422 753 q 468 739 457 750 q 481 712 481 726 q 481 682 481 697 q 465 683 472 682 q 450 683 457 683 q 451 701 450 692 q 444 717 451 710 q 424 718 432 728 q 415 697 417 708 q 426 672 415 682 q 447 654 436 663 q 467 635 458 646 q 478 613 475 625 q 478 583 481 597 q 469 557 476 568 q 449 540 461 546 q 421 536 438 533 q 390 563 393 542 q 388 607 386 585 l 415 607 q 415 593 415 600 q 415 579 414 586 q 426 565 418 571 q 442 567 433 560 q 450 584 449 572 q 449 604 451 596 q 439 623 446 615 q 422 636 432 631 m 1071 636 q 1033 690 1039 654 q 1037 722 1032 706 q 1057 746 1042 738 q 1088 751 1071 753 q 1115 739 1104 750 q 1127 712 1128 726 q 1126 682 1126 697 q 1113 683 1119 682 q 1099 683 1106 683 q 1099 701 1099 692 q 1093 717 1100 710 q 1073 718 1081 728 q 1064 697 1065 708 q 1074 672 1064 682 q 1094 654 1083 663 q 1126 613 1118 638 q 1127 583 1129 597 q 1117 557 1125 568 q 1097 540 1110 546 q 1068 536 1085 533 q 1037 563 1040 542 q 1033 607 1033 585 l 1064 607 q 1063 593 1064 600 q 1064 579 1061 586 q 1074 565 1067 571 q 1089 567 1081 560 q 1099 584 1097 572 q 1097 604 1100 596 q 1088 623 1094 615 q 1071 636 1081 631 m 275 538 l 199 538 l 199 749 l 275 749 l 275 721 l 229 721 l 229 661 l 267 661 l 267 631 l 229 631 l 229 567 l 275 567 l 275 538 m 1215 538 l 1140 538 l 1140 749 l 1215 749 l 1215 721 l 1171 721 l 1171 661 l 1208 661 l 1208 631 l 1171 631 l 1171 567 l 1215 567 l 1215 538 m 178 360 l 119 357 q 107 333 113 346 q 100 307 101 321 q 87 310 89 304 q 87 326 85 317 q 93 345 89 336 q 100 357 97 354 l 81 356 l 74 367 l 106 367 q 142 414 121 390 q 190 451 163 438 q 213 458 199 457 q 229 444 226 460 q 228 430 232 438 q 222 415 225 422 q 209 388 215 401 q 196 363 203 375 q 183 338 192 353 q 179 313 175 324 q 165 315 168 310 q 165 329 163 321 q 171 347 167 338 q 178 360 175 356 m 1615 749 l 1644 749 q 1631 690 1638 719 q 1617 631 1624 660 q 1612 585 1610 608 q 1614 538 1614 561 l 1582 538 q 1583 585 1582 561 q 1578 631 1583 608 q 1564 690 1571 660 q 1550 749 1557 719 l 1579 749 q 1590 695 1585 722 q 1597 640 1594 668 q 1604 694 1599 668 q 1615 749 1610 721 m 1111 315 q 1103 331 1101 321 q 1110 350 1106 342 l 1133 399 q 1153 404 1142 399 l 1135 367 q 1124 347 1132 361 q 1121 326 1115 332 q 1141 330 1129 319 q 1157 346 1153 340 q 1164 356 1161 351 q 1171 368 1167 361 l 1188 401 q 1204 404 1193 401 q 1192 378 1199 392 q 1179 353 1186 365 q 1172 339 1176 347 q 1172 325 1168 331 q 1186 326 1178 318 q 1201 344 1194 335 q 1215 371 1207 357 q 1229 397 1222 385 q 1240 422 1235 410 q 1253 447 1246 435 q 1272 451 1263 444 l 1235 375 l 1221 347 q 1216 330 1218 340 q 1225 325 1214 319 q 1246 343 1236 329 q 1259 371 1251 357 q 1274 397 1267 385 q 1285 422 1279 410 q 1297 447 1290 435 q 1317 451 1307 444 l 1279 375 l 1265 347 q 1263 340 1264 344 q 1260 331 1261 335 q 1261 324 1260 326 q 1269 325 1263 322 q 1286 338 1279 328 q 1297 356 1293 347 l 1303 353 q 1289 332 1296 342 q 1271 317 1282 322 q 1251 315 1261 311 q 1243 329 1242 318 q 1226 317 1235 321 q 1207 315 1217 311 q 1199 331 1197 318 q 1185 318 1192 324 q 1171 313 1179 313 q 1157 321 1158 313 q 1160 338 1156 329 q 1137 318 1151 328 q 1111 315 1122 308 m 1547 538 l 1472 538 l 1472 749 l 1503 749 l 1503 564 l 1547 564 l 1547 538 m 881 538 l 806 538 l 806 749 l 836 749 l 836 564 l 881 564 l 881 538 m 1028 29 q 1045 28 1036 29 q 1061 33 1054 28 q 1076 61 1074 44 q 1079 92 1079 78 q 1076 125 1079 107 q 1063 154 1074 143 q 1046 160 1056 161 q 1028 160 1036 160 l 1028 29 m 938 400 q 957 404 946 399 q 949 390 953 396 q 940 376 946 383 l 940 375 q 960 394 949 385 q 985 404 972 403 q 1001 392 1001 404 q 994 368 1000 379 q 981 348 992 363 q 975 326 971 333 q 984 324 978 321 q 996 334 990 328 q 1006 347 1001 340 q 1013 356 1011 353 l 1018 353 q 1004 333 1011 343 q 986 317 997 324 q 967 314 976 311 q 958 331 957 317 q 967 352 960 342 q 979 372 975 363 q 982 378 981 374 q 984 385 983 382 q 983 392 985 389 q 976 393 982 394 q 949 374 961 390 q 931 346 938 357 l 914 313 l 897 313 l 903 325 q 897 320 900 322 q 892 317 894 318 q 871 315 881 311 q 864 332 861 318 q 870 353 864 343 q 881 374 876 363 q 893 399 889 386 q 914 404 907 399 l 888 351 q 881 338 885 347 q 881 325 876 329 q 890 324 885 321 q 901 334 896 328 q 911 347 907 340 q 917 356 915 353 l 938 400 m 1310 725 q 1297 715 1301 725 q 1292 690 1293 704 q 1291 663 1290 676 q 1292 643 1292 649 q 1291 624 1292 638 q 1292 597 1290 611 q 1297 573 1293 583 q 1310 563 1301 563 q 1322 573 1318 563 q 1328 597 1326 583 q 1328 624 1329 611 q 1328 643 1328 638 q 1328 663 1328 649 q 1328 690 1329 676 q 1322 715 1326 704 q 1310 725 1318 725 m 540 725 q 528 715 532 725 q 522 690 524 704 q 522 663 521 676 q 522 643 522 649 q 522 624 522 638 q 522 597 521 611 q 528 573 524 583 q 540 563 532 563 q 552 573 549 563 q 557 597 556 583 q 558 624 558 611 q 557 643 557 638 q 558 663 557 649 q 557 690 558 676 q 552 715 556 704 q 540 725 549 725 m 1653 749 l 1683 749 q 1682 671 1683 710 q 1678 592 1681 632 l 1658 592 q 1654 670 1656 632 q 1653 749 1653 708 m 211 450 q 185 440 200 453 q 164 421 171 428 q 124 367 142 396 l 182 367 l 200 404 q 206 415 201 408 q 213 430 210 422 q 216 443 215 438 q 211 450 217 449 m 1443 432 q 1434 433 1436 428 q 1433 443 1432 438 q 1410 435 1418 449 q 1400 413 1403 422 l 1419 413 l 1415 404 l 1396 404 l 1335 279 q 1315 276 1329 279 l 1379 404 l 1358 404 l 1363 413 l 1383 413 q 1394 435 1388 424 q 1415 449 1401 446 q 1436 447 1424 451 q 1444 441 1439 446 q 1443 432 1449 436 m 1160 432 q 1150 433 1153 428 q 1149 443 1147 438 q 1126 435 1133 449 q 1115 413 1118 422 l 1135 413 l 1131 404 l 1111 404 l 1050 279 q 1032 276 1043 279 l 1094 404 l 1074 404 l 1079 413 l 1099 413 q 1110 435 1103 424 q 1131 449 1117 446 q 1151 447 1139 451 q 1159 441 1154 446 q 1160 432 1164 436 m 864 43 q 860 15 861 29 q 856 -12 858 1 l 896 -12 q 885 69 892 28 q 875 151 878 110 q 870 97 874 124 q 864 43 867 71 m 122 632 q 135 631 129 632 q 146 636 142 631 q 153 656 153 643 q 154 678 154 668 q 153 700 154 688 q 146 719 153 713 q 135 726 142 726 q 122 725 129 725 l 122 632 m 1451 397 q 1431 385 1440 397 q 1415 358 1421 372 q 1410 331 1410 343 q 1421 319 1410 319 q 1439 332 1429 319 q 1455 359 1449 344 q 1461 385 1461 374 q 1451 397 1461 397 m 1289 -112 q 1281 -133 1289 -126 q 1262 -140 1272 -140 q 1243 -133 1251 -140 q 1235 -112 1235 -126 q 1243 -92 1235 -99 q 1262 -85 1251 -85 q 1281 -92 1272 -85 q 1289 -112 1289 -99 m 781 -112 q 772 -133 781 -126 q 753 -140 764 -140 q 735 -133 743 -140 q 726 -112 726 -126 q 735 -92 726 -99 q 753 -85 743 -85 q 772 -92 764 -85 q 781 -112 781 -99 m 642 393 q 624 386 632 393 q 610 369 617 379 q 599 347 604 358 q 590 328 594 335 q 619 328 606 317 q 640 350 633 339 q 646 360 642 353 q 651 374 650 367 q 651 388 653 382 q 642 393 650 393 m 321 322 q 339 331 331 322 q 353 350 347 339 q 365 373 360 361 q 374 393 369 385 q 346 389 360 400 q 325 367 332 378 q 319 357 324 364 q 313 342 315 350 q 312 328 311 335 q 321 322 313 322 m 313 644 q 324 644 318 644 q 333 646 329 643 q 343 664 342 653 q 344 685 344 675 q 343 705 344 693 q 333 722 342 717 q 324 725 329 725 q 313 725 319 725 l 313 644 m 508 322 q 526 331 518 322 q 541 350 535 339 q 552 373 547 361 q 561 393 557 385 q 533 389 546 400 q 513 367 519 378 q 507 357 511 364 q 501 342 503 350 q 499 328 499 335 q 508 322 500 322 m 749 364 q 743 353 744 357 q 740 344 742 349 q 774 358 756 344 q 793 388 793 371 q 785 397 793 399 q 771 392 778 396 q 758 378 764 386 q 749 364 753 371 m 740 651 l 736 618 l 760 618 q 753 668 757 643 q 749 718 750 693 q 745 686 747 703 q 740 651 743 669 m 1685 556 q 1679 542 1685 547 q 1667 538 1674 538 q 1656 542 1661 538 q 1651 556 1651 547 q 1656 569 1651 564 q 1667 574 1661 574 q 1679 569 1674 574 q 1685 556 1685 564 m 926 428 q 910 421 921 418 q 903 435 900 424 q 910 442 904 440 q 920 443 915 444 q 927 438 925 442 q 926 428 929 433 m 454 428 q 440 421 450 418 q 432 435 429 424 q 438 442 433 440 q 448 443 443 444 q 456 438 453 442 q 454 428 458 433 m 1658 321 q 1642 315 1653 310 q 1638 329 1632 319 q 1653 335 1643 340 q 1658 321 1664 331 m 1686 385 q 1679 378 1683 379 q 1671 378 1675 376 q 1665 384 1667 381 q 1667 393 1664 388 q 1682 399 1672 403 q 1686 385 1692 394 z "},"3":{"ha":1767,"x_min":74,"x_max":1692,"o":"m 497 199 l 556 199 q 567 58 563 128 q 575 -83 572 -12 q 583 24 579 -31 q 593 131 586 78 l 601 199 l 656 199 q 668 83 663 140 q 678 -32 674 26 l 682 -83 q 688 28 686 -26 q 696 138 690 83 q 699 168 699 153 q 701 199 700 183 l 743 199 l 715 -140 l 651 -140 q 638 -6 644 -74 q 629 129 632 61 q 622 28 626 79 q 613 -72 618 -22 l 607 -140 l 542 -140 l 526 50 l 510 -140 l 447 -140 q 433 -6 440 -74 q 424 129 426 61 q 417 28 421 79 q 408 -72 414 -22 l 401 -140 l 338 -140 l 321 54 l 306 -140 l 242 -140 q 228 -7 235 -74 q 219 128 222 60 q 214 27 218 76 q 204 -72 210 -22 l 196 -140 l 133 -140 l 104 199 l 146 199 q 158 58 153 128 q 165 -83 163 -12 q 173 24 169 -31 q 183 131 176 78 l 192 199 l 246 199 q 258 83 253 140 q 268 -32 264 26 l 272 -83 q 278 28 276 -26 q 286 138 281 83 l 293 199 l 350 199 q 362 58 357 128 q 371 -83 367 -12 q 378 24 375 -31 q 388 131 382 78 q 392 164 390 147 q 396 199 393 181 l 451 199 q 463 83 458 140 q 474 -32 468 26 l 476 -83 q 483 28 481 -26 q 492 138 486 83 l 497 199 m 1672 932 l 103 932 l 103 963 l 1672 963 l 1672 932 m 1672 -357 l 103 -357 l 103 -326 l 1672 -326 l 1672 -357 m 1028 -140 l 979 -140 l 979 199 l 1029 199 q 1060 199 1044 199 q 1089 193 1075 200 q 1119 155 1113 182 q 1126 104 1126 128 q 1126 78 1126 93 q 1123 47 1126 63 q 1113 19 1119 32 q 1093 3 1106 7 l 1135 -140 l 1081 -140 l 1051 -6 l 1028 -6 l 1028 -140 m 1365 -65 l 1365 -140 l 1319 -140 l 1319 199 l 1364 199 q 1398 81 1381 139 q 1429 -39 1415 22 q 1423 80 1424 21 q 1422 199 1422 139 l 1467 199 l 1467 -140 l 1421 -140 q 1387 -24 1404 -82 q 1357 92 1369 33 q 1361 13 1360 51 q 1365 -65 1363 -25 m 842 -140 l 796 -140 l 836 199 l 915 199 l 957 -140 l 908 -140 l 899 -60 l 853 -60 l 842 -140 m 1601 72 q 1601 105 1603 88 q 1594 138 1600 122 q 1580 156 1590 149 q 1560 149 1569 163 q 1550 120 1551 138 q 1547 88 1549 103 q 1546 55 1546 71 q 1546 24 1546 39 q 1546 -8 1546 8 q 1549 -40 1546 -25 q 1551 -71 1549 -53 q 1567 -96 1554 -89 q 1589 -94 1581 -104 q 1600 -66 1597 -83 q 1603 -31 1603 -49 q 1604 -7 1604 -14 l 1569 -7 l 1569 32 l 1650 32 l 1650 -139 l 1614 -139 l 1613 -93 q 1602 -124 1610 -108 q 1579 -143 1594 -139 q 1549 -140 1564 -147 q 1524 -122 1533 -133 q 1501 -64 1504 -99 q 1499 -1 1499 -29 q 1497 72 1496 35 q 1508 142 1499 108 q 1518 171 1511 157 q 1539 192 1525 185 q 1569 201 1553 200 q 1601 197 1586 203 q 1628 176 1618 190 q 1642 145 1638 163 q 1647 110 1646 128 q 1649 76 1649 92 l 1601 72 m 311 371 q 328 390 318 382 q 350 401 338 399 q 372 399 361 404 q 396 399 383 394 l 371 351 q 363 338 368 347 q 364 325 358 328 q 379 328 371 319 q 394 346 388 336 q 401 360 397 353 q 410 374 406 367 l 421 399 q 442 404 432 399 l 415 351 q 408 338 413 347 q 410 325 404 329 q 424 327 415 319 q 438 344 432 335 q 451 371 443 357 q 464 397 458 385 q 476 422 471 410 q 489 447 482 435 q 508 451 500 444 l 471 375 q 465 361 468 368 q 458 347 461 354 q 453 330 456 340 q 461 325 450 319 q 474 335 468 328 q 486 350 481 342 q 497 371 490 361 q 514 390 504 382 q 536 401 524 399 q 560 399 549 404 q 583 399 571 394 q 571 376 576 388 q 558 351 565 364 q 551 338 556 347 q 551 325 547 328 q 560 324 556 321 q 570 331 565 326 q 579 342 575 336 q 586 353 583 349 l 588 356 l 632 447 q 650 451 643 447 q 636 419 643 435 q 618 388 629 403 q 641 403 628 397 q 664 394 654 410 q 665 363 672 381 q 647 333 657 344 q 663 336 656 332 q 676 346 669 340 q 689 372 682 358 q 703 397 696 385 l 728 447 q 746 451 738 444 q 728 413 736 432 q 708 375 719 394 q 702 361 706 368 q 694 347 699 354 q 692 340 693 344 q 690 331 690 335 q 692 324 690 326 q 700 325 693 322 q 715 336 707 328 q 726 353 722 344 q 743 383 731 371 q 756 394 747 388 q 776 403 765 400 q 794 403 786 406 q 806 389 803 401 q 801 368 807 378 q 784 352 794 358 q 761 342 774 346 q 740 339 749 339 q 744 326 739 331 q 758 321 750 321 q 792 331 776 321 q 815 356 807 340 l 821 353 q 789 322 810 333 q 746 314 768 310 q 724 339 724 318 q 713 326 718 332 q 700 317 707 319 q 680 315 690 311 q 672 332 669 318 l 672 335 q 667 332 669 332 q 650 328 661 328 l 640 328 q 636 325 638 328 q 632 322 635 322 q 602 315 618 314 q 578 331 586 317 q 554 314 568 318 q 537 318 542 311 q 536 336 532 325 q 517 317 529 326 q 493 317 506 308 q 483 336 483 322 q 464 317 475 324 q 443 315 453 311 q 435 329 433 318 q 419 317 425 319 q 398 315 408 311 q 390 331 388 318 q 379 321 385 325 q 367 314 374 317 q 349 318 354 311 q 350 336 344 325 l 349 336 q 330 317 342 326 q 306 317 318 308 q 297 326 299 319 q 297 339 296 332 q 283 331 290 332 q 265 328 278 328 q 257 326 258 328 q 251 322 256 325 q 235 315 244 318 q 219 314 226 313 q 208 322 213 315 q 207 339 204 328 q 218 369 210 354 q 233 399 226 385 q 251 404 240 399 q 243 383 247 393 q 233 364 239 374 q 228 353 232 360 q 221 340 224 347 q 218 328 218 333 q 224 321 218 322 q 247 332 236 318 q 263 353 258 346 q 274 377 269 364 q 278 403 278 390 q 292 396 290 406 q 290 378 293 386 q 265 335 285 356 q 286 339 276 332 q 301 356 296 346 l 311 371 m 1310 536 q 1285 543 1294 536 q 1272 561 1276 550 q 1266 585 1268 572 q 1264 610 1264 599 q 1261 665 1261 636 q 1269 719 1261 693 q 1281 740 1274 731 q 1301 750 1289 749 q 1344 732 1329 757 q 1357 680 1357 708 q 1357 626 1357 651 q 1356 598 1357 614 q 1351 569 1356 582 q 1336 546 1346 556 q 1310 536 1326 536 m 540 536 q 516 543 525 536 q 502 561 507 550 q 496 585 497 572 q 493 610 494 599 q 492 665 492 636 q 500 719 492 693 q 511 740 504 731 q 532 750 518 749 q 575 732 561 757 q 587 680 586 708 q 588 626 588 651 q 586 598 588 614 q 580 569 585 582 q 566 546 575 556 q 540 536 557 536 m 1204 -140 l 1156 -140 l 1156 199 l 1204 199 l 1204 -140 m 313 538 l 283 538 l 283 749 l 315 749 q 335 749 325 749 q 353 746 344 749 q 371 723 367 739 q 375 694 375 707 q 374 656 376 679 q 354 626 371 633 l 379 538 l 346 538 l 328 622 q 320 623 324 622 q 313 624 317 624 l 313 538 m 1397 585 l 1397 538 l 1369 538 l 1369 749 l 1396 749 q 1418 676 1407 713 q 1438 601 1429 639 q 1434 675 1435 638 q 1433 749 1433 713 l 1461 749 l 1461 538 l 1432 538 q 1410 610 1421 574 q 1392 683 1400 646 q 1395 634 1394 658 q 1397 585 1396 610 m 122 538 l 92 538 l 92 749 l 139 749 q 183 713 175 749 q 188 668 189 693 q 176 624 188 643 q 152 608 167 610 q 122 607 138 607 l 122 538 m 628 585 l 628 538 l 600 538 l 600 749 l 626 749 q 648 676 638 713 q 667 601 658 639 q 663 675 664 638 q 663 749 663 713 l 690 749 l 690 538 l 661 538 q 641 610 651 574 q 622 683 631 646 q 625 634 625 658 q 628 585 625 610 m 728 538 l 699 538 l 724 749 l 772 749 l 799 538 l 769 538 l 763 589 l 733 589 l 728 538 m 974 536 q 942 548 953 536 q 928 577 932 560 q 926 614 925 594 q 926 650 926 633 l 926 749 l 957 749 l 957 601 q 956 588 957 594 q 958 574 956 581 q 968 563 961 567 q 982 567 975 560 q 990 585 989 574 q 990 606 990 597 q 991 639 992 622 q 990 672 990 656 l 990 749 l 1021 749 l 1021 650 q 1022 614 1021 633 q 1019 577 1022 594 q 1006 548 1015 560 q 974 536 996 536 m 1514 400 q 1532 404 1521 399 q 1524 390 1528 396 q 1515 376 1521 383 l 1515 375 q 1535 394 1524 385 q 1560 404 1547 403 q 1576 392 1576 404 q 1571 368 1575 379 q 1557 348 1567 363 q 1551 326 1547 333 q 1559 324 1554 322 q 1569 331 1564 325 q 1578 342 1574 336 q 1586 351 1583 347 l 1613 404 l 1601 404 l 1606 413 l 1617 413 l 1628 436 q 1647 440 1639 436 l 1633 413 l 1654 413 l 1649 404 l 1629 404 l 1604 353 q 1597 339 1601 347 q 1596 325 1593 331 q 1606 324 1600 321 q 1617 334 1611 328 q 1628 347 1624 340 q 1633 356 1632 353 l 1639 353 q 1622 329 1632 342 q 1597 314 1613 317 q 1581 317 1585 311 q 1579 331 1576 322 q 1571 323 1575 326 q 1563 317 1567 319 q 1542 314 1553 311 q 1533 331 1532 317 q 1542 352 1535 342 q 1554 372 1550 363 q 1559 385 1556 376 q 1553 393 1563 394 q 1525 374 1538 390 q 1506 346 1513 357 q 1497 330 1500 339 q 1489 313 1493 321 l 1472 313 l 1482 335 q 1481 333 1481 333 q 1467 328 1475 331 l 1454 328 q 1440 317 1447 319 q 1428 314 1432 314 q 1403 318 1414 308 q 1394 343 1392 328 q 1401 371 1396 358 q 1421 394 1408 383 q 1450 404 1433 404 q 1470 396 1464 404 q 1476 376 1476 388 q 1472 353 1476 365 q 1461 333 1467 342 q 1489 349 1479 333 l 1514 400 m 422 636 q 386 690 390 657 q 389 722 383 706 q 410 746 394 738 q 440 751 422 753 q 468 739 457 750 q 481 712 481 726 q 481 682 481 697 q 465 683 472 682 q 450 683 457 683 q 451 701 450 692 q 444 717 451 710 q 424 718 432 728 q 415 697 417 708 q 426 672 415 682 q 447 654 436 663 q 467 635 458 646 q 478 613 475 625 q 478 583 481 597 q 469 557 476 568 q 449 540 461 546 q 421 536 438 533 q 390 563 393 542 q 388 607 386 585 l 415 607 q 415 593 415 600 q 415 579 414 586 q 426 565 418 571 q 442 567 433 560 q 450 584 449 572 q 449 604 451 596 q 439 623 446 615 q 422 636 432 631 m 1071 636 q 1033 690 1039 654 q 1037 722 1032 706 q 1057 746 1042 738 q 1088 751 1071 753 q 1115 739 1104 750 q 1127 712 1128 726 q 1126 682 1126 697 q 1113 683 1119 682 q 1099 683 1106 683 q 1099 701 1099 692 q 1093 717 1100 710 q 1073 718 1081 728 q 1064 697 1065 708 q 1074 672 1064 682 q 1094 654 1083 663 q 1126 613 1118 638 q 1127 583 1129 597 q 1117 557 1125 568 q 1097 540 1110 546 q 1068 536 1085 533 q 1037 563 1040 542 q 1033 607 1033 585 l 1064 607 q 1063 593 1064 600 q 1064 579 1061 586 q 1074 565 1067 571 q 1089 567 1081 560 q 1099 584 1097 572 q 1097 604 1100 596 q 1088 623 1094 615 q 1071 636 1081 631 m 275 538 l 199 538 l 199 749 l 275 749 l 275 721 l 229 721 l 229 661 l 267 661 l 267 631 l 229 631 l 229 567 l 275 567 l 275 538 m 1215 538 l 1140 538 l 1140 749 l 1215 749 l 1215 721 l 1171 721 l 1171 661 l 1208 661 l 1208 631 l 1171 631 l 1171 567 l 1215 567 l 1215 538 m 178 360 l 119 357 q 107 333 113 346 q 100 307 101 321 q 87 310 89 304 q 87 326 85 317 q 93 345 89 336 q 100 357 97 354 l 81 356 l 74 367 l 106 367 q 142 414 121 390 q 190 451 163 438 q 213 458 199 457 q 229 444 226 460 q 228 430 232 438 q 222 415 225 422 q 209 388 215 401 q 196 363 203 375 q 183 338 192 353 q 179 313 175 324 q 165 315 168 310 q 165 329 163 321 q 171 347 167 338 q 178 360 175 356 m 1615 749 l 1644 749 q 1631 690 1638 719 q 1617 631 1624 660 q 1612 585 1610 608 q 1614 538 1614 561 l 1582 538 q 1583 585 1582 561 q 1578 631 1583 608 q 1564 690 1571 660 q 1550 749 1557 719 l 1579 749 q 1590 695 1585 722 q 1597 640 1594 668 q 1604 694 1599 668 q 1615 749 1610 721 m 1111 315 q 1103 331 1101 321 q 1110 350 1106 342 l 1133 399 q 1153 404 1142 399 l 1135 367 q 1124 347 1132 361 q 1121 326 1115 332 q 1141 330 1129 319 q 1157 346 1153 340 q 1164 356 1161 351 q 1171 368 1167 361 l 1188 401 q 1204 404 1193 401 q 1192 378 1199 392 q 1179 353 1186 365 q 1172 339 1176 347 q 1172 325 1168 331 q 1186 326 1178 318 q 1201 344 1194 335 q 1215 371 1207 357 q 1229 397 1222 385 q 1240 422 1235 410 q 1253 447 1246 435 q 1272 451 1263 444 l 1235 375 l 1221 347 q 1216 330 1218 340 q 1225 325 1214 319 q 1246 343 1236 329 q 1259 371 1251 357 q 1274 397 1267 385 q 1285 422 1279 410 q 1297 447 1290 435 q 1317 451 1307 444 l 1279 375 l 1265 347 q 1263 340 1264 344 q 1260 331 1261 335 q 1261 324 1260 326 q 1269 325 1263 322 q 1286 338 1279 328 q 1297 356 1293 347 l 1303 353 q 1289 332 1296 342 q 1271 317 1282 322 q 1251 315 1261 311 q 1243 329 1242 318 q 1226 317 1235 321 q 1207 315 1217 311 q 1199 331 1197 318 q 1185 318 1192 324 q 1171 313 1179 313 q 1157 321 1158 313 q 1160 338 1156 329 q 1137 318 1151 328 q 1111 315 1122 308 m 1547 538 l 1472 538 l 1472 749 l 1503 749 l 1503 564 l 1547 564 l 1547 538 m 881 538 l 806 538 l 806 749 l 836 749 l 836 564 l 881 564 l 881 538 m 1028 29 q 1045 28 1036 29 q 1061 33 1054 28 q 1076 61 1074 44 q 1079 92 1079 78 q 1076 125 1079 107 q 1063 154 1074 143 q 1046 160 1056 161 q 1028 160 1036 160 l 1028 29 m 938 400 q 957 404 946 399 q 949 390 953 396 q 940 376 946 383 l 940 375 q 960 394 949 385 q 985 404 972 403 q 1001 392 1001 404 q 994 368 1000 379 q 981 348 992 363 q 975 326 971 333 q 984 324 978 321 q 996 334 990 328 q 1006 347 1001 340 q 1013 356 1011 353 l 1018 353 q 1004 333 1011 343 q 986 317 997 324 q 967 314 976 311 q 958 331 957 317 q 967 352 960 342 q 979 372 975 363 q 982 378 981 374 q 984 385 983 382 q 983 392 985 389 q 976 393 982 394 q 949 374 961 390 q 931 346 938 357 l 914 313 l 897 313 l 903 325 q 897 320 900 322 q 892 317 894 318 q 871 315 881 311 q 864 332 861 318 q 870 353 864 343 q 881 374 876 363 q 893 399 889 386 q 914 404 907 399 l 888 351 q 881 338 885 347 q 881 325 876 329 q 890 324 885 321 q 901 334 896 328 q 911 347 907 340 q 917 356 915 353 l 938 400 m 1310 725 q 1297 715 1301 725 q 1292 690 1293 704 q 1291 663 1290 676 q 1292 643 1292 649 q 1291 624 1292 638 q 1292 597 1290 611 q 1297 573 1293 583 q 1310 563 1301 563 q 1322 573 1318 563 q 1328 597 1326 583 q 1328 624 1329 611 q 1328 643 1328 638 q 1328 663 1328 649 q 1328 690 1329 676 q 1322 715 1326 704 q 1310 725 1318 725 m 540 725 q 528 715 532 725 q 522 690 524 704 q 522 663 521 676 q 522 643 522 649 q 522 624 522 638 q 522 597 521 611 q 528 573 524 583 q 540 563 532 563 q 552 573 549 563 q 557 597 556 583 q 558 624 558 611 q 557 643 557 638 q 558 663 557 649 q 557 690 558 676 q 552 715 556 704 q 540 725 549 725 m 1653 749 l 1683 749 q 1682 671 1683 710 q 1678 592 1681 632 l 1658 592 q 1654 670 1656 632 q 1653 749 1653 708 m 211 450 q 185 440 200 453 q 164 421 171 428 q 124 367 142 396 l 182 367 l 200 404 q 206 415 201 408 q 213 430 210 422 q 216 443 215 438 q 211 450 217 449 m 1443 432 q 1434 433 1436 428 q 1433 443 1432 438 q 1410 435 1418 449 q 1400 413 1403 422 l 1419 413 l 1415 404 l 1396 404 l 1335 279 q 1315 276 1329 279 l 1379 404 l 1358 404 l 1363 413 l 1383 413 q 1394 435 1388 424 q 1415 449 1401 446 q 1436 447 1424 451 q 1444 441 1439 446 q 1443 432 1449 436 m 1160 432 q 1150 433 1153 428 q 1149 443 1147 438 q 1126 435 1133 449 q 1115 413 1118 422 l 1135 413 l 1131 404 l 1111 404 l 1050 279 q 1032 276 1043 279 l 1094 404 l 1074 404 l 1079 413 l 1099 413 q 1110 435 1103 424 q 1131 449 1117 446 q 1151 447 1139 451 q 1159 441 1154 446 q 1160 432 1164 436 m 864 43 q 860 15 861 29 q 856 -12 858 1 l 896 -12 q 885 69 892 28 q 875 151 878 110 q 870 97 874 124 q 864 43 867 71 m 122 632 q 135 631 129 632 q 146 636 142 631 q 153 656 153 643 q 154 678 154 668 q 153 700 154 688 q 146 719 153 713 q 135 726 142 726 q 122 725 129 725 l 122 632 m 1451 397 q 1431 385 1440 397 q 1415 358 1421 372 q 1410 331 1410 343 q 1421 319 1410 319 q 1439 332 1429 319 q 1455 359 1449 344 q 1461 385 1461 374 q 1451 397 1461 397 m 1289 -112 q 1281 -133 1289 -126 q 1262 -140 1272 -140 q 1243 -133 1251 -140 q 1235 -112 1235 -126 q 1243 -92 1235 -99 q 1262 -85 1251 -85 q 1281 -92 1272 -85 q 1289 -112 1289 -99 m 781 -112 q 772 -133 781 -126 q 753 -140 764 -140 q 735 -133 743 -140 q 726 -112 726 -126 q 735 -92 726 -99 q 753 -85 743 -85 q 772 -92 764 -85 q 781 -112 781 -99 m 642 393 q 624 386 632 393 q 610 369 617 379 q 599 347 604 358 q 590 328 594 335 q 619 328 606 317 q 640 350 633 339 q 646 360 642 353 q 651 374 650 367 q 651 388 653 382 q 642 393 650 393 m 321 322 q 339 331 331 322 q 353 350 347 339 q 365 373 360 361 q 374 393 369 385 q 346 389 360 400 q 325 367 332 378 q 319 357 324 364 q 313 342 315 350 q 312 328 311 335 q 321 322 313 322 m 313 644 q 324 644 318 644 q 333 646 329 643 q 343 664 342 653 q 344 685 344 675 q 343 705 344 693 q 333 722 342 717 q 324 725 329 725 q 313 725 319 725 l 313 644 m 508 322 q 526 331 518 322 q 541 350 535 339 q 552 373 547 361 q 561 393 557 385 q 533 389 546 400 q 513 367 519 378 q 507 357 511 364 q 501 342 503 350 q 499 328 499 335 q 508 322 500 322 m 749 364 q 743 353 744 357 q 740 344 742 349 q 774 358 756 344 q 793 388 793 371 q 785 397 793 399 q 771 392 778 396 q 758 378 764 386 q 749 364 753 371 m 740 651 l 736 618 l 760 618 q 753 668 757 643 q 749 718 750 693 q 745 686 747 703 q 740 651 743 669 m 1685 556 q 1679 542 1685 547 q 1667 538 1674 538 q 1656 542 1661 538 q 1651 556 1651 547 q 1656 569 1651 564 q 1667 574 1661 574 q 1679 569 1674 574 q 1685 556 1685 564 m 926 428 q 910 421 921 418 q 903 435 900 424 q 910 442 904 440 q 920 443 915 444 q 927 438 925 442 q 926 428 929 433 m 454 428 q 440 421 450 418 q 432 435 429 424 q 438 442 433 440 q 448 443 443 444 q 456 438 453 442 q 454 428 458 433 m 1658 321 q 1642 315 1653 310 q 1638 329 1632 319 q 1653 335 1643 340 q 1658 321 1664 331 m 1686 385 q 1679 378 1683 379 q 1671 378 1675 376 q 1665 384 1667 381 q 1667 393 1664 388 q 1682 399 1672 403 q 1686 385 1692 394 z "},"4":{"ha":1767,"x_min":74,"x_max":1692,"o":"m 497 199 l 556 199 q 567 58 563 128 q 575 -83 572 -12 q 583 24 579 -31 q 593 131 586 78 l 601 199 l 656 199 q 668 83 663 140 q 678 -32 674 26 l 682 -83 q 688 28 686 -26 q 696 138 690 83 q 699 168 699 153 q 701 199 700 183 l 743 199 l 715 -140 l 651 -140 q 638 -6 644 -74 q 629 129 632 61 q 622 28 626 79 q 613 -72 618 -22 l 607 -140 l 542 -140 l 526 50 l 510 -140 l 447 -140 q 433 -6 440 -74 q 424 129 426 61 q 417 28 421 79 q 408 -72 414 -22 l 401 -140 l 338 -140 l 321 54 l 306 -140 l 242 -140 q 228 -7 235 -74 q 219 128 222 60 q 214 27 218 76 q 204 -72 210 -22 l 196 -140 l 133 -140 l 104 199 l 146 199 q 158 58 153 128 q 165 -83 163 -12 q 173 24 169 -31 q 183 131 176 78 l 192 199 l 246 199 q 258 83 253 140 q 268 -32 264 26 l 272 -83 q 278 28 276 -26 q 286 138 281 83 l 293 199 l 350 199 q 362 58 357 128 q 371 -83 367 -12 q 378 24 375 -31 q 388 131 382 78 q 392 164 390 147 q 396 199 393 181 l 451 199 q 463 83 458 140 q 474 -32 468 26 l 476 -83 q 483 28 481 -26 q 492 138 486 83 l 497 199 m 1672 932 l 103 932 l 103 963 l 1672 963 l 1672 932 m 1672 -357 l 103 -357 l 103 -326 l 1672 -326 l 1672 -357 m 1028 -140 l 979 -140 l 979 199 l 1029 199 q 1060 199 1044 199 q 1089 193 1075 200 q 1119 155 1113 182 q 1126 104 1126 128 q 1126 78 1126 93 q 1123 47 1126 63 q 1113 19 1119 32 q 1093 3 1106 7 l 1135 -140 l 1081 -140 l 1051 -6 l 1028 -6 l 1028 -140 m 1365 -65 l 1365 -140 l 1319 -140 l 1319 199 l 1364 199 q 1398 81 1381 139 q 1429 -39 1415 22 q 1423 80 1424 21 q 1422 199 1422 139 l 1467 199 l 1467 -140 l 1421 -140 q 1387 -24 1404 -82 q 1357 92 1369 33 q 1361 13 1360 51 q 1365 -65 1363 -25 m 842 -140 l 796 -140 l 836 199 l 915 199 l 957 -140 l 908 -140 l 899 -60 l 853 -60 l 842 -140 m 1601 72 q 1601 105 1603 88 q 1594 138 1600 122 q 1580 156 1590 149 q 1560 149 1569 163 q 1550 120 1551 138 q 1547 88 1549 103 q 1546 55 1546 71 q 1546 24 1546 39 q 1546 -8 1546 8 q 1549 -40 1546 -25 q 1551 -71 1549 -53 q 1567 -96 1554 -89 q 1589 -94 1581 -104 q 1600 -66 1597 -83 q 1603 -31 1603 -49 q 1604 -7 1604 -14 l 1569 -7 l 1569 32 l 1650 32 l 1650 -139 l 1614 -139 l 1613 -93 q 1602 -124 1610 -108 q 1579 -143 1594 -139 q 1549 -140 1564 -147 q 1524 -122 1533 -133 q 1501 -64 1504 -99 q 1499 -1 1499 -29 q 1497 72 1496 35 q 1508 142 1499 108 q 1518 171 1511 157 q 1539 192 1525 185 q 1569 201 1553 200 q 1601 197 1586 203 q 1628 176 1618 190 q 1642 145 1638 163 q 1647 110 1646 128 q 1649 76 1649 92 l 1601 72 m 311 371 q 328 390 318 382 q 350 401 338 399 q 372 399 361 404 q 396 399 383 394 l 371 351 q 363 338 368 347 q 364 325 358 328 q 379 328 371 319 q 394 346 388 336 q 401 360 397 353 q 410 374 406 367 l 421 399 q 442 404 432 399 l 415 351 q 408 338 413 347 q 410 325 404 329 q 424 327 415 319 q 438 344 432 335 q 451 371 443 357 q 464 397 458 385 q 476 422 471 410 q 489 447 482 435 q 508 451 500 444 l 471 375 q 465 361 468 368 q 458 347 461 354 q 453 330 456 340 q 461 325 450 319 q 474 335 468 328 q 486 350 481 342 q 497 371 490 361 q 514 390 504 382 q 536 401 524 399 q 560 399 549 404 q 583 399 571 394 q 571 376 576 388 q 558 351 565 364 q 551 338 556 347 q 551 325 547 328 q 560 324 556 321 q 570 331 565 326 q 579 342 575 336 q 586 353 583 349 l 588 356 l 632 447 q 650 451 643 447 q 636 419 643 435 q 618 388 629 403 q 641 403 628 397 q 664 394 654 410 q 665 363 672 381 q 647 333 657 344 q 663 336 656 332 q 676 346 669 340 q 689 372 682 358 q 703 397 696 385 l 728 447 q 746 451 738 444 q 728 413 736 432 q 708 375 719 394 q 702 361 706 368 q 694 347 699 354 q 692 340 693 344 q 690 331 690 335 q 692 324 690 326 q 700 325 693 322 q 715 336 707 328 q 726 353 722 344 q 743 383 731 371 q 756 394 747 388 q 776 403 765 400 q 794 403 786 406 q 806 389 803 401 q 801 368 807 378 q 784 352 794 358 q 761 342 774 346 q 740 339 749 339 q 744 326 739 331 q 758 321 750 321 q 792 331 776 321 q 815 356 807 340 l 821 353 q 789 322 810 333 q 746 314 768 310 q 724 339 724 318 q 713 326 718 332 q 700 317 707 319 q 680 315 690 311 q 672 332 669 318 l 672 335 q 667 332 669 332 q 650 328 661 328 l 640 328 q 636 325 638 328 q 632 322 635 322 q 602 315 618 314 q 578 331 586 317 q 554 314 568 318 q 537 318 542 311 q 536 336 532 325 q 517 317 529 326 q 493 317 506 308 q 483 336 483 322 q 464 317 475 324 q 443 315 453 311 q 435 329 433 318 q 419 317 425 319 q 398 315 408 311 q 390 331 388 318 q 379 321 385 325 q 367 314 374 317 q 349 318 354 311 q 350 336 344 325 l 349 336 q 330 317 342 326 q 306 317 318 308 q 297 326 299 319 q 297 339 296 332 q 283 331 290 332 q 265 328 278 328 q 257 326 258 328 q 251 322 256 325 q 235 315 244 318 q 219 314 226 313 q 208 322 213 315 q 207 339 204 328 q 218 369 210 354 q 233 399 226 385 q 251 404 240 399 q 243 383 247 393 q 233 364 239 374 q 228 353 232 360 q 221 340 224 347 q 218 328 218 333 q 224 321 218 322 q 247 332 236 318 q 263 353 258 346 q 274 377 269 364 q 278 403 278 390 q 292 396 290 406 q 290 378 293 386 q 265 335 285 356 q 286 339 276 332 q 301 356 296 346 l 311 371 m 1310 536 q 1285 543 1294 536 q 1272 561 1276 550 q 1266 585 1268 572 q 1264 610 1264 599 q 1261 665 1261 636 q 1269 719 1261 693 q 1281 740 1274 731 q 1301 750 1289 749 q 1344 732 1329 757 q 1357 680 1357 708 q 1357 626 1357 651 q 1356 598 1357 614 q 1351 569 1356 582 q 1336 546 1346 556 q 1310 536 1326 536 m 540 536 q 516 543 525 536 q 502 561 507 550 q 496 585 497 572 q 493 610 494 599 q 492 665 492 636 q 500 719 492 693 q 511 740 504 731 q 532 750 518 749 q 575 732 561 757 q 587 680 586 708 q 588 626 588 651 q 586 598 588 614 q 580 569 585 582 q 566 546 575 556 q 540 536 557 536 m 1204 -140 l 1156 -140 l 1156 199 l 1204 199 l 1204 -140 m 313 538 l 283 538 l 283 749 l 315 749 q 335 749 325 749 q 353 746 344 749 q 371 723 367 739 q 375 694 375 707 q 374 656 376 679 q 354 626 371 633 l 379 538 l 346 538 l 328 622 q 320 623 324 622 q 313 624 317 624 l 313 538 m 1397 585 l 1397 538 l 1369 538 l 1369 749 l 1396 749 q 1418 676 1407 713 q 1438 601 1429 639 q 1434 675 1435 638 q 1433 749 1433 713 l 1461 749 l 1461 538 l 1432 538 q 1410 610 1421 574 q 1392 683 1400 646 q 1395 634 1394 658 q 1397 585 1396 610 m 122 538 l 92 538 l 92 749 l 139 749 q 183 713 175 749 q 188 668 189 693 q 176 624 188 643 q 152 608 167 610 q 122 607 138 607 l 122 538 m 628 585 l 628 538 l 600 538 l 600 749 l 626 749 q 648 676 638 713 q 667 601 658 639 q 663 675 664 638 q 663 749 663 713 l 690 749 l 690 538 l 661 538 q 641 610 651 574 q 622 683 631 646 q 625 634 625 658 q 628 585 625 610 m 728 538 l 699 538 l 724 749 l 772 749 l 799 538 l 769 538 l 763 589 l 733 589 l 728 538 m 974 536 q 942 548 953 536 q 928 577 932 560 q 926 614 925 594 q 926 650 926 633 l 926 749 l 957 749 l 957 601 q 956 588 957 594 q 958 574 956 581 q 968 563 961 567 q 982 567 975 560 q 990 585 989 574 q 990 606 990 597 q 991 639 992 622 q 990 672 990 656 l 990 749 l 1021 749 l 1021 650 q 1022 614 1021 633 q 1019 577 1022 594 q 1006 548 1015 560 q 974 536 996 536 m 1514 400 q 1532 404 1521 399 q 1524 390 1528 396 q 1515 376 1521 383 l 1515 375 q 1535 394 1524 385 q 1560 404 1547 403 q 1576 392 1576 404 q 1571 368 1575 379 q 1557 348 1567 363 q 1551 326 1547 333 q 1559 324 1554 322 q 1569 331 1564 325 q 1578 342 1574 336 q 1586 351 1583 347 l 1613 404 l 1601 404 l 1606 413 l 1617 413 l 1628 436 q 1647 440 1639 436 l 1633 413 l 1654 413 l 1649 404 l 1629 404 l 1604 353 q 1597 339 1601 347 q 1596 325 1593 331 q 1606 324 1600 321 q 1617 334 1611 328 q 1628 347 1624 340 q 1633 356 1632 353 l 1639 353 q 1622 329 1632 342 q 1597 314 1613 317 q 1581 317 1585 311 q 1579 331 1576 322 q 1571 323 1575 326 q 1563 317 1567 319 q 1542 314 1553 311 q 1533 331 1532 317 q 1542 352 1535 342 q 1554 372 1550 363 q 1559 385 1556 376 q 1553 393 1563 394 q 1525 374 1538 390 q 1506 346 1513 357 q 1497 330 1500 339 q 1489 313 1493 321 l 1472 313 l 1482 335 q 1481 333 1481 333 q 1467 328 1475 331 l 1454 328 q 1440 317 1447 319 q 1428 314 1432 314 q 1403 318 1414 308 q 1394 343 1392 328 q 1401 371 1396 358 q 1421 394 1408 383 q 1450 404 1433 404 q 1470 396 1464 404 q 1476 376 1476 388 q 1472 353 1476 365 q 1461 333 1467 342 q 1489 349 1479 333 l 1514 400 m 422 636 q 386 690 390 657 q 389 722 383 706 q 410 746 394 738 q 440 751 422 753 q 468 739 457 750 q 481 712 481 726 q 481 682 481 697 q 465 683 472 682 q 450 683 457 683 q 451 701 450 692 q 444 717 451 710 q 424 718 432 728 q 415 697 417 708 q 426 672 415 682 q 447 654 436 663 q 467 635 458 646 q 478 613 475 625 q 478 583 481 597 q 469 557 476 568 q 449 540 461 546 q 421 536 438 533 q 390 563 393 542 q 388 607 386 585 l 415 607 q 415 593 415 600 q 415 579 414 586 q 426 565 418 571 q 442 567 433 560 q 450 584 449 572 q 449 604 451 596 q 439 623 446 615 q 422 636 432 631 m 1071 636 q 1033 690 1039 654 q 1037 722 1032 706 q 1057 746 1042 738 q 1088 751 1071 753 q 1115 739 1104 750 q 1127 712 1128 726 q 1126 682 1126 697 q 1113 683 1119 682 q 1099 683 1106 683 q 1099 701 1099 692 q 1093 717 1100 710 q 1073 718 1081 728 q 1064 697 1065 708 q 1074 672 1064 682 q 1094 654 1083 663 q 1126 613 1118 638 q 1127 583 1129 597 q 1117 557 1125 568 q 1097 540 1110 546 q 1068 536 1085 533 q 1037 563 1040 542 q 1033 607 1033 585 l 1064 607 q 1063 593 1064 600 q 1064 579 1061 586 q 1074 565 1067 571 q 1089 567 1081 560 q 1099 584 1097 572 q 1097 604 1100 596 q 1088 623 1094 615 q 1071 636 1081 631 m 275 538 l 199 538 l 199 749 l 275 749 l 275 721 l 229 721 l 229 661 l 267 661 l 267 631 l 229 631 l 229 567 l 275 567 l 275 538 m 1215 538 l 1140 538 l 1140 749 l 1215 749 l 1215 721 l 1171 721 l 1171 661 l 1208 661 l 1208 631 l 1171 631 l 1171 567 l 1215 567 l 1215 538 m 178 360 l 119 357 q 107 333 113 346 q 100 307 101 321 q 87 310 89 304 q 87 326 85 317 q 93 345 89 336 q 100 357 97 354 l 81 356 l 74 367 l 106 367 q 142 414 121 390 q 190 451 163 438 q 213 458 199 457 q 229 444 226 460 q 228 430 232 438 q 222 415 225 422 q 209 388 215 401 q 196 363 203 375 q 183 338 192 353 q 179 313 175 324 q 165 315 168 310 q 165 329 163 321 q 171 347 167 338 q 178 360 175 356 m 1615 749 l 1644 749 q 1631 690 1638 719 q 1617 631 1624 660 q 1612 585 1610 608 q 1614 538 1614 561 l 1582 538 q 1583 585 1582 561 q 1578 631 1583 608 q 1564 690 1571 660 q 1550 749 1557 719 l 1579 749 q 1590 695 1585 722 q 1597 640 1594 668 q 1604 694 1599 668 q 1615 749 1610 721 m 1111 315 q 1103 331 1101 321 q 1110 350 1106 342 l 1133 399 q 1153 404 1142 399 l 1135 367 q 1124 347 1132 361 q 1121 326 1115 332 q 1141 330 1129 319 q 1157 346 1153 340 q 1164 356 1161 351 q 1171 368 1167 361 l 1188 401 q 1204 404 1193 401 q 1192 378 1199 392 q 1179 353 1186 365 q 1172 339 1176 347 q 1172 325 1168 331 q 1186 326 1178 318 q 1201 344 1194 335 q 1215 371 1207 357 q 1229 397 1222 385 q 1240 422 1235 410 q 1253 447 1246 435 q 1272 451 1263 444 l 1235 375 l 1221 347 q 1216 330 1218 340 q 1225 325 1214 319 q 1246 343 1236 329 q 1259 371 1251 357 q 1274 397 1267 385 q 1285 422 1279 410 q 1297 447 1290 435 q 1317 451 1307 444 l 1279 375 l 1265 347 q 1263 340 1264 344 q 1260 331 1261 335 q 1261 324 1260 326 q 1269 325 1263 322 q 1286 338 1279 328 q 1297 356 1293 347 l 1303 353 q 1289 332 1296 342 q 1271 317 1282 322 q 1251 315 1261 311 q 1243 329 1242 318 q 1226 317 1235 321 q 1207 315 1217 311 q 1199 331 1197 318 q 1185 318 1192 324 q 1171 313 1179 313 q 1157 321 1158 313 q 1160 338 1156 329 q 1137 318 1151 328 q 1111 315 1122 308 m 1547 538 l 1472 538 l 1472 749 l 1503 749 l 1503 564 l 1547 564 l 1547 538 m 881 538 l 806 538 l 806 749 l 836 749 l 836 564 l 881 564 l 881 538 m 1028 29 q 1045 28 1036 29 q 1061 33 1054 28 q 1076 61 1074 44 q 1079 92 1079 78 q 1076 125 1079 107 q 1063 154 1074 143 q 1046 160 1056 161 q 1028 160 1036 160 l 1028 29 m 938 400 q 957 404 946 399 q 949 390 953 396 q 940 376 946 383 l 940 375 q 960 394 949 385 q 985 404 972 403 q 1001 392 1001 404 q 994 368 1000 379 q 981 348 992 363 q 975 326 971 333 q 984 324 978 321 q 996 334 990 328 q 1006 347 1001 340 q 1013 356 1011 353 l 1018 353 q 1004 333 1011 343 q 986 317 997 324 q 967 314 976 311 q 958 331 957 317 q 967 352 960 342 q 979 372 975 363 q 982 378 981 374 q 984 385 983 382 q 983 392 985 389 q 976 393 982 394 q 949 374 961 390 q 931 346 938 357 l 914 313 l 897 313 l 903 325 q 897 320 900 322 q 892 317 894 318 q 871 315 881 311 q 864 332 861 318 q 870 353 864 343 q 881 374 876 363 q 893 399 889 386 q 914 404 907 399 l 888 351 q 881 338 885 347 q 881 325 876 329 q 890 324 885 321 q 901 334 896 328 q 911 347 907 340 q 917 356 915 353 l 938 400 m 1310 725 q 1297 715 1301 725 q 1292 690 1293 704 q 1291 663 1290 676 q 1292 643 1292 649 q 1291 624 1292 638 q 1292 597 1290 611 q 1297 573 1293 583 q 1310 563 1301 563 q 1322 573 1318 563 q 1328 597 1326 583 q 1328 624 1329 611 q 1328 643 1328 638 q 1328 663 1328 649 q 1328 690 1329 676 q 1322 715 1326 704 q 1310 725 1318 725 m 540 725 q 528 715 532 725 q 522 690 524 704 q 522 663 521 676 q 522 643 522 649 q 522 624 522 638 q 522 597 521 611 q 528 573 524 583 q 540 563 532 563 q 552 573 549 563 q 557 597 556 583 q 558 624 558 611 q 557 643 557 638 q 558 663 557 649 q 557 690 558 676 q 552 715 556 704 q 540 725 549 725 m 1653 749 l 1683 749 q 1682 671 1683 710 q 1678 592 1681 632 l 1658 592 q 1654 670 1656 632 q 1653 749 1653 708 m 211 450 q 185 440 200 453 q 164 421 171 428 q 124 367 142 396 l 182 367 l 200 404 q 206 415 201 408 q 213 430 210 422 q 216 443 215 438 q 211 450 217 449 m 1443 432 q 1434 433 1436 428 q 1433 443 1432 438 q 1410 435 1418 449 q 1400 413 1403 422 l 1419 413 l 1415 404 l 1396 404 l 1335 279 q 1315 276 1329 279 l 1379 404 l 1358 404 l 1363 413 l 1383 413 q 1394 435 1388 424 q 1415 449 1401 446 q 1436 447 1424 451 q 1444 441 1439 446 q 1443 432 1449 436 m 1160 432 q 1150 433 1153 428 q 1149 443 1147 438 q 1126 435 1133 449 q 1115 413 1118 422 l 1135 413 l 1131 404 l 1111 404 l 1050 279 q 1032 276 1043 279 l 1094 404 l 1074 404 l 1079 413 l 1099 413 q 1110 435 1103 424 q 1131 449 1117 446 q 1151 447 1139 451 q 1159 441 1154 446 q 1160 432 1164 436 m 864 43 q 860 15 861 29 q 856 -12 858 1 l 896 -12 q 885 69 892 28 q 875 151 878 110 q 870 97 874 124 q 864 43 867 71 m 122 632 q 135 631 129 632 q 146 636 142 631 q 153 656 153 643 q 154 678 154 668 q 153 700 154 688 q 146 719 153 713 q 135 726 142 726 q 122 725 129 725 l 122 632 m 1451 397 q 1431 385 1440 397 q 1415 358 1421 372 q 1410 331 1410 343 q 1421 319 1410 319 q 1439 332 1429 319 q 1455 359 1449 344 q 1461 385 1461 374 q 1451 397 1461 397 m 1289 -112 q 1281 -133 1289 -126 q 1262 -140 1272 -140 q 1243 -133 1251 -140 q 1235 -112 1235 -126 q 1243 -92 1235 -99 q 1262 -85 1251 -85 q 1281 -92 1272 -85 q 1289 -112 1289 -99 m 781 -112 q 772 -133 781 -126 q 753 -140 764 -140 q 735 -133 743 -140 q 726 -112 726 -126 q 735 -92 726 -99 q 753 -85 743 -85 q 772 -92 764 -85 q 781 -112 781 -99 m 642 393 q 624 386 632 393 q 610 369 617 379 q 599 347 604 358 q 590 328 594 335 q 619 328 606 317 q 640 350 633 339 q 646 360 642 353 q 651 374 650 367 q 651 388 653 382 q 642 393 650 393 m 321 322 q 339 331 331 322 q 353 350 347 339 q 365 373 360 361 q 374 393 369 385 q 346 389 360 400 q 325 367 332 378 q 319 357 324 364 q 313 342 315 350 q 312 328 311 335 q 321 322 313 322 m 313 644 q 324 644 318 644 q 333 646 329 643 q 343 664 342 653 q 344 685 344 675 q 343 705 344 693 q 333 722 342 717 q 324 725 329 725 q 313 725 319 725 l 313 644 m 508 322 q 526 331 518 322 q 541 350 535 339 q 552 373 547 361 q 561 393 557 385 q 533 389 546 400 q 513 367 519 378 q 507 357 511 364 q 501 342 503 350 q 499 328 499 335 q 508 322 500 322 m 749 364 q 743 353 744 357 q 740 344 742 349 q 774 358 756 344 q 793 388 793 371 q 785 397 793 399 q 771 392 778 396 q 758 378 764 386 q 749 364 753 371 m 740 651 l 736 618 l 760 618 q 753 668 757 643 q 749 718 750 693 q 745 686 747 703 q 740 651 743 669 m 1685 556 q 1679 542 1685 547 q 1667 538 1674 538 q 1656 542 1661 538 q 1651 556 1651 547 q 1656 569 1651 564 q 1667 574 1661 574 q 1679 569 1674 574 q 1685 556 1685 564 m 926 428 q 910 421 921 418 q 903 435 900 424 q 910 442 904 440 q 920 443 915 444 q 927 438 925 442 q 926 428 929 433 m 454 428 q 440 421 450 418 q 432 435 429 424 q 438 442 433 440 q 448 443 443 444 q 456 438 453 442 q 454 428 458 433 m 1658 321 q 1642 315 1653 310 q 1638 329 1632 319 q 1653 335 1643 340 q 1658 321 1664 331 m 1686 385 q 1679 378 1683 379 q 1671 378 1675 376 q 1665 384 1667 381 q 1667 393 1664 388 q 1682 399 1672 403 q 1686 385 1692 394 z "},"5":{"ha":1767,"x_min":74,"x_max":1692,"o":"m 497 199 l 556 199 q 567 58 563 128 q 575 -83 572 -12 q 583 24 579 -31 q 593 131 586 78 l 601 199 l 656 199 q 668 83 663 140 q 678 -32 674 26 l 682 -83 q 688 28 686 -26 q 696 138 690 83 q 699 168 699 153 q 701 199 700 183 l 743 199 l 715 -140 l 651 -140 q 638 -6 644 -74 q 629 129 632 61 q 622 28 626 79 q 613 -72 618 -22 l 607 -140 l 542 -140 l 526 50 l 510 -140 l 447 -140 q 433 -6 440 -74 q 424 129 426 61 q 417 28 421 79 q 408 -72 414 -22 l 401 -140 l 338 -140 l 321 54 l 306 -140 l 242 -140 q 228 -7 235 -74 q 219 128 222 60 q 214 27 218 76 q 204 -72 210 -22 l 196 -140 l 133 -140 l 104 199 l 146 199 q 158 58 153 128 q 165 -83 163 -12 q 173 24 169 -31 q 183 131 176 78 l 192 199 l 246 199 q 258 83 253 140 q 268 -32 264 26 l 272 -83 q 278 28 276 -26 q 286 138 281 83 l 293 199 l 350 199 q 362 58 357 128 q 371 -83 367 -12 q 378 24 375 -31 q 388 131 382 78 q 392 164 390 147 q 396 199 393 181 l 451 199 q 463 83 458 140 q 474 -32 468 26 l 476 -83 q 483 28 481 -26 q 492 138 486 83 l 497 199 m 1672 932 l 103 932 l 103 963 l 1672 963 l 1672 932 m 1672 -357 l 103 -357 l 103 -326 l 1672 -326 l 1672 -357 m 1028 -140 l 979 -140 l 979 199 l 1029 199 q 1060 199 1044 199 q 1089 193 1075 200 q 1119 155 1113 182 q 1126 104 1126 128 q 1126 78 1126 93 q 1123 47 1126 63 q 1113 19 1119 32 q 1093 3 1106 7 l 1135 -140 l 1081 -140 l 1051 -6 l 1028 -6 l 1028 -140 m 1365 -65 l 1365 -140 l 1319 -140 l 1319 199 l 1364 199 q 1398 81 1381 139 q 1429 -39 1415 22 q 1423 80 1424 21 q 1422 199 1422 139 l 1467 199 l 1467 -140 l 1421 -140 q 1387 -24 1404 -82 q 1357 92 1369 33 q 1361 13 1360 51 q 1365 -65 1363 -25 m 842 -140 l 796 -140 l 836 199 l 915 199 l 957 -140 l 908 -140 l 899 -60 l 853 -60 l 842 -140 m 1601 72 q 1601 105 1603 88 q 1594 138 1600 122 q 1580 156 1590 149 q 1560 149 1569 163 q 1550 120 1551 138 q 1547 88 1549 103 q 1546 55 1546 71 q 1546 24 1546 39 q 1546 -8 1546 8 q 1549 -40 1546 -25 q 1551 -71 1549 -53 q 1567 -96 1554 -89 q 1589 -94 1581 -104 q 1600 -66 1597 -83 q 1603 -31 1603 -49 q 1604 -7 1604 -14 l 1569 -7 l 1569 32 l 1650 32 l 1650 -139 l 1614 -139 l 1613 -93 q 1602 -124 1610 -108 q 1579 -143 1594 -139 q 1549 -140 1564 -147 q 1524 -122 1533 -133 q 1501 -64 1504 -99 q 1499 -1 1499 -29 q 1497 72 1496 35 q 1508 142 1499 108 q 1518 171 1511 157 q 1539 192 1525 185 q 1569 201 1553 200 q 1601 197 1586 203 q 1628 176 1618 190 q 1642 145 1638 163 q 1647 110 1646 128 q 1649 76 1649 92 l 1601 72 m 311 371 q 328 390 318 382 q 350 401 338 399 q 372 399 361 404 q 396 399 383 394 l 371 351 q 363 338 368 347 q 364 325 358 328 q 379 328 371 319 q 394 346 388 336 q 401 360 397 353 q 410 374 406 367 l 421 399 q 442 404 432 399 l 415 351 q 408 338 413 347 q 410 325 404 329 q 424 327 415 319 q 438 344 432 335 q 451 371 443 357 q 464 397 458 385 q 476 422 471 410 q 489 447 482 435 q 508 451 500 444 l 471 375 q 465 361 468 368 q 458 347 461 354 q 453 330 456 340 q 461 325 450 319 q 474 335 468 328 q 486 350 481 342 q 497 371 490 361 q 514 390 504 382 q 536 401 524 399 q 560 399 549 404 q 583 399 571 394 q 571 376 576 388 q 558 351 565 364 q 551 338 556 347 q 551 325 547 328 q 560 324 556 321 q 570 331 565 326 q 579 342 575 336 q 586 353 583 349 l 588 356 l 632 447 q 650 451 643 447 q 636 419 643 435 q 618 388 629 403 q 641 403 628 397 q 664 394 654 410 q 665 363 672 381 q 647 333 657 344 q 663 336 656 332 q 676 346 669 340 q 689 372 682 358 q 703 397 696 385 l 728 447 q 746 451 738 444 q 728 413 736 432 q 708 375 719 394 q 702 361 706 368 q 694 347 699 354 q 692 340 693 344 q 690 331 690 335 q 692 324 690 326 q 700 325 693 322 q 715 336 707 328 q 726 353 722 344 q 743 383 731 371 q 756 394 747 388 q 776 403 765 400 q 794 403 786 406 q 806 389 803 401 q 801 368 807 378 q 784 352 794 358 q 761 342 774 346 q 740 339 749 339 q 744 326 739 331 q 758 321 750 321 q 792 331 776 321 q 815 356 807 340 l 821 353 q 789 322 810 333 q 746 314 768 310 q 724 339 724 318 q 713 326 718 332 q 700 317 707 319 q 680 315 690 311 q 672 332 669 318 l 672 335 q 667 332 669 332 q 650 328 661 328 l 640 328 q 636 325 638 328 q 632 322 635 322 q 602 315 618 314 q 578 331 586 317 q 554 314 568 318 q 537 318 542 311 q 536 336 532 325 q 517 317 529 326 q 493 317 506 308 q 483 336 483 322 q 464 317 475 324 q 443 315 453 311 q 435 329 433 318 q 419 317 425 319 q 398 315 408 311 q 390 331 388 318 q 379 321 385 325 q 367 314 374 317 q 349 318 354 311 q 350 336 344 325 l 349 336 q 330 317 342 326 q 306 317 318 308 q 297 326 299 319 q 297 339 296 332 q 283 331 290 332 q 265 328 278 328 q 257 326 258 328 q 251 322 256 325 q 235 315 244 318 q 219 314 226 313 q 208 322 213 315 q 207 339 204 328 q 218 369 210 354 q 233 399 226 385 q 251 404 240 399 q 243 383 247 393 q 233 364 239 374 q 228 353 232 360 q 221 340 224 347 q 218 328 218 333 q 224 321 218 322 q 247 332 236 318 q 263 353 258 346 q 274 377 269 364 q 278 403 278 390 q 292 396 290 406 q 290 378 293 386 q 265 335 285 356 q 286 339 276 332 q 301 356 296 346 l 311 371 m 1310 536 q 1285 543 1294 536 q 1272 561 1276 550 q 1266 585 1268 572 q 1264 610 1264 599 q 1261 665 1261 636 q 1269 719 1261 693 q 1281 740 1274 731 q 1301 750 1289 749 q 1344 732 1329 757 q 1357 680 1357 708 q 1357 626 1357 651 q 1356 598 1357 614 q 1351 569 1356 582 q 1336 546 1346 556 q 1310 536 1326 536 m 540 536 q 516 543 525 536 q 502 561 507 550 q 496 585 497 572 q 493 610 494 599 q 492 665 492 636 q 500 719 492 693 q 511 740 504 731 q 532 750 518 749 q 575 732 561 757 q 587 680 586 708 q 588 626 588 651 q 586 598 588 614 q 580 569 585 582 q 566 546 575 556 q 540 536 557 536 m 1204 -140 l 1156 -140 l 1156 199 l 1204 199 l 1204 -140 m 313 538 l 283 538 l 283 749 l 315 749 q 335 749 325 749 q 353 746 344 749 q 371 723 367 739 q 375 694 375 707 q 374 656 376 679 q 354 626 371 633 l 379 538 l 346 538 l 328 622 q 320 623 324 622 q 313 624 317 624 l 313 538 m 1397 585 l 1397 538 l 1369 538 l 1369 749 l 1396 749 q 1418 676 1407 713 q 1438 601 1429 639 q 1434 675 1435 638 q 1433 749 1433 713 l 1461 749 l 1461 538 l 1432 538 q 1410 610 1421 574 q 1392 683 1400 646 q 1395 634 1394 658 q 1397 585 1396 610 m 122 538 l 92 538 l 92 749 l 139 749 q 183 713 175 749 q 188 668 189 693 q 176 624 188 643 q 152 608 167 610 q 122 607 138 607 l 122 538 m 628 585 l 628 538 l 600 538 l 600 749 l 626 749 q 648 676 638 713 q 667 601 658 639 q 663 675 664 638 q 663 749 663 713 l 690 749 l 690 538 l 661 538 q 641 610 651 574 q 622 683 631 646 q 625 634 625 658 q 628 585 625 610 m 728 538 l 699 538 l 724 749 l 772 749 l 799 538 l 769 538 l 763 589 l 733 589 l 728 538 m 974 536 q 942 548 953 536 q 928 577 932 560 q 926 614 925 594 q 926 650 926 633 l 926 749 l 957 749 l 957 601 q 956 588 957 594 q 958 574 956 581 q 968 563 961 567 q 982 567 975 560 q 990 585 989 574 q 990 606 990 597 q 991 639 992 622 q 990 672 990 656 l 990 749 l 1021 749 l 1021 650 q 1022 614 1021 633 q 1019 577 1022 594 q 1006 548 1015 560 q 974 536 996 536 m 1514 400 q 1532 404 1521 399 q 1524 390 1528 396 q 1515 376 1521 383 l 1515 375 q 1535 394 1524 385 q 1560 404 1547 403 q 1576 392 1576 404 q 1571 368 1575 379 q 1557 348 1567 363 q 1551 326 1547 333 q 1559 324 1554 322 q 1569 331 1564 325 q 1578 342 1574 336 q 1586 351 1583 347 l 1613 404 l 1601 404 l 1606 413 l 1617 413 l 1628 436 q 1647 440 1639 436 l 1633 413 l 1654 413 l 1649 404 l 1629 404 l 1604 353 q 1597 339 1601 347 q 1596 325 1593 331 q 1606 324 1600 321 q 1617 334 1611 328 q 1628 347 1624 340 q 1633 356 1632 353 l 1639 353 q 1622 329 1632 342 q 1597 314 1613 317 q 1581 317 1585 311 q 1579 331 1576 322 q 1571 323 1575 326 q 1563 317 1567 319 q 1542 314 1553 311 q 1533 331 1532 317 q 1542 352 1535 342 q 1554 372 1550 363 q 1559 385 1556 376 q 1553 393 1563 394 q 1525 374 1538 390 q 1506 346 1513 357 q 1497 330 1500 339 q 1489 313 1493 321 l 1472 313 l 1482 335 q 1481 333 1481 333 q 1467 328 1475 331 l 1454 328 q 1440 317 1447 319 q 1428 314 1432 314 q 1403 318 1414 308 q 1394 343 1392 328 q 1401 371 1396 358 q 1421 394 1408 383 q 1450 404 1433 404 q 1470 396 1464 404 q 1476 376 1476 388 q 1472 353 1476 365 q 1461 333 1467 342 q 1489 349 1479 333 l 1514 400 m 422 636 q 386 690 390 657 q 389 722 383 706 q 410 746 394 738 q 440 751 422 753 q 468 739 457 750 q 481 712 481 726 q 481 682 481 697 q 465 683 472 682 q 450 683 457 683 q 451 701 450 692 q 444 717 451 710 q 424 718 432 728 q 415 697 417 708 q 426 672 415 682 q 447 654 436 663 q 467 635 458 646 q 478 613 475 625 q 478 583 481 597 q 469 557 476 568 q 449 540 461 546 q 421 536 438 533 q 390 563 393 542 q 388 607 386 585 l 415 607 q 415 593 415 600 q 415 579 414 586 q 426 565 418 571 q 442 567 433 560 q 450 584 449 572 q 449 604 451 596 q 439 623 446 615 q 422 636 432 631 m 1071 636 q 1033 690 1039 654 q 1037 722 1032 706 q 1057 746 1042 738 q 1088 751 1071 753 q 1115 739 1104 750 q 1127 712 1128 726 q 1126 682 1126 697 q 1113 683 1119 682 q 1099 683 1106 683 q 1099 701 1099 692 q 1093 717 1100 710 q 1073 718 1081 728 q 1064 697 1065 708 q 1074 672 1064 682 q 1094 654 1083 663 q 1126 613 1118 638 q 1127 583 1129 597 q 1117 557 1125 568 q 1097 540 1110 546 q 1068 536 1085 533 q 1037 563 1040 542 q 1033 607 1033 585 l 1064 607 q 1063 593 1064 600 q 1064 579 1061 586 q 1074 565 1067 571 q 1089 567 1081 560 q 1099 584 1097 572 q 1097 604 1100 596 q 1088 623 1094 615 q 1071 636 1081 631 m 275 538 l 199 538 l 199 749 l 275 749 l 275 721 l 229 721 l 229 661 l 267 661 l 267 631 l 229 631 l 229 567 l 275 567 l 275 538 m 1215 538 l 1140 538 l 1140 749 l 1215 749 l 1215 721 l 1171 721 l 1171 661 l 1208 661 l 1208 631 l 1171 631 l 1171 567 l 1215 567 l 1215 538 m 178 360 l 119 357 q 107 333 113 346 q 100 307 101 321 q 87 310 89 304 q 87 326 85 317 q 93 345 89 336 q 100 357 97 354 l 81 356 l 74 367 l 106 367 q 142 414 121 390 q 190 451 163 438 q 213 458 199 457 q 229 444 226 460 q 228 430 232 438 q 222 415 225 422 q 209 388 215 401 q 196 363 203 375 q 183 338 192 353 q 179 313 175 324 q 165 315 168 310 q 165 329 163 321 q 171 347 167 338 q 178 360 175 356 m 1615 749 l 1644 749 q 1631 690 1638 719 q 1617 631 1624 660 q 1612 585 1610 608 q 1614 538 1614 561 l 1582 538 q 1583 585 1582 561 q 1578 631 1583 608 q 1564 690 1571 660 q 1550 749 1557 719 l 1579 749 q 1590 695 1585 722 q 1597 640 1594 668 q 1604 694 1599 668 q 1615 749 1610 721 m 1111 315 q 1103 331 1101 321 q 1110 350 1106 342 l 1133 399 q 1153 404 1142 399 l 1135 367 q 1124 347 1132 361 q 1121 326 1115 332 q 1141 330 1129 319 q 1157 346 1153 340 q 1164 356 1161 351 q 1171 368 1167 361 l 1188 401 q 1204 404 1193 401 q 1192 378 1199 392 q 1179 353 1186 365 q 1172 339 1176 347 q 1172 325 1168 331 q 1186 326 1178 318 q 1201 344 1194 335 q 1215 371 1207 357 q 1229 397 1222 385 q 1240 422 1235 410 q 1253 447 1246 435 q 1272 451 1263 444 l 1235 375 l 1221 347 q 1216 330 1218 340 q 1225 325 1214 319 q 1246 343 1236 329 q 1259 371 1251 357 q 1274 397 1267 385 q 1285 422 1279 410 q 1297 447 1290 435 q 1317 451 1307 444 l 1279 375 l 1265 347 q 1263 340 1264 344 q 1260 331 1261 335 q 1261 324 1260 326 q 1269 325 1263 322 q 1286 338 1279 328 q 1297 356 1293 347 l 1303 353 q 1289 332 1296 342 q 1271 317 1282 322 q 1251 315 1261 311 q 1243 329 1242 318 q 1226 317 1235 321 q 1207 315 1217 311 q 1199 331 1197 318 q 1185 318 1192 324 q 1171 313 1179 313 q 1157 321 1158 313 q 1160 338 1156 329 q 1137 318 1151 328 q 1111 315 1122 308 m 1547 538 l 1472 538 l 1472 749 l 1503 749 l 1503 564 l 1547 564 l 1547 538 m 881 538 l 806 538 l 806 749 l 836 749 l 836 564 l 881 564 l 881 538 m 1028 29 q 1045 28 1036 29 q 1061 33 1054 28 q 1076 61 1074 44 q 1079 92 1079 78 q 1076 125 1079 107 q 1063 154 1074 143 q 1046 160 1056 161 q 1028 160 1036 160 l 1028 29 m 938 400 q 957 404 946 399 q 949 390 953 396 q 940 376 946 383 l 940 375 q 960 394 949 385 q 985 404 972 403 q 1001 392 1001 404 q 994 368 1000 379 q 981 348 992 363 q 975 326 971 333 q 984 324 978 321 q 996 334 990 328 q 1006 347 1001 340 q 1013 356 1011 353 l 1018 353 q 1004 333 1011 343 q 986 317 997 324 q 967 314 976 311 q 958 331 957 317 q 967 352 960 342 q 979 372 975 363 q 982 378 981 374 q 984 385 983 382 q 983 392 985 389 q 976 393 982 394 q 949 374 961 390 q 931 346 938 357 l 914 313 l 897 313 l 903 325 q 897 320 900 322 q 892 317 894 318 q 871 315 881 311 q 864 332 861 318 q 870 353 864 343 q 881 374 876 363 q 893 399 889 386 q 914 404 907 399 l 888 351 q 881 338 885 347 q 881 325 876 329 q 890 324 885 321 q 901 334 896 328 q 911 347 907 340 q 917 356 915 353 l 938 400 m 1310 725 q 1297 715 1301 725 q 1292 690 1293 704 q 1291 663 1290 676 q 1292 643 1292 649 q 1291 624 1292 638 q 1292 597 1290 611 q 1297 573 1293 583 q 1310 563 1301 563 q 1322 573 1318 563 q 1328 597 1326 583 q 1328 624 1329 611 q 1328 643 1328 638 q 1328 663 1328 649 q 1328 690 1329 676 q 1322 715 1326 704 q 1310 725 1318 725 m 540 725 q 528 715 532 725 q 522 690 524 704 q 522 663 521 676 q 522 643 522 649 q 522 624 522 638 q 522 597 521 611 q 528 573 524 583 q 540 563 532 563 q 552 573 549 563 q 557 597 556 583 q 558 624 558 611 q 557 643 557 638 q 558 663 557 649 q 557 690 558 676 q 552 715 556 704 q 540 725 549 725 m 1653 749 l 1683 749 q 1682 671 1683 710 q 1678 592 1681 632 l 1658 592 q 1654 670 1656 632 q 1653 749 1653 708 m 211 450 q 185 440 200 453 q 164 421 171 428 q 124 367 142 396 l 182 367 l 200 404 q 206 415 201 408 q 213 430 210 422 q 216 443 215 438 q 211 450 217 449 m 1443 432 q 1434 433 1436 428 q 1433 443 1432 438 q 1410 435 1418 449 q 1400 413 1403 422 l 1419 413 l 1415 404 l 1396 404 l 1335 279 q 1315 276 1329 279 l 1379 404 l 1358 404 l 1363 413 l 1383 413 q 1394 435 1388 424 q 1415 449 1401 446 q 1436 447 1424 451 q 1444 441 1439 446 q 1443 432 1449 436 m 1160 432 q 1150 433 1153 428 q 1149 443 1147 438 q 1126 435 1133 449 q 1115 413 1118 422 l 1135 413 l 1131 404 l 1111 404 l 1050 279 q 1032 276 1043 279 l 1094 404 l 1074 404 l 1079 413 l 1099 413 q 1110 435 1103 424 q 1131 449 1117 446 q 1151 447 1139 451 q 1159 441 1154 446 q 1160 432 1164 436 m 864 43 q 860 15 861 29 q 856 -12 858 1 l 896 -12 q 885 69 892 28 q 875 151 878 110 q 870 97 874 124 q 864 43 867 71 m 122 632 q 135 631 129 632 q 146 636 142 631 q 153 656 153 643 q 154 678 154 668 q 153 700 154 688 q 146 719 153 713 q 135 726 142 726 q 122 725 129 725 l 122 632 m 1451 397 q 1431 385 1440 397 q 1415 358 1421 372 q 1410 331 1410 343 q 1421 319 1410 319 q 1439 332 1429 319 q 1455 359 1449 344 q 1461 385 1461 374 q 1451 397 1461 397 m 1289 -112 q 1281 -133 1289 -126 q 1262 -140 1272 -140 q 1243 -133 1251 -140 q 1235 -112 1235 -126 q 1243 -92 1235 -99 q 1262 -85 1251 -85 q 1281 -92 1272 -85 q 1289 -112 1289 -99 m 781 -112 q 772 -133 781 -126 q 753 -140 764 -140 q 735 -133 743 -140 q 726 -112 726 -126 q 735 -92 726 -99 q 753 -85 743 -85 q 772 -92 764 -85 q 781 -112 781 -99 m 642 393 q 624 386 632 393 q 610 369 617 379 q 599 347 604 358 q 590 328 594 335 q 619 328 606 317 q 640 350 633 339 q 646 360 642 353 q 651 374 650 367 q 651 388 653 382 q 642 393 650 393 m 321 322 q 339 331 331 322 q 353 350 347 339 q 365 373 360 361 q 374 393 369 385 q 346 389 360 400 q 325 367 332 378 q 319 357 324 364 q 313 342 315 350 q 312 328 311 335 q 321 322 313 322 m 313 644 q 324 644 318 644 q 333 646 329 643 q 343 664 342 653 q 344 685 344 675 q 343 705 344 693 q 333 722 342 717 q 324 725 329 725 q 313 725 319 725 l 313 644 m 508 322 q 526 331 518 322 q 541 350 535 339 q 552 373 547 361 q 561 393 557 385 q 533 389 546 400 q 513 367 519 378 q 507 357 511 364 q 501 342 503 350 q 499 328 499 335 q 508 322 500 322 m 749 364 q 743 353 744 357 q 740 344 742 349 q 774 358 756 344 q 793 388 793 371 q 785 397 793 399 q 771 392 778 396 q 758 378 764 386 q 749 364 753 371 m 740 651 l 736 618 l 760 618 q 753 668 757 643 q 749 718 750 693 q 745 686 747 703 q 740 651 743 669 m 1685 556 q 1679 542 1685 547 q 1667 538 1674 538 q 1656 542 1661 538 q 1651 556 1651 547 q 1656 569 1651 564 q 1667 574 1661 574 q 1679 569 1674 574 q 1685 556 1685 564 m 926 428 q 910 421 921 418 q 903 435 900 424 q 910 442 904 440 q 920 443 915 444 q 927 438 925 442 q 926 428 929 433 m 454 428 q 440 421 450 418 q 432 435 429 424 q 438 442 433 440 q 448 443 443 444 q 456 438 453 442 q 454 428 458 433 m 1658 321 q 1642 315 1653 310 q 1638 329 1632 319 q 1653 335 1643 340 q 1658 321 1664 331 m 1686 385 q 1679 378 1683 379 q 1671 378 1675 376 q 1665 384 1667 381 q 1667 393 1664 388 q 1682 399 1672 403 q 1686 385 1692 394 z "},"6":{"ha":1767,"x_min":74,"x_max":1692,"o":"m 497 199 l 556 199 q 567 58 563 128 q 575 -83 572 -12 q 583 24 579 -31 q 593 131 586 78 l 601 199 l 656 199 q 668 83 663 140 q 678 -32 674 26 l 682 -83 q 688 28 686 -26 q 696 138 690 83 q 699 168 699 153 q 701 199 700 183 l 743 199 l 715 -140 l 651 -140 q 638 -6 644 -74 q 629 129 632 61 q 622 28 626 79 q 613 -72 618 -22 l 607 -140 l 542 -140 l 526 50 l 510 -140 l 447 -140 q 433 -6 440 -74 q 424 129 426 61 q 417 28 421 79 q 408 -72 414 -22 l 401 -140 l 338 -140 l 321 54 l 306 -140 l 242 -140 q 228 -7 235 -74 q 219 128 222 60 q 214 27 218 76 q 204 -72 210 -22 l 196 -140 l 133 -140 l 104 199 l 146 199 q 158 58 153 128 q 165 -83 163 -12 q 173 24 169 -31 q 183 131 176 78 l 192 199 l 246 199 q 258 83 253 140 q 268 -32 264 26 l 272 -83 q 278 28 276 -26 q 286 138 281 83 l 293 199 l 350 199 q 362 58 357 128 q 371 -83 367 -12 q 378 24 375 -31 q 388 131 382 78 q 392 164 390 147 q 396 199 393 181 l 451 199 q 463 83 458 140 q 474 -32 468 26 l 476 -83 q 483 28 481 -26 q 492 138 486 83 l 497 199 m 1672 932 l 103 932 l 103 963 l 1672 963 l 1672 932 m 1672 -357 l 103 -357 l 103 -326 l 1672 -326 l 1672 -357 m 1028 -140 l 979 -140 l 979 199 l 1029 199 q 1060 199 1044 199 q 1089 193 1075 200 q 1119 155 1113 182 q 1126 104 1126 128 q 1126 78 1126 93 q 1123 47 1126 63 q 1113 19 1119 32 q 1093 3 1106 7 l 1135 -140 l 1081 -140 l 1051 -6 l 1028 -6 l 1028 -140 m 1365 -65 l 1365 -140 l 1319 -140 l 1319 199 l 1364 199 q 1398 81 1381 139 q 1429 -39 1415 22 q 1423 80 1424 21 q 1422 199 1422 139 l 1467 199 l 1467 -140 l 1421 -140 q 1387 -24 1404 -82 q 1357 92 1369 33 q 1361 13 1360 51 q 1365 -65 1363 -25 m 842 -140 l 796 -140 l 836 199 l 915 199 l 957 -140 l 908 -140 l 899 -60 l 853 -60 l 842 -140 m 1601 72 q 1601 105 1603 88 q 1594 138 1600 122 q 1580 156 1590 149 q 1560 149 1569 163 q 1550 120 1551 138 q 1547 88 1549 103 q 1546 55 1546 71 q 1546 24 1546 39 q 1546 -8 1546 8 q 1549 -40 1546 -25 q 1551 -71 1549 -53 q 1567 -96 1554 -89 q 1589 -94 1581 -104 q 1600 -66 1597 -83 q 1603 -31 1603 -49 q 1604 -7 1604 -14 l 1569 -7 l 1569 32 l 1650 32 l 1650 -139 l 1614 -139 l 1613 -93 q 1602 -124 1610 -108 q 1579 -143 1594 -139 q 1549 -140 1564 -147 q 1524 -122 1533 -133 q 1501 -64 1504 -99 q 1499 -1 1499 -29 q 1497 72 1496 35 q 1508 142 1499 108 q 1518 171 1511 157 q 1539 192 1525 185 q 1569 201 1553 200 q 1601 197 1586 203 q 1628 176 1618 190 q 1642 145 1638 163 q 1647 110 1646 128 q 1649 76 1649 92 l 1601 72 m 311 371 q 328 390 318 382 q 350 401 338 399 q 372 399 361 404 q 396 399 383 394 l 371 351 q 363 338 368 347 q 364 325 358 328 q 379 328 371 319 q 394 346 388 336 q 401 360 397 353 q 410 374 406 367 l 421 399 q 442 404 432 399 l 415 351 q 408 338 413 347 q 410 325 404 329 q 424 327 415 319 q 438 344 432 335 q 451 371 443 357 q 464 397 458 385 q 476 422 471 410 q 489 447 482 435 q 508 451 500 444 l 471 375 q 465 361 468 368 q 458 347 461 354 q 453 330 456 340 q 461 325 450 319 q 474 335 468 328 q 486 350 481 342 q 497 371 490 361 q 514 390 504 382 q 536 401 524 399 q 560 399 549 404 q 583 399 571 394 q 571 376 576 388 q 558 351 565 364 q 551 338 556 347 q 551 325 547 328 q 560 324 556 321 q 570 331 565 326 q 579 342 575 336 q 586 353 583 349 l 588 356 l 632 447 q 650 451 643 447 q 636 419 643 435 q 618 388 629 403 q 641 403 628 397 q 664 394 654 410 q 665 363 672 381 q 647 333 657 344 q 663 336 656 332 q 676 346 669 340 q 689 372 682 358 q 703 397 696 385 l 728 447 q 746 451 738 444 q 728 413 736 432 q 708 375 719 394 q 702 361 706 368 q 694 347 699 354 q 692 340 693 344 q 690 331 690 335 q 692 324 690 326 q 700 325 693 322 q 715 336 707 328 q 726 353 722 344 q 743 383 731 371 q 756 394 747 388 q 776 403 765 400 q 794 403 786 406 q 806 389 803 401 q 801 368 807 378 q 784 352 794 358 q 761 342 774 346 q 740 339 749 339 q 744 326 739 331 q 758 321 750 321 q 792 331 776 321 q 815 356 807 340 l 821 353 q 789 322 810 333 q 746 314 768 310 q 724 339 724 318 q 713 326 718 332 q 700 317 707 319 q 680 315 690 311 q 672 332 669 318 l 672 335 q 667 332 669 332 q 650 328 661 328 l 640 328 q 636 325 638 328 q 632 322 635 322 q 602 315 618 314 q 578 331 586 317 q 554 314 568 318 q 537 318 542 311 q 536 336 532 325 q 517 317 529 326 q 493 317 506 308 q 483 336 483 322 q 464 317 475 324 q 443 315 453 311 q 435 329 433 318 q 419 317 425 319 q 398 315 408 311 q 390 331 388 318 q 379 321 385 325 q 367 314 374 317 q 349 318 354 311 q 350 336 344 325 l 349 336 q 330 317 342 326 q 306 317 318 308 q 297 326 299 319 q 297 339 296 332 q 283 331 290 332 q 265 328 278 328 q 257 326 258 328 q 251 322 256 325 q 235 315 244 318 q 219 314 226 313 q 208 322 213 315 q 207 339 204 328 q 218 369 210 354 q 233 399 226 385 q 251 404 240 399 q 243 383 247 393 q 233 364 239 374 q 228 353 232 360 q 221 340 224 347 q 218 328 218 333 q 224 321 218 322 q 247 332 236 318 q 263 353 258 346 q 274 377 269 364 q 278 403 278 390 q 292 396 290 406 q 290 378 293 386 q 265 335 285 356 q 286 339 276 332 q 301 356 296 346 l 311 371 m 1310 536 q 1285 543 1294 536 q 1272 561 1276 550 q 1266 585 1268 572 q 1264 610 1264 599 q 1261 665 1261 636 q 1269 719 1261 693 q 1281 740 1274 731 q 1301 750 1289 749 q 1344 732 1329 757 q 1357 680 1357 708 q 1357 626 1357 651 q 1356 598 1357 614 q 1351 569 1356 582 q 1336 546 1346 556 q 1310 536 1326 536 m 540 536 q 516 543 525 536 q 502 561 507 550 q 496 585 497 572 q 493 610 494 599 q 492 665 492 636 q 500 719 492 693 q 511 740 504 731 q 532 750 518 749 q 575 732 561 757 q 587 680 586 708 q 588 626 588 651 q 586 598 588 614 q 580 569 585 582 q 566 546 575 556 q 540 536 557 536 m 1204 -140 l 1156 -140 l 1156 199 l 1204 199 l 1204 -140 m 313 538 l 283 538 l 283 749 l 315 749 q 335 749 325 749 q 353 746 344 749 q 371 723 367 739 q 375 694 375 707 q 374 656 376 679 q 354 626 371 633 l 379 538 l 346 538 l 328 622 q 320 623 324 622 q 313 624 317 624 l 313 538 m 1397 585 l 1397 538 l 1369 538 l 1369 749 l 1396 749 q 1418 676 1407 713 q 1438 601 1429 639 q 1434 675 1435 638 q 1433 749 1433 713 l 1461 749 l 1461 538 l 1432 538 q 1410 610 1421 574 q 1392 683 1400 646 q 1395 634 1394 658 q 1397 585 1396 610 m 122 538 l 92 538 l 92 749 l 139 749 q 183 713 175 749 q 188 668 189 693 q 176 624 188 643 q 152 608 167 610 q 122 607 138 607 l 122 538 m 628 585 l 628 538 l 600 538 l 600 749 l 626 749 q 648 676 638 713 q 667 601 658 639 q 663 675 664 638 q 663 749 663 713 l 690 749 l 690 538 l 661 538 q 641 610 651 574 q 622 683 631 646 q 625 634 625 658 q 628 585 625 610 m 728 538 l 699 538 l 724 749 l 772 749 l 799 538 l 769 538 l 763 589 l 733 589 l 728 538 m 974 536 q 942 548 953 536 q 928 577 932 560 q 926 614 925 594 q 926 650 926 633 l 926 749 l 957 749 l 957 601 q 956 588 957 594 q 958 574 956 581 q 968 563 961 567 q 982 567 975 560 q 990 585 989 574 q 990 606 990 597 q 991 639 992 622 q 990 672 990 656 l 990 749 l 1021 749 l 1021 650 q 1022 614 1021 633 q 1019 577 1022 594 q 1006 548 1015 560 q 974 536 996 536 m 1514 400 q 1532 404 1521 399 q 1524 390 1528 396 q 1515 376 1521 383 l 1515 375 q 1535 394 1524 385 q 1560 404 1547 403 q 1576 392 1576 404 q 1571 368 1575 379 q 1557 348 1567 363 q 1551 326 1547 333 q 1559 324 1554 322 q 1569 331 1564 325 q 1578 342 1574 336 q 1586 351 1583 347 l 1613 404 l 1601 404 l 1606 413 l 1617 413 l 1628 436 q 1647 440 1639 436 l 1633 413 l 1654 413 l 1649 404 l 1629 404 l 1604 353 q 1597 339 1601 347 q 1596 325 1593 331 q 1606 324 1600 321 q 1617 334 1611 328 q 1628 347 1624 340 q 1633 356 1632 353 l 1639 353 q 1622 329 1632 342 q 1597 314 1613 317 q 1581 317 1585 311 q 1579 331 1576 322 q 1571 323 1575 326 q 1563 317 1567 319 q 1542 314 1553 311 q 1533 331 1532 317 q 1542 352 1535 342 q 1554 372 1550 363 q 1559 385 1556 376 q 1553 393 1563 394 q 1525 374 1538 390 q 1506 346 1513 357 q 1497 330 1500 339 q 1489 313 1493 321 l 1472 313 l 1482 335 q 1481 333 1481 333 q 1467 328 1475 331 l 1454 328 q 1440 317 1447 319 q 1428 314 1432 314 q 1403 318 1414 308 q 1394 343 1392 328 q 1401 371 1396 358 q 1421 394 1408 383 q 1450 404 1433 404 q 1470 396 1464 404 q 1476 376 1476 388 q 1472 353 1476 365 q 1461 333 1467 342 q 1489 349 1479 333 l 1514 400 m 422 636 q 386 690 390 657 q 389 722 383 706 q 410 746 394 738 q 440 751 422 753 q 468 739 457 750 q 481 712 481 726 q 481 682 481 697 q 465 683 472 682 q 450 683 457 683 q 451 701 450 692 q 444 717 451 710 q 424 718 432 728 q 415 697 417 708 q 426 672 415 682 q 447 654 436 663 q 467 635 458 646 q 478 613 475 625 q 478 583 481 597 q 469 557 476 568 q 449 540 461 546 q 421 536 438 533 q 390 563 393 542 q 388 607 386 585 l 415 607 q 415 593 415 600 q 415 579 414 586 q 426 565 418 571 q 442 567 433 560 q 450 584 449 572 q 449 604 451 596 q 439 623 446 615 q 422 636 432 631 m 1071 636 q 1033 690 1039 654 q 1037 722 1032 706 q 1057 746 1042 738 q 1088 751 1071 753 q 1115 739 1104 750 q 1127 712 1128 726 q 1126 682 1126 697 q 1113 683 1119 682 q 1099 683 1106 683 q 1099 701 1099 692 q 1093 717 1100 710 q 1073 718 1081 728 q 1064 697 1065 708 q 1074 672 1064 682 q 1094 654 1083 663 q 1126 613 1118 638 q 1127 583 1129 597 q 1117 557 1125 568 q 1097 540 1110 546 q 1068 536 1085 533 q 1037 563 1040 542 q 1033 607 1033 585 l 1064 607 q 1063 593 1064 600 q 1064 579 1061 586 q 1074 565 1067 571 q 1089 567 1081 560 q 1099 584 1097 572 q 1097 604 1100 596 q 1088 623 1094 615 q 1071 636 1081 631 m 275 538 l 199 538 l 199 749 l 275 749 l 275 721 l 229 721 l 229 661 l 267 661 l 267 631 l 229 631 l 229 567 l 275 567 l 275 538 m 1215 538 l 1140 538 l 1140 749 l 1215 749 l 1215 721 l 1171 721 l 1171 661 l 1208 661 l 1208 631 l 1171 631 l 1171 567 l 1215 567 l 1215 538 m 178 360 l 119 357 q 107 333 113 346 q 100 307 101 321 q 87 310 89 304 q 87 326 85 317 q 93 345 89 336 q 100 357 97 354 l 81 356 l 74 367 l 106 367 q 142 414 121 390 q 190 451 163 438 q 213 458 199 457 q 229 444 226 460 q 228 430 232 438 q 222 415 225 422 q 209 388 215 401 q 196 363 203 375 q 183 338 192 353 q 179 313 175 324 q 165 315 168 310 q 165 329 163 321 q 171 347 167 338 q 178 360 175 356 m 1615 749 l 1644 749 q 1631 690 1638 719 q 1617 631 1624 660 q 1612 585 1610 608 q 1614 538 1614 561 l 1582 538 q 1583 585 1582 561 q 1578 631 1583 608 q 1564 690 1571 660 q 1550 749 1557 719 l 1579 749 q 1590 695 1585 722 q 1597 640 1594 668 q 1604 694 1599 668 q 1615 749 1610 721 m 1111 315 q 1103 331 1101 321 q 1110 350 1106 342 l 1133 399 q 1153 404 1142 399 l 1135 367 q 1124 347 1132 361 q 1121 326 1115 332 q 1141 330 1129 319 q 1157 346 1153 340 q 1164 356 1161 351 q 1171 368 1167 361 l 1188 401 q 1204 404 1193 401 q 1192 378 1199 392 q 1179 353 1186 365 q 1172 339 1176 347 q 1172 325 1168 331 q 1186 326 1178 318 q 1201 344 1194 335 q 1215 371 1207 357 q 1229 397 1222 385 q 1240 422 1235 410 q 1253 447 1246 435 q 1272 451 1263 444 l 1235 375 l 1221 347 q 1216 330 1218 340 q 1225 325 1214 319 q 1246 343 1236 329 q 1259 371 1251 357 q 1274 397 1267 385 q 1285 422 1279 410 q 1297 447 1290 435 q 1317 451 1307 444 l 1279 375 l 1265 347 q 1263 340 1264 344 q 1260 331 1261 335 q 1261 324 1260 326 q 1269 325 1263 322 q 1286 338 1279 328 q 1297 356 1293 347 l 1303 353 q 1289 332 1296 342 q 1271 317 1282 322 q 1251 315 1261 311 q 1243 329 1242 318 q 1226 317 1235 321 q 1207 315 1217 311 q 1199 331 1197 318 q 1185 318 1192 324 q 1171 313 1179 313 q 1157 321 1158 313 q 1160 338 1156 329 q 1137 318 1151 328 q 1111 315 1122 308 m 1547 538 l 1472 538 l 1472 749 l 1503 749 l 1503 564 l 1547 564 l 1547 538 m 881 538 l 806 538 l 806 749 l 836 749 l 836 564 l 881 564 l 881 538 m 1028 29 q 1045 28 1036 29 q 1061 33 1054 28 q 1076 61 1074 44 q 1079 92 1079 78 q 1076 125 1079 107 q 1063 154 1074 143 q 1046 160 1056 161 q 1028 160 1036 160 l 1028 29 m 938 400 q 957 404 946 399 q 949 390 953 396 q 940 376 946 383 l 940 375 q 960 394 949 385 q 985 404 972 403 q 1001 392 1001 404 q 994 368 1000 379 q 981 348 992 363 q 975 326 971 333 q 984 324 978 321 q 996 334 990 328 q 1006 347 1001 340 q 1013 356 1011 353 l 1018 353 q 1004 333 1011 343 q 986 317 997 324 q 967 314 976 311 q 958 331 957 317 q 967 352 960 342 q 979 372 975 363 q 982 378 981 374 q 984 385 983 382 q 983 392 985 389 q 976 393 982 394 q 949 374 961 390 q 931 346 938 357 l 914 313 l 897 313 l 903 325 q 897 320 900 322 q 892 317 894 318 q 871 315 881 311 q 864 332 861 318 q 870 353 864 343 q 881 374 876 363 q 893 399 889 386 q 914 404 907 399 l 888 351 q 881 338 885 347 q 881 325 876 329 q 890 324 885 321 q 901 334 896 328 q 911 347 907 340 q 917 356 915 353 l 938 400 m 1310 725 q 1297 715 1301 725 q 1292 690 1293 704 q 1291 663 1290 676 q 1292 643 1292 649 q 1291 624 1292 638 q 1292 597 1290 611 q 1297 573 1293 583 q 1310 563 1301 563 q 1322 573 1318 563 q 1328 597 1326 583 q 1328 624 1329 611 q 1328 643 1328 638 q 1328 663 1328 649 q 1328 690 1329 676 q 1322 715 1326 704 q 1310 725 1318 725 m 540 725 q 528 715 532 725 q 522 690 524 704 q 522 663 521 676 q 522 643 522 649 q 522 624 522 638 q 522 597 521 611 q 528 573 524 583 q 540 563 532 563 q 552 573 549 563 q 557 597 556 583 q 558 624 558 611 q 557 643 557 638 q 558 663 557 649 q 557 690 558 676 q 552 715 556 704 q 540 725 549 725 m 1653 749 l 1683 749 q 1682 671 1683 710 q 1678 592 1681 632 l 1658 592 q 1654 670 1656 632 q 1653 749 1653 708 m 211 450 q 185 440 200 453 q 164 421 171 428 q 124 367 142 396 l 182 367 l 200 404 q 206 415 201 408 q 213 430 210 422 q 216 443 215 438 q 211 450 217 449 m 1443 432 q 1434 433 1436 428 q 1433 443 1432 438 q 1410 435 1418 449 q 1400 413 1403 422 l 1419 413 l 1415 404 l 1396 404 l 1335 279 q 1315 276 1329 279 l 1379 404 l 1358 404 l 1363 413 l 1383 413 q 1394 435 1388 424 q 1415 449 1401 446 q 1436 447 1424 451 q 1444 441 1439 446 q 1443 432 1449 436 m 1160 432 q 1150 433 1153 428 q 1149 443 1147 438 q 1126 435 1133 449 q 1115 413 1118 422 l 1135 413 l 1131 404 l 1111 404 l 1050 279 q 1032 276 1043 279 l 1094 404 l 1074 404 l 1079 413 l 1099 413 q 1110 435 1103 424 q 1131 449 1117 446 q 1151 447 1139 451 q 1159 441 1154 446 q 1160 432 1164 436 m 864 43 q 860 15 861 29 q 856 -12 858 1 l 896 -12 q 885 69 892 28 q 875 151 878 110 q 870 97 874 124 q 864 43 867 71 m 122 632 q 135 631 129 632 q 146 636 142 631 q 153 656 153 643 q 154 678 154 668 q 153 700 154 688 q 146 719 153 713 q 135 726 142 726 q 122 725 129 725 l 122 632 m 1451 397 q 1431 385 1440 397 q 1415 358 1421 372 q 1410 331 1410 343 q 1421 319 1410 319 q 1439 332 1429 319 q 1455 359 1449 344 q 1461 385 1461 374 q 1451 397 1461 397 m 1289 -112 q 1281 -133 1289 -126 q 1262 -140 1272 -140 q 1243 -133 1251 -140 q 1235 -112 1235 -126 q 1243 -92 1235 -99 q 1262 -85 1251 -85 q 1281 -92 1272 -85 q 1289 -112 1289 -99 m 781 -112 q 772 -133 781 -126 q 753 -140 764 -140 q 735 -133 743 -140 q 726 -112 726 -126 q 735 -92 726 -99 q 753 -85 743 -85 q 772 -92 764 -85 q 781 -112 781 -99 m 642 393 q 624 386 632 393 q 610 369 617 379 q 599 347 604 358 q 590 328 594 335 q 619 328 606 317 q 640 350 633 339 q 646 360 642 353 q 651 374 650 367 q 651 388 653 382 q 642 393 650 393 m 321 322 q 339 331 331 322 q 353 350 347 339 q 365 373 360 361 q 374 393 369 385 q 346 389 360 400 q 325 367 332 378 q 319 357 324 364 q 313 342 315 350 q 312 328 311 335 q 321 322 313 322 m 313 644 q 324 644 318 644 q 333 646 329 643 q 343 664 342 653 q 344 685 344 675 q 343 705 344 693 q 333 722 342 717 q 324 725 329 725 q 313 725 319 725 l 313 644 m 508 322 q 526 331 518 322 q 541 350 535 339 q 552 373 547 361 q 561 393 557 385 q 533 389 546 400 q 513 367 519 378 q 507 357 511 364 q 501 342 503 350 q 499 328 499 335 q 508 322 500 322 m 749 364 q 743 353 744 357 q 740 344 742 349 q 774 358 756 344 q 793 388 793 371 q 785 397 793 399 q 771 392 778 396 q 758 378 764 386 q 749 364 753 371 m 740 651 l 736 618 l 760 618 q 753 668 757 643 q 749 718 750 693 q 745 686 747 703 q 740 651 743 669 m 1685 556 q 1679 542 1685 547 q 1667 538 1674 538 q 1656 542 1661 538 q 1651 556 1651 547 q 1656 569 1651 564 q 1667 574 1661 574 q 1679 569 1674 574 q 1685 556 1685 564 m 926 428 q 910 421 921 418 q 903 435 900 424 q 910 442 904 440 q 920 443 915 444 q 927 438 925 442 q 926 428 929 433 m 454 428 q 440 421 450 418 q 432 435 429 424 q 438 442 433 440 q 448 443 443 444 q 456 438 453 442 q 454 428 458 433 m 1658 321 q 1642 315 1653 310 q 1638 329 1632 319 q 1653 335 1643 340 q 1658 321 1664 331 m 1686 385 q 1679 378 1683 379 q 1671 378 1675 376 q 1665 384 1667 381 q 1667 393 1664 388 q 1682 399 1672 403 q 1686 385 1692 394 z "},"7":{"ha":1767,"x_min":74,"x_max":1692,"o":"m 497 199 l 556 199 q 567 58 563 128 q 575 -83 572 -12 q 583 24 579 -31 q 593 131 586 78 l 601 199 l 656 199 q 668 83 663 140 q 678 -32 674 26 l 682 -83 q 688 28 686 -26 q 696 138 690 83 q 699 168 699 153 q 701 199 700 183 l 743 199 l 715 -140 l 651 -140 q 638 -6 644 -74 q 629 129 632 61 q 622 28 626 79 q 613 -72 618 -22 l 607 -140 l 542 -140 l 526 50 l 510 -140 l 447 -140 q 433 -6 440 -74 q 424 129 426 61 q 417 28 421 79 q 408 -72 414 -22 l 401 -140 l 338 -140 l 321 54 l 306 -140 l 242 -140 q 228 -7 235 -74 q 219 128 222 60 q 214 27 218 76 q 204 -72 210 -22 l 196 -140 l 133 -140 l 104 199 l 146 199 q 158 58 153 128 q 165 -83 163 -12 q 173 24 169 -31 q 183 131 176 78 l 192 199 l 246 199 q 258 83 253 140 q 268 -32 264 26 l 272 -83 q 278 28 276 -26 q 286 138 281 83 l 293 199 l 350 199 q 362 58 357 128 q 371 -83 367 -12 q 378 24 375 -31 q 388 131 382 78 q 392 164 390 147 q 396 199 393 181 l 451 199 q 463 83 458 140 q 474 -32 468 26 l 476 -83 q 483 28 481 -26 q 492 138 486 83 l 497 199 m 1672 932 l 103 932 l 103 963 l 1672 963 l 1672 932 m 1672 -357 l 103 -357 l 103 -326 l 1672 -326 l 1672 -357 m 1028 -140 l 979 -140 l 979 199 l 1029 199 q 1060 199 1044 199 q 1089 193 1075 200 q 1119 155 1113 182 q 1126 104 1126 128 q 1126 78 1126 93 q 1123 47 1126 63 q 1113 19 1119 32 q 1093 3 1106 7 l 1135 -140 l 1081 -140 l 1051 -6 l 1028 -6 l 1028 -140 m 1365 -65 l 1365 -140 l 1319 -140 l 1319 199 l 1364 199 q 1398 81 1381 139 q 1429 -39 1415 22 q 1423 80 1424 21 q 1422 199 1422 139 l 1467 199 l 1467 -140 l 1421 -140 q 1387 -24 1404 -82 q 1357 92 1369 33 q 1361 13 1360 51 q 1365 -65 1363 -25 m 842 -140 l 796 -140 l 836 199 l 915 199 l 957 -140 l 908 -140 l 899 -60 l 853 -60 l 842 -140 m 1601 72 q 1601 105 1603 88 q 1594 138 1600 122 q 1580 156 1590 149 q 1560 149 1569 163 q 1550 120 1551 138 q 1547 88 1549 103 q 1546 55 1546 71 q 1546 24 1546 39 q 1546 -8 1546 8 q 1549 -40 1546 -25 q 1551 -71 1549 -53 q 1567 -96 1554 -89 q 1589 -94 1581 -104 q 1600 -66 1597 -83 q 1603 -31 1603 -49 q 1604 -7 1604 -14 l 1569 -7 l 1569 32 l 1650 32 l 1650 -139 l 1614 -139 l 1613 -93 q 1602 -124 1610 -108 q 1579 -143 1594 -139 q 1549 -140 1564 -147 q 1524 -122 1533 -133 q 1501 -64 1504 -99 q 1499 -1 1499 -29 q 1497 72 1496 35 q 1508 142 1499 108 q 1518 171 1511 157 q 1539 192 1525 185 q 1569 201 1553 200 q 1601 197 1586 203 q 1628 176 1618 190 q 1642 145 1638 163 q 1647 110 1646 128 q 1649 76 1649 92 l 1601 72 m 311 371 q 328 390 318 382 q 350 401 338 399 q 372 399 361 404 q 396 399 383 394 l 371 351 q 363 338 368 347 q 364 325 358 328 q 379 328 371 319 q 394 346 388 336 q 401 360 397 353 q 410 374 406 367 l 421 399 q 442 404 432 399 l 415 351 q 408 338 413 347 q 410 325 404 329 q 424 327 415 319 q 438 344 432 335 q 451 371 443 357 q 464 397 458 385 q 476 422 471 410 q 489 447 482 435 q 508 451 500 444 l 471 375 q 465 361 468 368 q 458 347 461 354 q 453 330 456 340 q 461 325 450 319 q 474 335 468 328 q 486 350 481 342 q 497 371 490 361 q 514 390 504 382 q 536 401 524 399 q 560 399 549 404 q 583 399 571 394 q 571 376 576 388 q 558 351 565 364 q 551 338 556 347 q 551 325 547 328 q 560 324 556 321 q 570 331 565 326 q 579 342 575 336 q 586 353 583 349 l 588 356 l 632 447 q 650 451 643 447 q 636 419 643 435 q 618 388 629 403 q 641 403 628 397 q 664 394 654 410 q 665 363 672 381 q 647 333 657 344 q 663 336 656 332 q 676 346 669 340 q 689 372 682 358 q 703 397 696 385 l 728 447 q 746 451 738 444 q 728 413 736 432 q 708 375 719 394 q 702 361 706 368 q 694 347 699 354 q 692 340 693 344 q 690 331 690 335 q 692 324 690 326 q 700 325 693 322 q 715 336 707 328 q 726 353 722 344 q 743 383 731 371 q 756 394 747 388 q 776 403 765 400 q 794 403 786 406 q 806 389 803 401 q 801 368 807 378 q 784 352 794 358 q 761 342 774 346 q 740 339 749 339 q 744 326 739 331 q 758 321 750 321 q 792 331 776 321 q 815 356 807 340 l 821 353 q 789 322 810 333 q 746 314 768 310 q 724 339 724 318 q 713 326 718 332 q 700 317 707 319 q 680 315 690 311 q 672 332 669 318 l 672 335 q 667 332 669 332 q 650 328 661 328 l 640 328 q 636 325 638 328 q 632 322 635 322 q 602 315 618 314 q 578 331 586 317 q 554 314 568 318 q 537 318 542 311 q 536 336 532 325 q 517 317 529 326 q 493 317 506 308 q 483 336 483 322 q 464 317 475 324 q 443 315 453 311 q 435 329 433 318 q 419 317 425 319 q 398 315 408 311 q 390 331 388 318 q 379 321 385 325 q 367 314 374 317 q 349 318 354 311 q 350 336 344 325 l 349 336 q 330 317 342 326 q 306 317 318 308 q 297 326 299 319 q 297 339 296 332 q 283 331 290 332 q 265 328 278 328 q 257 326 258 328 q 251 322 256 325 q 235 315 244 318 q 219 314 226 313 q 208 322 213 315 q 207 339 204 328 q 218 369 210 354 q 233 399 226 385 q 251 404 240 399 q 243 383 247 393 q 233 364 239 374 q 228 353 232 360 q 221 340 224 347 q 218 328 218 333 q 224 321 218 322 q 247 332 236 318 q 263 353 258 346 q 274 377 269 364 q 278 403 278 390 q 292 396 290 406 q 290 378 293 386 q 265 335 285 356 q 286 339 276 332 q 301 356 296 346 l 311 371 m 1310 536 q 1285 543 1294 536 q 1272 561 1276 550 q 1266 585 1268 572 q 1264 610 1264 599 q 1261 665 1261 636 q 1269 719 1261 693 q 1281 740 1274 731 q 1301 750 1289 749 q 1344 732 1329 757 q 1357 680 1357 708 q 1357 626 1357 651 q 1356 598 1357 614 q 1351 569 1356 582 q 1336 546 1346 556 q 1310 536 1326 536 m 540 536 q 516 543 525 536 q 502 561 507 550 q 496 585 497 572 q 493 610 494 599 q 492 665 492 636 q 500 719 492 693 q 511 740 504 731 q 532 750 518 749 q 575 732 561 757 q 587 680 586 708 q 588 626 588 651 q 586 598 588 614 q 580 569 585 582 q 566 546 575 556 q 540 536 557 536 m 1204 -140 l 1156 -140 l 1156 199 l 1204 199 l 1204 -140 m 313 538 l 283 538 l 283 749 l 315 749 q 335 749 325 749 q 353 746 344 749 q 371 723 367 739 q 375 694 375 707 q 374 656 376 679 q 354 626 371 633 l 379 538 l 346 538 l 328 622 q 320 623 324 622 q 313 624 317 624 l 313 538 m 1397 585 l 1397 538 l 1369 538 l 1369 749 l 1396 749 q 1418 676 1407 713 q 1438 601 1429 639 q 1434 675 1435 638 q 1433 749 1433 713 l 1461 749 l 1461 538 l 1432 538 q 1410 610 1421 574 q 1392 683 1400 646 q 1395 634 1394 658 q 1397 585 1396 610 m 122 538 l 92 538 l 92 749 l 139 749 q 183 713 175 749 q 188 668 189 693 q 176 624 188 643 q 152 608 167 610 q 122 607 138 607 l 122 538 m 628 585 l 628 538 l 600 538 l 600 749 l 626 749 q 648 676 638 713 q 667 601 658 639 q 663 675 664 638 q 663 749 663 713 l 690 749 l 690 538 l 661 538 q 641 610 651 574 q 622 683 631 646 q 625 634 625 658 q 628 585 625 610 m 728 538 l 699 538 l 724 749 l 772 749 l 799 538 l 769 538 l 763 589 l 733 589 l 728 538 m 974 536 q 942 548 953 536 q 928 577 932 560 q 926 614 925 594 q 926 650 926 633 l 926 749 l 957 749 l 957 601 q 956 588 957 594 q 958 574 956 581 q 968 563 961 567 q 982 567 975 560 q 990 585 989 574 q 990 606 990 597 q 991 639 992 622 q 990 672 990 656 l 990 749 l 1021 749 l 1021 650 q 1022 614 1021 633 q 1019 577 1022 594 q 1006 548 1015 560 q 974 536 996 536 m 1514 400 q 1532 404 1521 399 q 1524 390 1528 396 q 1515 376 1521 383 l 1515 375 q 1535 394 1524 385 q 1560 404 1547 403 q 1576 392 1576 404 q 1571 368 1575 379 q 1557 348 1567 363 q 1551 326 1547 333 q 1559 324 1554 322 q 1569 331 1564 325 q 1578 342 1574 336 q 1586 351 1583 347 l 1613 404 l 1601 404 l 1606 413 l 1617 413 l 1628 436 q 1647 440 1639 436 l 1633 413 l 1654 413 l 1649 404 l 1629 404 l 1604 353 q 1597 339 1601 347 q 1596 325 1593 331 q 1606 324 1600 321 q 1617 334 1611 328 q 1628 347 1624 340 q 1633 356 1632 353 l 1639 353 q 1622 329 1632 342 q 1597 314 1613 317 q 1581 317 1585 311 q 1579 331 1576 322 q 1571 323 1575 326 q 1563 317 1567 319 q 1542 314 1553 311 q 1533 331 1532 317 q 1542 352 1535 342 q 1554 372 1550 363 q 1559 385 1556 376 q 1553 393 1563 394 q 1525 374 1538 390 q 1506 346 1513 357 q 1497 330 1500 339 q 1489 313 1493 321 l 1472 313 l 1482 335 q 1481 333 1481 333 q 1467 328 1475 331 l 1454 328 q 1440 317 1447 319 q 1428 314 1432 314 q 1403 318 1414 308 q 1394 343 1392 328 q 1401 371 1396 358 q 1421 394 1408 383 q 1450 404 1433 404 q 1470 396 1464 404 q 1476 376 1476 388 q 1472 353 1476 365 q 1461 333 1467 342 q 1489 349 1479 333 l 1514 400 m 422 636 q 386 690 390 657 q 389 722 383 706 q 410 746 394 738 q 440 751 422 753 q 468 739 457 750 q 481 712 481 726 q 481 682 481 697 q 465 683 472 682 q 450 683 457 683 q 451 701 450 692 q 444 717 451 710 q 424 718 432 728 q 415 697 417 708 q 426 672 415 682 q 447 654 436 663 q 467 635 458 646 q 478 613 475 625 q 478 583 481 597 q 469 557 476 568 q 449 540 461 546 q 421 536 438 533 q 390 563 393 542 q 388 607 386 585 l 415 607 q 415 593 415 600 q 415 579 414 586 q 426 565 418 571 q 442 567 433 560 q 450 584 449 572 q 449 604 451 596 q 439 623 446 615 q 422 636 432 631 m 1071 636 q 1033 690 1039 654 q 1037 722 1032 706 q 1057 746 1042 738 q 1088 751 1071 753 q 1115 739 1104 750 q 1127 712 1128 726 q 1126 682 1126 697 q 1113 683 1119 682 q 1099 683 1106 683 q 1099 701 1099 692 q 1093 717 1100 710 q 1073 718 1081 728 q 1064 697 1065 708 q 1074 672 1064 682 q 1094 654 1083 663 q 1126 613 1118 638 q 1127 583 1129 597 q 1117 557 1125 568 q 1097 540 1110 546 q 1068 536 1085 533 q 1037 563 1040 542 q 1033 607 1033 585 l 1064 607 q 1063 593 1064 600 q 1064 579 1061 586 q 1074 565 1067 571 q 1089 567 1081 560 q 1099 584 1097 572 q 1097 604 1100 596 q 1088 623 1094 615 q 1071 636 1081 631 m 275 538 l 199 538 l 199 749 l 275 749 l 275 721 l 229 721 l 229 661 l 267 661 l 267 631 l 229 631 l 229 567 l 275 567 l 275 538 m 1215 538 l 1140 538 l 1140 749 l 1215 749 l 1215 721 l 1171 721 l 1171 661 l 1208 661 l 1208 631 l 1171 631 l 1171 567 l 1215 567 l 1215 538 m 178 360 l 119 357 q 107 333 113 346 q 100 307 101 321 q 87 310 89 304 q 87 326 85 317 q 93 345 89 336 q 100 357 97 354 l 81 356 l 74 367 l 106 367 q 142 414 121 390 q 190 451 163 438 q 213 458 199 457 q 229 444 226 460 q 228 430 232 438 q 222 415 225 422 q 209 388 215 401 q 196 363 203 375 q 183 338 192 353 q 179 313 175 324 q 165 315 168 310 q 165 329 163 321 q 171 347 167 338 q 178 360 175 356 m 1615 749 l 1644 749 q 1631 690 1638 719 q 1617 631 1624 660 q 1612 585 1610 608 q 1614 538 1614 561 l 1582 538 q 1583 585 1582 561 q 1578 631 1583 608 q 1564 690 1571 660 q 1550 749 1557 719 l 1579 749 q 1590 695 1585 722 q 1597 640 1594 668 q 1604 694 1599 668 q 1615 749 1610 721 m 1111 315 q 1103 331 1101 321 q 1110 350 1106 342 l 1133 399 q 1153 404 1142 399 l 1135 367 q 1124 347 1132 361 q 1121 326 1115 332 q 1141 330 1129 319 q 1157 346 1153 340 q 1164 356 1161 351 q 1171 368 1167 361 l 1188 401 q 1204 404 1193 401 q 1192 378 1199 392 q 1179 353 1186 365 q 1172 339 1176 347 q 1172 325 1168 331 q 1186 326 1178 318 q 1201 344 1194 335 q 1215 371 1207 357 q 1229 397 1222 385 q 1240 422 1235 410 q 1253 447 1246 435 q 1272 451 1263 444 l 1235 375 l 1221 347 q 1216 330 1218 340 q 1225 325 1214 319 q 1246 343 1236 329 q 1259 371 1251 357 q 1274 397 1267 385 q 1285 422 1279 410 q 1297 447 1290 435 q 1317 451 1307 444 l 1279 375 l 1265 347 q 1263 340 1264 344 q 1260 331 1261 335 q 1261 324 1260 326 q 1269 325 1263 322 q 1286 338 1279 328 q 1297 356 1293 347 l 1303 353 q 1289 332 1296 342 q 1271 317 1282 322 q 1251 315 1261 311 q 1243 329 1242 318 q 1226 317 1235 321 q 1207 315 1217 311 q 1199 331 1197 318 q 1185 318 1192 324 q 1171 313 1179 313 q 1157 321 1158 313 q 1160 338 1156 329 q 1137 318 1151 328 q 1111 315 1122 308 m 1547 538 l 1472 538 l 1472 749 l 1503 749 l 1503 564 l 1547 564 l 1547 538 m 881 538 l 806 538 l 806 749 l 836 749 l 836 564 l 881 564 l 881 538 m 1028 29 q 1045 28 1036 29 q 1061 33 1054 28 q 1076 61 1074 44 q 1079 92 1079 78 q 1076 125 1079 107 q 1063 154 1074 143 q 1046 160 1056 161 q 1028 160 1036 160 l 1028 29 m 938 400 q 957 404 946 399 q 949 390 953 396 q 940 376 946 383 l 940 375 q 960 394 949 385 q 985 404 972 403 q 1001 392 1001 404 q 994 368 1000 379 q 981 348 992 363 q 975 326 971 333 q 984 324 978 321 q 996 334 990 328 q 1006 347 1001 340 q 1013 356 1011 353 l 1018 353 q 1004 333 1011 343 q 986 317 997 324 q 967 314 976 311 q 958 331 957 317 q 967 352 960 342 q 979 372 975 363 q 982 378 981 374 q 984 385 983 382 q 983 392 985 389 q 976 393 982 394 q 949 374 961 390 q 931 346 938 357 l 914 313 l 897 313 l 903 325 q 897 320 900 322 q 892 317 894 318 q 871 315 881 311 q 864 332 861 318 q 870 353 864 343 q 881 374 876 363 q 893 399 889 386 q 914 404 907 399 l 888 351 q 881 338 885 347 q 881 325 876 329 q 890 324 885 321 q 901 334 896 328 q 911 347 907 340 q 917 356 915 353 l 938 400 m 1310 725 q 1297 715 1301 725 q 1292 690 1293 704 q 1291 663 1290 676 q 1292 643 1292 649 q 1291 624 1292 638 q 1292 597 1290 611 q 1297 573 1293 583 q 1310 563 1301 563 q 1322 573 1318 563 q 1328 597 1326 583 q 1328 624 1329 611 q 1328 643 1328 638 q 1328 663 1328 649 q 1328 690 1329 676 q 1322 715 1326 704 q 1310 725 1318 725 m 540 725 q 528 715 532 725 q 522 690 524 704 q 522 663 521 676 q 522 643 522 649 q 522 624 522 638 q 522 597 521 611 q 528 573 524 583 q 540 563 532 563 q 552 573 549 563 q 557 597 556 583 q 558 624 558 611 q 557 643 557 638 q 558 663 557 649 q 557 690 558 676 q 552 715 556 704 q 540 725 549 725 m 1653 749 l 1683 749 q 1682 671 1683 710 q 1678 592 1681 632 l 1658 592 q 1654 670 1656 632 q 1653 749 1653 708 m 211 450 q 185 440 200 453 q 164 421 171 428 q 124 367 142 396 l 182 367 l 200 404 q 206 415 201 408 q 213 430 210 422 q 216 443 215 438 q 211 450 217 449 m 1443 432 q 1434 433 1436 428 q 1433 443 1432 438 q 1410 435 1418 449 q 1400 413 1403 422 l 1419 413 l 1415 404 l 1396 404 l 1335 279 q 1315 276 1329 279 l 1379 404 l 1358 404 l 1363 413 l 1383 413 q 1394 435 1388 424 q 1415 449 1401 446 q 1436 447 1424 451 q 1444 441 1439 446 q 1443 432 1449 436 m 1160 432 q 1150 433 1153 428 q 1149 443 1147 438 q 1126 435 1133 449 q 1115 413 1118 422 l 1135 413 l 1131 404 l 1111 404 l 1050 279 q 1032 276 1043 279 l 1094 404 l 1074 404 l 1079 413 l 1099 413 q 1110 435 1103 424 q 1131 449 1117 446 q 1151 447 1139 451 q 1159 441 1154 446 q 1160 432 1164 436 m 864 43 q 860 15 861 29 q 856 -12 858 1 l 896 -12 q 885 69 892 28 q 875 151 878 110 q 870 97 874 124 q 864 43 867 71 m 122 632 q 135 631 129 632 q 146 636 142 631 q 153 656 153 643 q 154 678 154 668 q 153 700 154 688 q 146 719 153 713 q 135 726 142 726 q 122 725 129 725 l 122 632 m 1451 397 q 1431 385 1440 397 q 1415 358 1421 372 q 1410 331 1410 343 q 1421 319 1410 319 q 1439 332 1429 319 q 1455 359 1449 344 q 1461 385 1461 374 q 1451 397 1461 397 m 1289 -112 q 1281 -133 1289 -126 q 1262 -140 1272 -140 q 1243 -133 1251 -140 q 1235 -112 1235 -126 q 1243 -92 1235 -99 q 1262 -85 1251 -85 q 1281 -92 1272 -85 q 1289 -112 1289 -99 m 781 -112 q 772 -133 781 -126 q 753 -140 764 -140 q 735 -133 743 -140 q 726 -112 726 -126 q 735 -92 726 -99 q 753 -85 743 -85 q 772 -92 764 -85 q 781 -112 781 -99 m 642 393 q 624 386 632 393 q 610 369 617 379 q 599 347 604 358 q 590 328 594 335 q 619 328 606 317 q 640 350 633 339 q 646 360 642 353 q 651 374 650 367 q 651 388 653 382 q 642 393 650 393 m 321 322 q 339 331 331 322 q 353 350 347 339 q 365 373 360 361 q 374 393 369 385 q 346 389 360 400 q 325 367 332 378 q 319 357 324 364 q 313 342 315 350 q 312 328 311 335 q 321 322 313 322 m 313 644 q 324 644 318 644 q 333 646 329 643 q 343 664 342 653 q 344 685 344 675 q 343 705 344 693 q 333 722 342 717 q 324 725 329 725 q 313 725 319 725 l 313 644 m 508 322 q 526 331 518 322 q 541 350 535 339 q 552 373 547 361 q 561 393 557 385 q 533 389 546 400 q 513 367 519 378 q 507 357 511 364 q 501 342 503 350 q 499 328 499 335 q 508 322 500 322 m 749 364 q 743 353 744 357 q 740 344 742 349 q 774 358 756 344 q 793 388 793 371 q 785 397 793 399 q 771 392 778 396 q 758 378 764 386 q 749 364 753 371 m 740 651 l 736 618 l 760 618 q 753 668 757 643 q 749 718 750 693 q 745 686 747 703 q 740 651 743 669 m 1685 556 q 1679 542 1685 547 q 1667 538 1674 538 q 1656 542 1661 538 q 1651 556 1651 547 q 1656 569 1651 564 q 1667 574 1661 574 q 1679 569 1674 574 q 1685 556 1685 564 m 926 428 q 910 421 921 418 q 903 435 900 424 q 910 442 904 440 q 920 443 915 444 q 927 438 925 442 q 926 428 929 433 m 454 428 q 440 421 450 418 q 432 435 429 424 q 438 442 433 440 q 448 443 443 444 q 456 438 453 442 q 454 428 458 433 m 1658 321 q 1642 315 1653 310 q 1638 329 1632 319 q 1653 335 1643 340 q 1658 321 1664 331 m 1686 385 q 1679 378 1683 379 q 1671 378 1675 376 q 1665 384 1667 381 q 1667 393 1664 388 q 1682 399 1672 403 q 1686 385 1692 394 z "},"8":{"ha":1767,"x_min":74,"x_max":1692,"o":"m 497 199 l 556 199 q 567 58 563 128 q 575 -83 572 -12 q 583 24 579 -31 q 593 131 586 78 l 601 199 l 656 199 q 668 83 663 140 q 678 -32 674 26 l 682 -83 q 688 28 686 -26 q 696 138 690 83 q 699 168 699 153 q 701 199 700 183 l 743 199 l 715 -140 l 651 -140 q 638 -6 644 -74 q 629 129 632 61 q 622 28 626 79 q 613 -72 618 -22 l 607 -140 l 542 -140 l 526 50 l 510 -140 l 447 -140 q 433 -6 440 -74 q 424 129 426 61 q 417 28 421 79 q 408 -72 414 -22 l 401 -140 l 338 -140 l 321 54 l 306 -140 l 242 -140 q 228 -7 235 -74 q 219 128 222 60 q 214 27 218 76 q 204 -72 210 -22 l 196 -140 l 133 -140 l 104 199 l 146 199 q 158 58 153 128 q 165 -83 163 -12 q 173 24 169 -31 q 183 131 176 78 l 192 199 l 246 199 q 258 83 253 140 q 268 -32 264 26 l 272 -83 q 278 28 276 -26 q 286 138 281 83 l 293 199 l 350 199 q 362 58 357 128 q 371 -83 367 -12 q 378 24 375 -31 q 388 131 382 78 q 392 164 390 147 q 396 199 393 181 l 451 199 q 463 83 458 140 q 474 -32 468 26 l 476 -83 q 483 28 481 -26 q 492 138 486 83 l 497 199 m 1672 932 l 103 932 l 103 963 l 1672 963 l 1672 932 m 1672 -357 l 103 -357 l 103 -326 l 1672 -326 l 1672 -357 m 1028 -140 l 979 -140 l 979 199 l 1029 199 q 1060 199 1044 199 q 1089 193 1075 200 q 1119 155 1113 182 q 1126 104 1126 128 q 1126 78 1126 93 q 1123 47 1126 63 q 1113 19 1119 32 q 1093 3 1106 7 l 1135 -140 l 1081 -140 l 1051 -6 l 1028 -6 l 1028 -140 m 1365 -65 l 1365 -140 l 1319 -140 l 1319 199 l 1364 199 q 1398 81 1381 139 q 1429 -39 1415 22 q 1423 80 1424 21 q 1422 199 1422 139 l 1467 199 l 1467 -140 l 1421 -140 q 1387 -24 1404 -82 q 1357 92 1369 33 q 1361 13 1360 51 q 1365 -65 1363 -25 m 842 -140 l 796 -140 l 836 199 l 915 199 l 957 -140 l 908 -140 l 899 -60 l 853 -60 l 842 -140 m 1601 72 q 1601 105 1603 88 q 1594 138 1600 122 q 1580 156 1590 149 q 1560 149 1569 163 q 1550 120 1551 138 q 1547 88 1549 103 q 1546 55 1546 71 q 1546 24 1546 39 q 1546 -8 1546 8 q 1549 -40 1546 -25 q 1551 -71 1549 -53 q 1567 -96 1554 -89 q 1589 -94 1581 -104 q 1600 -66 1597 -83 q 1603 -31 1603 -49 q 1604 -7 1604 -14 l 1569 -7 l 1569 32 l 1650 32 l 1650 -139 l 1614 -139 l 1613 -93 q 1602 -124 1610 -108 q 1579 -143 1594 -139 q 1549 -140 1564 -147 q 1524 -122 1533 -133 q 1501 -64 1504 -99 q 1499 -1 1499 -29 q 1497 72 1496 35 q 1508 142 1499 108 q 1518 171 1511 157 q 1539 192 1525 185 q 1569 201 1553 200 q 1601 197 1586 203 q 1628 176 1618 190 q 1642 145 1638 163 q 1647 110 1646 128 q 1649 76 1649 92 l 1601 72 m 311 371 q 328 390 318 382 q 350 401 338 399 q 372 399 361 404 q 396 399 383 394 l 371 351 q 363 338 368 347 q 364 325 358 328 q 379 328 371 319 q 394 346 388 336 q 401 360 397 353 q 410 374 406 367 l 421 399 q 442 404 432 399 l 415 351 q 408 338 413 347 q 410 325 404 329 q 424 327 415 319 q 438 344 432 335 q 451 371 443 357 q 464 397 458 385 q 476 422 471 410 q 489 447 482 435 q 508 451 500 444 l 471 375 q 465 361 468 368 q 458 347 461 354 q 453 330 456 340 q 461 325 450 319 q 474 335 468 328 q 486 350 481 342 q 497 371 490 361 q 514 390 504 382 q 536 401 524 399 q 560 399 549 404 q 583 399 571 394 q 571 376 576 388 q 558 351 565 364 q 551 338 556 347 q 551 325 547 328 q 560 324 556 321 q 570 331 565 326 q 579 342 575 336 q 586 353 583 349 l 588 356 l 632 447 q 650 451 643 447 q 636 419 643 435 q 618 388 629 403 q 641 403 628 397 q 664 394 654 410 q 665 363 672 381 q 647 333 657 344 q 663 336 656 332 q 676 346 669 340 q 689 372 682 358 q 703 397 696 385 l 728 447 q 746 451 738 444 q 728 413 736 432 q 708 375 719 394 q 702 361 706 368 q 694 347 699 354 q 692 340 693 344 q 690 331 690 335 q 692 324 690 326 q 700 325 693 322 q 715 336 707 328 q 726 353 722 344 q 743 383 731 371 q 756 394 747 388 q 776 403 765 400 q 794 403 786 406 q 806 389 803 401 q 801 368 807 378 q 784 352 794 358 q 761 342 774 346 q 740 339 749 339 q 744 326 739 331 q 758 321 750 321 q 792 331 776 321 q 815 356 807 340 l 821 353 q 789 322 810 333 q 746 314 768 310 q 724 339 724 318 q 713 326 718 332 q 700 317 707 319 q 680 315 690 311 q 672 332 669 318 l 672 335 q 667 332 669 332 q 650 328 661 328 l 640 328 q 636 325 638 328 q 632 322 635 322 q 602 315 618 314 q 578 331 586 317 q 554 314 568 318 q 537 318 542 311 q 536 336 532 325 q 517 317 529 326 q 493 317 506 308 q 483 336 483 322 q 464 317 475 324 q 443 315 453 311 q 435 329 433 318 q 419 317 425 319 q 398 315 408 311 q 390 331 388 318 q 379 321 385 325 q 367 314 374 317 q 349 318 354 311 q 350 336 344 325 l 349 336 q 330 317 342 326 q 306 317 318 308 q 297 326 299 319 q 297 339 296 332 q 283 331 290 332 q 265 328 278 328 q 257 326 258 328 q 251 322 256 325 q 235 315 244 318 q 219 314 226 313 q 208 322 213 315 q 207 339 204 328 q 218 369 210 354 q 233 399 226 385 q 251 404 240 399 q 243 383 247 393 q 233 364 239 374 q 228 353 232 360 q 221 340 224 347 q 218 328 218 333 q 224 321 218 322 q 247 332 236 318 q 263 353 258 346 q 274 377 269 364 q 278 403 278 390 q 292 396 290 406 q 290 378 293 386 q 265 335 285 356 q 286 339 276 332 q 301 356 296 346 l 311 371 m 1310 536 q 1285 543 1294 536 q 1272 561 1276 550 q 1266 585 1268 572 q 1264 610 1264 599 q 1261 665 1261 636 q 1269 719 1261 693 q 1281 740 1274 731 q 1301 750 1289 749 q 1344 732 1329 757 q 1357 680 1357 708 q 1357 626 1357 651 q 1356 598 1357 614 q 1351 569 1356 582 q 1336 546 1346 556 q 1310 536 1326 536 m 540 536 q 516 543 525 536 q 502 561 507 550 q 496 585 497 572 q 493 610 494 599 q 492 665 492 636 q 500 719 492 693 q 511 740 504 731 q 532 750 518 749 q 575 732 561 757 q 587 680 586 708 q 588 626 588 651 q 586 598 588 614 q 580 569 585 582 q 566 546 575 556 q 540 536 557 536 m 1204 -140 l 1156 -140 l 1156 199 l 1204 199 l 1204 -140 m 313 538 l 283 538 l 283 749 l 315 749 q 335 749 325 749 q 353 746 344 749 q 371 723 367 739 q 375 694 375 707 q 374 656 376 679 q 354 626 371 633 l 379 538 l 346 538 l 328 622 q 320 623 324 622 q 313 624 317 624 l 313 538 m 1397 585 l 1397 538 l 1369 538 l 1369 749 l 1396 749 q 1418 676 1407 713 q 1438 601 1429 639 q 1434 675 1435 638 q 1433 749 1433 713 l 1461 749 l 1461 538 l 1432 538 q 1410 610 1421 574 q 1392 683 1400 646 q 1395 634 1394 658 q 1397 585 1396 610 m 122 538 l 92 538 l 92 749 l 139 749 q 183 713 175 749 q 188 668 189 693 q 176 624 188 643 q 152 608 167 610 q 122 607 138 607 l 122 538 m 628 585 l 628 538 l 600 538 l 600 749 l 626 749 q 648 676 638 713 q 667 601 658 639 q 663 675 664 638 q 663 749 663 713 l 690 749 l 690 538 l 661 538 q 641 610 651 574 q 622 683 631 646 q 625 634 625 658 q 628 585 625 610 m 728 538 l 699 538 l 724 749 l 772 749 l 799 538 l 769 538 l 763 589 l 733 589 l 728 538 m 974 536 q 942 548 953 536 q 928 577 932 560 q 926 614 925 594 q 926 650 926 633 l 926 749 l 957 749 l 957 601 q 956 588 957 594 q 958 574 956 581 q 968 563 961 567 q 982 567 975 560 q 990 585 989 574 q 990 606 990 597 q 991 639 992 622 q 990 672 990 656 l 990 749 l 1021 749 l 1021 650 q 1022 614 1021 633 q 1019 577 1022 594 q 1006 548 1015 560 q 974 536 996 536 m 1514 400 q 1532 404 1521 399 q 1524 390 1528 396 q 1515 376 1521 383 l 1515 375 q 1535 394 1524 385 q 1560 404 1547 403 q 1576 392 1576 404 q 1571 368 1575 379 q 1557 348 1567 363 q 1551 326 1547 333 q 1559 324 1554 322 q 1569 331 1564 325 q 1578 342 1574 336 q 1586 351 1583 347 l 1613 404 l 1601 404 l 1606 413 l 1617 413 l 1628 436 q 1647 440 1639 436 l 1633 413 l 1654 413 l 1649 404 l 1629 404 l 1604 353 q 1597 339 1601 347 q 1596 325 1593 331 q 1606 324 1600 321 q 1617 334 1611 328 q 1628 347 1624 340 q 1633 356 1632 353 l 1639 353 q 1622 329 1632 342 q 1597 314 1613 317 q 1581 317 1585 311 q 1579 331 1576 322 q 1571 323 1575 326 q 1563 317 1567 319 q 1542 314 1553 311 q 1533 331 1532 317 q 1542 352 1535 342 q 1554 372 1550 363 q 1559 385 1556 376 q 1553 393 1563 394 q 1525 374 1538 390 q 1506 346 1513 357 q 1497 330 1500 339 q 1489 313 1493 321 l 1472 313 l 1482 335 q 1481 333 1481 333 q 1467 328 1475 331 l 1454 328 q 1440 317 1447 319 q 1428 314 1432 314 q 1403 318 1414 308 q 1394 343 1392 328 q 1401 371 1396 358 q 1421 394 1408 383 q 1450 404 1433 404 q 1470 396 1464 404 q 1476 376 1476 388 q 1472 353 1476 365 q 1461 333 1467 342 q 1489 349 1479 333 l 1514 400 m 422 636 q 386 690 390 657 q 389 722 383 706 q 410 746 394 738 q 440 751 422 753 q 468 739 457 750 q 481 712 481 726 q 481 682 481 697 q 465 683 472 682 q 450 683 457 683 q 451 701 450 692 q 444 717 451 710 q 424 718 432 728 q 415 697 417 708 q 426 672 415 682 q 447 654 436 663 q 467 635 458 646 q 478 613 475 625 q 478 583 481 597 q 469 557 476 568 q 449 540 461 546 q 421 536 438 533 q 390 563 393 542 q 388 607 386 585 l 415 607 q 415 593 415 600 q 415 579 414 586 q 426 565 418 571 q 442 567 433 560 q 450 584 449 572 q 449 604 451 596 q 439 623 446 615 q 422 636 432 631 m 1071 636 q 1033 690 1039 654 q 1037 722 1032 706 q 1057 746 1042 738 q 1088 751 1071 753 q 1115 739 1104 750 q 1127 712 1128 726 q 1126 682 1126 697 q 1113 683 1119 682 q 1099 683 1106 683 q 1099 701 1099 692 q 1093 717 1100 710 q 1073 718 1081 728 q 1064 697 1065 708 q 1074 672 1064 682 q 1094 654 1083 663 q 1126 613 1118 638 q 1127 583 1129 597 q 1117 557 1125 568 q 1097 540 1110 546 q 1068 536 1085 533 q 1037 563 1040 542 q 1033 607 1033 585 l 1064 607 q 1063 593 1064 600 q 1064 579 1061 586 q 1074 565 1067 571 q 1089 567 1081 560 q 1099 584 1097 572 q 1097 604 1100 596 q 1088 623 1094 615 q 1071 636 1081 631 m 275 538 l 199 538 l 199 749 l 275 749 l 275 721 l 229 721 l 229 661 l 267 661 l 267 631 l 229 631 l 229 567 l 275 567 l 275 538 m 1215 538 l 1140 538 l 1140 749 l 1215 749 l 1215 721 l 1171 721 l 1171 661 l 1208 661 l 1208 631 l 1171 631 l 1171 567 l 1215 567 l 1215 538 m 178 360 l 119 357 q 107 333 113 346 q 100 307 101 321 q 87 310 89 304 q 87 326 85 317 q 93 345 89 336 q 100 357 97 354 l 81 356 l 74 367 l 106 367 q 142 414 121 390 q 190 451 163 438 q 213 458 199 457 q 229 444 226 460 q 228 430 232 438 q 222 415 225 422 q 209 388 215 401 q 196 363 203 375 q 183 338 192 353 q 179 313 175 324 q 165 315 168 310 q 165 329 163 321 q 171 347 167 338 q 178 360 175 356 m 1615 749 l 1644 749 q 1631 690 1638 719 q 1617 631 1624 660 q 1612 585 1610 608 q 1614 538 1614 561 l 1582 538 q 1583 585 1582 561 q 1578 631 1583 608 q 1564 690 1571 660 q 1550 749 1557 719 l 1579 749 q 1590 695 1585 722 q 1597 640 1594 668 q 1604 694 1599 668 q 1615 749 1610 721 m 1111 315 q 1103 331 1101 321 q 1110 350 1106 342 l 1133 399 q 1153 404 1142 399 l 1135 367 q 1124 347 1132 361 q 1121 326 1115 332 q 1141 330 1129 319 q 1157 346 1153 340 q 1164 356 1161 351 q 1171 368 1167 361 l 1188 401 q 1204 404 1193 401 q 1192 378 1199 392 q 1179 353 1186 365 q 1172 339 1176 347 q 1172 325 1168 331 q 1186 326 1178 318 q 1201 344 1194 335 q 1215 371 1207 357 q 1229 397 1222 385 q 1240 422 1235 410 q 1253 447 1246 435 q 1272 451 1263 444 l 1235 375 l 1221 347 q 1216 330 1218 340 q 1225 325 1214 319 q 1246 343 1236 329 q 1259 371 1251 357 q 1274 397 1267 385 q 1285 422 1279 410 q 1297 447 1290 435 q 1317 451 1307 444 l 1279 375 l 1265 347 q 1263 340 1264 344 q 1260 331 1261 335 q 1261 324 1260 326 q 1269 325 1263 322 q 1286 338 1279 328 q 1297 356 1293 347 l 1303 353 q 1289 332 1296 342 q 1271 317 1282 322 q 1251 315 1261 311 q 1243 329 1242 318 q 1226 317 1235 321 q 1207 315 1217 311 q 1199 331 1197 318 q 1185 318 1192 324 q 1171 313 1179 313 q 1157 321 1158 313 q 1160 338 1156 329 q 1137 318 1151 328 q 1111 315 1122 308 m 1547 538 l 1472 538 l 1472 749 l 1503 749 l 1503 564 l 1547 564 l 1547 538 m 881 538 l 806 538 l 806 749 l 836 749 l 836 564 l 881 564 l 881 538 m 1028 29 q 1045 28 1036 29 q 1061 33 1054 28 q 1076 61 1074 44 q 1079 92 1079 78 q 1076 125 1079 107 q 1063 154 1074 143 q 1046 160 1056 161 q 1028 160 1036 160 l 1028 29 m 938 400 q 957 404 946 399 q 949 390 953 396 q 940 376 946 383 l 940 375 q 960 394 949 385 q 985 404 972 403 q 1001 392 1001 404 q 994 368 1000 379 q 981 348 992 363 q 975 326 971 333 q 984 324 978 321 q 996 334 990 328 q 1006 347 1001 340 q 1013 356 1011 353 l 1018 353 q 1004 333 1011 343 q 986 317 997 324 q 967 314 976 311 q 958 331 957 317 q 967 352 960 342 q 979 372 975 363 q 982 378 981 374 q 984 385 983 382 q 983 392 985 389 q 976 393 982 394 q 949 374 961 390 q 931 346 938 357 l 914 313 l 897 313 l 903 325 q 897 320 900 322 q 892 317 894 318 q 871 315 881 311 q 864 332 861 318 q 870 353 864 343 q 881 374 876 363 q 893 399 889 386 q 914 404 907 399 l 888 351 q 881 338 885 347 q 881 325 876 329 q 890 324 885 321 q 901 334 896 328 q 911 347 907 340 q 917 356 915 353 l 938 400 m 1310 725 q 1297 715 1301 725 q 1292 690 1293 704 q 1291 663 1290 676 q 1292 643 1292 649 q 1291 624 1292 638 q 1292 597 1290 611 q 1297 573 1293 583 q 1310 563 1301 563 q 1322 573 1318 563 q 1328 597 1326 583 q 1328 624 1329 611 q 1328 643 1328 638 q 1328 663 1328 649 q 1328 690 1329 676 q 1322 715 1326 704 q 1310 725 1318 725 m 540 725 q 528 715 532 725 q 522 690 524 704 q 522 663 521 676 q 522 643 522 649 q 522 624 522 638 q 522 597 521 611 q 528 573 524 583 q 540 563 532 563 q 552 573 549 563 q 557 597 556 583 q 558 624 558 611 q 557 643 557 638 q 558 663 557 649 q 557 690 558 676 q 552 715 556 704 q 540 725 549 725 m 1653 749 l 1683 749 q 1682 671 1683 710 q 1678 592 1681 632 l 1658 592 q 1654 670 1656 632 q 1653 749 1653 708 m 211 450 q 185 440 200 453 q 164 421 171 428 q 124 367 142 396 l 182 367 l 200 404 q 206 415 201 408 q 213 430 210 422 q 216 443 215 438 q 211 450 217 449 m 1443 432 q 1434 433 1436 428 q 1433 443 1432 438 q 1410 435 1418 449 q 1400 413 1403 422 l 1419 413 l 1415 404 l 1396 404 l 1335 279 q 1315 276 1329 279 l 1379 404 l 1358 404 l 1363 413 l 1383 413 q 1394 435 1388 424 q 1415 449 1401 446 q 1436 447 1424 451 q 1444 441 1439 446 q 1443 432 1449 436 m 1160 432 q 1150 433 1153 428 q 1149 443 1147 438 q 1126 435 1133 449 q 1115 413 1118 422 l 1135 413 l 1131 404 l 1111 404 l 1050 279 q 1032 276 1043 279 l 1094 404 l 1074 404 l 1079 413 l 1099 413 q 1110 435 1103 424 q 1131 449 1117 446 q 1151 447 1139 451 q 1159 441 1154 446 q 1160 432 1164 436 m 864 43 q 860 15 861 29 q 856 -12 858 1 l 896 -12 q 885 69 892 28 q 875 151 878 110 q 870 97 874 124 q 864 43 867 71 m 122 632 q 135 631 129 632 q 146 636 142 631 q 153 656 153 643 q 154 678 154 668 q 153 700 154 688 q 146 719 153 713 q 135 726 142 726 q 122 725 129 725 l 122 632 m 1451 397 q 1431 385 1440 397 q 1415 358 1421 372 q 1410 331 1410 343 q 1421 319 1410 319 q 1439 332 1429 319 q 1455 359 1449 344 q 1461 385 1461 374 q 1451 397 1461 397 m 1289 -112 q 1281 -133 1289 -126 q 1262 -140 1272 -140 q 1243 -133 1251 -140 q 1235 -112 1235 -126 q 1243 -92 1235 -99 q 1262 -85 1251 -85 q 1281 -92 1272 -85 q 1289 -112 1289 -99 m 781 -112 q 772 -133 781 -126 q 753 -140 764 -140 q 735 -133 743 -140 q 726 -112 726 -126 q 735 -92 726 -99 q 753 -85 743 -85 q 772 -92 764 -85 q 781 -112 781 -99 m 642 393 q 624 386 632 393 q 610 369 617 379 q 599 347 604 358 q 590 328 594 335 q 619 328 606 317 q 640 350 633 339 q 646 360 642 353 q 651 374 650 367 q 651 388 653 382 q 642 393 650 393 m 321 322 q 339 331 331 322 q 353 350 347 339 q 365 373 360 361 q 374 393 369 385 q 346 389 360 400 q 325 367 332 378 q 319 357 324 364 q 313 342 315 350 q 312 328 311 335 q 321 322 313 322 m 313 644 q 324 644 318 644 q 333 646 329 643 q 343 664 342 653 q 344 685 344 675 q 343 705 344 693 q 333 722 342 717 q 324 725 329 725 q 313 725 319 725 l 313 644 m 508 322 q 526 331 518 322 q 541 350 535 339 q 552 373 547 361 q 561 393 557 385 q 533 389 546 400 q 513 367 519 378 q 507 357 511 364 q 501 342 503 350 q 499 328 499 335 q 508 322 500 322 m 749 364 q 743 353 744 357 q 740 344 742 349 q 774 358 756 344 q 793 388 793 371 q 785 397 793 399 q 771 392 778 396 q 758 378 764 386 q 749 364 753 371 m 740 651 l 736 618 l 760 618 q 753 668 757 643 q 749 718 750 693 q 745 686 747 703 q 740 651 743 669 m 1685 556 q 1679 542 1685 547 q 1667 538 1674 538 q 1656 542 1661 538 q 1651 556 1651 547 q 1656 569 1651 564 q 1667 574 1661 574 q 1679 569 1674 574 q 1685 556 1685 564 m 926 428 q 910 421 921 418 q 903 435 900 424 q 910 442 904 440 q 920 443 915 444 q 927 438 925 442 q 926 428 929 433 m 454 428 q 440 421 450 418 q 432 435 429 424 q 438 442 433 440 q 448 443 443 444 q 456 438 453 442 q 454 428 458 433 m 1658 321 q 1642 315 1653 310 q 1638 329 1632 319 q 1653 335 1643 340 q 1658 321 1664 331 m 1686 385 q 1679 378 1683 379 q 1671 378 1675 376 q 1665 384 1667 381 q 1667 393 1664 388 q 1682 399 1672 403 q 1686 385 1692 394 z "},"9":{"ha":1767,"x_min":74,"x_max":1692,"o":"m 497 199 l 556 199 q 567 58 563 128 q 575 -83 572 -12 q 583 24 579 -31 q 593 131 586 78 l 601 199 l 656 199 q 668 83 663 140 q 678 -32 674 26 l 682 -83 q 688 28 686 -26 q 696 138 690 83 q 699 168 699 153 q 701 199 700 183 l 743 199 l 715 -140 l 651 -140 q 638 -6 644 -74 q 629 129 632 61 q 622 28 626 79 q 613 -72 618 -22 l 607 -140 l 542 -140 l 526 50 l 510 -140 l 447 -140 q 433 -6 440 -74 q 424 129 426 61 q 417 28 421 79 q 408 -72 414 -22 l 401 -140 l 338 -140 l 321 54 l 306 -140 l 242 -140 q 228 -7 235 -74 q 219 128 222 60 q 214 27 218 76 q 204 -72 210 -22 l 196 -140 l 133 -140 l 104 199 l 146 199 q 158 58 153 128 q 165 -83 163 -12 q 173 24 169 -31 q 183 131 176 78 l 192 199 l 246 199 q 258 83 253 140 q 268 -32 264 26 l 272 -83 q 278 28 276 -26 q 286 138 281 83 l 293 199 l 350 199 q 362 58 357 128 q 371 -83 367 -12 q 378 24 375 -31 q 388 131 382 78 q 392 164 390 147 q 396 199 393 181 l 451 199 q 463 83 458 140 q 474 -32 468 26 l 476 -83 q 483 28 481 -26 q 492 138 486 83 l 497 199 m 1672 932 l 103 932 l 103 963 l 1672 963 l 1672 932 m 1672 -357 l 103 -357 l 103 -326 l 1672 -326 l 1672 -357 m 1028 -140 l 979 -140 l 979 199 l 1029 199 q 1060 199 1044 199 q 1089 193 1075 200 q 1119 155 1113 182 q 1126 104 1126 128 q 1126 78 1126 93 q 1123 47 1126 63 q 1113 19 1119 32 q 1093 3 1106 7 l 1135 -140 l 1081 -140 l 1051 -6 l 1028 -6 l 1028 -140 m 1365 -65 l 1365 -140 l 1319 -140 l 1319 199 l 1364 199 q 1398 81 1381 139 q 1429 -39 1415 22 q 1423 80 1424 21 q 1422 199 1422 139 l 1467 199 l 1467 -140 l 1421 -140 q 1387 -24 1404 -82 q 1357 92 1369 33 q 1361 13 1360 51 q 1365 -65 1363 -25 m 842 -140 l 796 -140 l 836 199 l 915 199 l 957 -140 l 908 -140 l 899 -60 l 853 -60 l 842 -140 m 1601 72 q 1601 105 1603 88 q 1594 138 1600 122 q 1580 156 1590 149 q 1560 149 1569 163 q 1550 120 1551 138 q 1547 88 1549 103 q 1546 55 1546 71 q 1546 24 1546 39 q 1546 -8 1546 8 q 1549 -40 1546 -25 q 1551 -71 1549 -53 q 1567 -96 1554 -89 q 1589 -94 1581 -104 q 1600 -66 1597 -83 q 1603 -31 1603 -49 q 1604 -7 1604 -14 l 1569 -7 l 1569 32 l 1650 32 l 1650 -139 l 1614 -139 l 1613 -93 q 1602 -124 1610 -108 q 1579 -143 1594 -139 q 1549 -140 1564 -147 q 1524 -122 1533 -133 q 1501 -64 1504 -99 q 1499 -1 1499 -29 q 1497 72 1496 35 q 1508 142 1499 108 q 1518 171 1511 157 q 1539 192 1525 185 q 1569 201 1553 200 q 1601 197 1586 203 q 1628 176 1618 190 q 1642 145 1638 163 q 1647 110 1646 128 q 1649 76 1649 92 l 1601 72 m 311 371 q 328 390 318 382 q 350 401 338 399 q 372 399 361 404 q 396 399 383 394 l 371 351 q 363 338 368 347 q 364 325 358 328 q 379 328 371 319 q 394 346 388 336 q 401 360 397 353 q 410 374 406 367 l 421 399 q 442 404 432 399 l 415 351 q 408 338 413 347 q 410 325 404 329 q 424 327 415 319 q 438 344 432 335 q 451 371 443 357 q 464 397 458 385 q 476 422 471 410 q 489 447 482 435 q 508 451 500 444 l 471 375 q 465 361 468 368 q 458 347 461 354 q 453 330 456 340 q 461 325 450 319 q 474 335 468 328 q 486 350 481 342 q 497 371 490 361 q 514 390 504 382 q 536 401 524 399 q 560 399 549 404 q 583 399 571 394 q 571 376 576 388 q 558 351 565 364 q 551 338 556 347 q 551 325 547 328 q 560 324 556 321 q 570 331 565 326 q 579 342 575 336 q 586 353 583 349 l 588 356 l 632 447 q 650 451 643 447 q 636 419 643 435 q 618 388 629 403 q 641 403 628 397 q 664 394 654 410 q 665 363 672 381 q 647 333 657 344 q 663 336 656 332 q 676 346 669 340 q 689 372 682 358 q 703 397 696 385 l 728 447 q 746 451 738 444 q 728 413 736 432 q 708 375 719 394 q 702 361 706 368 q 694 347 699 354 q 692 340 693 344 q 690 331 690 335 q 692 324 690 326 q 700 325 693 322 q 715 336 707 328 q 726 353 722 344 q 743 383 731 371 q 756 394 747 388 q 776 403 765 400 q 794 403 786 406 q 806 389 803 401 q 801 368 807 378 q 784 352 794 358 q 761 342 774 346 q 740 339 749 339 q 744 326 739 331 q 758 321 750 321 q 792 331 776 321 q 815 356 807 340 l 821 353 q 789 322 810 333 q 746 314 768 310 q 724 339 724 318 q 713 326 718 332 q 700 317 707 319 q 680 315 690 311 q 672 332 669 318 l 672 335 q 667 332 669 332 q 650 328 661 328 l 640 328 q 636 325 638 328 q 632 322 635 322 q 602 315 618 314 q 578 331 586 317 q 554 314 568 318 q 537 318 542 311 q 536 336 532 325 q 517 317 529 326 q 493 317 506 308 q 483 336 483 322 q 464 317 475 324 q 443 315 453 311 q 435 329 433 318 q 419 317 425 319 q 398 315 408 311 q 390 331 388 318 q 379 321 385 325 q 367 314 374 317 q 349 318 354 311 q 350 336 344 325 l 349 336 q 330 317 342 326 q 306 317 318 308 q 297 326 299 319 q 297 339 296 332 q 283 331 290 332 q 265 328 278 328 q 257 326 258 328 q 251 322 256 325 q 235 315 244 318 q 219 314 226 313 q 208 322 213 315 q 207 339 204 328 q 218 369 210 354 q 233 399 226 385 q 251 404 240 399 q 243 383 247 393 q 233 364 239 374 q 228 353 232 360 q 221 340 224 347 q 218 328 218 333 q 224 321 218 322 q 247 332 236 318 q 263 353 258 346 q 274 377 269 364 q 278 403 278 390 q 292 396 290 406 q 290 378 293 386 q 265 335 285 356 q 286 339 276 332 q 301 356 296 346 l 311 371 m 1310 536 q 1285 543 1294 536 q 1272 561 1276 550 q 1266 585 1268 572 q 1264 610 1264 599 q 1261 665 1261 636 q 1269 719 1261 693 q 1281 740 1274 731 q 1301 750 1289 749 q 1344 732 1329 757 q 1357 680 1357 708 q 1357 626 1357 651 q 1356 598 1357 614 q 1351 569 1356 582 q 1336 546 1346 556 q 1310 536 1326 536 m 540 536 q 516 543 525 536 q 502 561 507 550 q 496 585 497 572 q 493 610 494 599 q 492 665 492 636 q 500 719 492 693 q 511 740 504 731 q 532 750 518 749 q 575 732 561 757 q 587 680 586 708 q 588 626 588 651 q 586 598 588 614 q 580 569 585 582 q 566 546 575 556 q 540 536 557 536 m 1204 -140 l 1156 -140 l 1156 199 l 1204 199 l 1204 -140 m 313 538 l 283 538 l 283 749 l 315 749 q 335 749 325 749 q 353 746 344 749 q 371 723 367 739 q 375 694 375 707 q 374 656 376 679 q 354 626 371 633 l 379 538 l 346 538 l 328 622 q 320 623 324 622 q 313 624 317 624 l 313 538 m 1397 585 l 1397 538 l 1369 538 l 1369 749 l 1396 749 q 1418 676 1407 713 q 1438 601 1429 639 q 1434 675 1435 638 q 1433 749 1433 713 l 1461 749 l 1461 538 l 1432 538 q 1410 610 1421 574 q 1392 683 1400 646 q 1395 634 1394 658 q 1397 585 1396 610 m 122 538 l 92 538 l 92 749 l 139 749 q 183 713 175 749 q 188 668 189 693 q 176 624 188 643 q 152 608 167 610 q 122 607 138 607 l 122 538 m 628 585 l 628 538 l 600 538 l 600 749 l 626 749 q 648 676 638 713 q 667 601 658 639 q 663 675 664 638 q 663 749 663 713 l 690 749 l 690 538 l 661 538 q 641 610 651 574 q 622 683 631 646 q 625 634 625 658 q 628 585 625 610 m 728 538 l 699 538 l 724 749 l 772 749 l 799 538 l 769 538 l 763 589 l 733 589 l 728 538 m 974 536 q 942 548 953 536 q 928 577 932 560 q 926 614 925 594 q 926 650 926 633 l 926 749 l 957 749 l 957 601 q 956 588 957 594 q 958 574 956 581 q 968 563 961 567 q 982 567 975 560 q 990 585 989 574 q 990 606 990 597 q 991 639 992 622 q 990 672 990 656 l 990 749 l 1021 749 l 1021 650 q 1022 614 1021 633 q 1019 577 1022 594 q 1006 548 1015 560 q 974 536 996 536 m 1514 400 q 1532 404 1521 399 q 1524 390 1528 396 q 1515 376 1521 383 l 1515 375 q 1535 394 1524 385 q 1560 404 1547 403 q 1576 392 1576 404 q 1571 368 1575 379 q 1557 348 1567 363 q 1551 326 1547 333 q 1559 324 1554 322 q 1569 331 1564 325 q 1578 342 1574 336 q 1586 351 1583 347 l 1613 404 l 1601 404 l 1606 413 l 1617 413 l 1628 436 q 1647 440 1639 436 l 1633 413 l 1654 413 l 1649 404 l 1629 404 l 1604 353 q 1597 339 1601 347 q 1596 325 1593 331 q 1606 324 1600 321 q 1617 334 1611 328 q 1628 347 1624 340 q 1633 356 1632 353 l 1639 353 q 1622 329 1632 342 q 1597 314 1613 317 q 1581 317 1585 311 q 1579 331 1576 322 q 1571 323 1575 326 q 1563 317 1567 319 q 1542 314 1553 311 q 1533 331 1532 317 q 1542 352 1535 342 q 1554 372 1550 363 q 1559 385 1556 376 q 1553 393 1563 394 q 1525 374 1538 390 q 1506 346 1513 357 q 1497 330 1500 339 q 1489 313 1493 321 l 1472 313 l 1482 335 q 1481 333 1481 333 q 1467 328 1475 331 l 1454 328 q 1440 317 1447 319 q 1428 314 1432 314 q 1403 318 1414 308 q 1394 343 1392 328 q 1401 371 1396 358 q 1421 394 1408 383 q 1450 404 1433 404 q 1470 396 1464 404 q 1476 376 1476 388 q 1472 353 1476 365 q 1461 333 1467 342 q 1489 349 1479 333 l 1514 400 m 422 636 q 386 690 390 657 q 389 722 383 706 q 410 746 394 738 q 440 751 422 753 q 468 739 457 750 q 481 712 481 726 q 481 682 481 697 q 465 683 472 682 q 450 683 457 683 q 451 701 450 692 q 444 717 451 710 q 424 718 432 728 q 415 697 417 708 q 426 672 415 682 q 447 654 436 663 q 467 635 458 646 q 478 613 475 625 q 478 583 481 597 q 469 557 476 568 q 449 540 461 546 q 421 536 438 533 q 390 563 393 542 q 388 607 386 585 l 415 607 q 415 593 415 600 q 415 579 414 586 q 426 565 418 571 q 442 567 433 560 q 450 584 449 572 q 449 604 451 596 q 439 623 446 615 q 422 636 432 631 m 1071 636 q 1033 690 1039 654 q 1037 722 1032 706 q 1057 746 1042 738 q 1088 751 1071 753 q 1115 739 1104 750 q 1127 712 1128 726 q 1126 682 1126 697 q 1113 683 1119 682 q 1099 683 1106 683 q 1099 701 1099 692 q 1093 717 1100 710 q 1073 718 1081 728 q 1064 697 1065 708 q 1074 672 1064 682 q 1094 654 1083 663 q 1126 613 1118 638 q 1127 583 1129 597 q 1117 557 1125 568 q 1097 540 1110 546 q 1068 536 1085 533 q 1037 563 1040 542 q 1033 607 1033 585 l 1064 607 q 1063 593 1064 600 q 1064 579 1061 586 q 1074 565 1067 571 q 1089 567 1081 560 q 1099 584 1097 572 q 1097 604 1100 596 q 1088 623 1094 615 q 1071 636 1081 631 m 275 538 l 199 538 l 199 749 l 275 749 l 275 721 l 229 721 l 229 661 l 267 661 l 267 631 l 229 631 l 229 567 l 275 567 l 275 538 m 1215 538 l 1140 538 l 1140 749 l 1215 749 l 1215 721 l 1171 721 l 1171 661 l 1208 661 l 1208 631 l 1171 631 l 1171 567 l 1215 567 l 1215 538 m 178 360 l 119 357 q 107 333 113 346 q 100 307 101 321 q 87 310 89 304 q 87 326 85 317 q 93 345 89 336 q 100 357 97 354 l 81 356 l 74 367 l 106 367 q 142 414 121 390 q 190 451 163 438 q 213 458 199 457 q 229 444 226 460 q 228 430 232 438 q 222 415 225 422 q 209 388 215 401 q 196 363 203 375 q 183 338 192 353 q 179 313 175 324 q 165 315 168 310 q 165 329 163 321 q 171 347 167 338 q 178 360 175 356 m 1615 749 l 1644 749 q 1631 690 1638 719 q 1617 631 1624 660 q 1612 585 1610 608 q 1614 538 1614 561 l 1582 538 q 1583 585 1582 561 q 1578 631 1583 608 q 1564 690 1571 660 q 1550 749 1557 719 l 1579 749 q 1590 695 1585 722 q 1597 640 1594 668 q 1604 694 1599 668 q 1615 749 1610 721 m 1111 315 q 1103 331 1101 321 q 1110 350 1106 342 l 1133 399 q 1153 404 1142 399 l 1135 367 q 1124 347 1132 361 q 1121 326 1115 332 q 1141 330 1129 319 q 1157 346 1153 340 q 1164 356 1161 351 q 1171 368 1167 361 l 1188 401 q 1204 404 1193 401 q 1192 378 1199 392 q 1179 353 1186 365 q 1172 339 1176 347 q 1172 325 1168 331 q 1186 326 1178 318 q 1201 344 1194 335 q 1215 371 1207 357 q 1229 397 1222 385 q 1240 422 1235 410 q 1253 447 1246 435 q 1272 451 1263 444 l 1235 375 l 1221 347 q 1216 330 1218 340 q 1225 325 1214 319 q 1246 343 1236 329 q 1259 371 1251 357 q 1274 397 1267 385 q 1285 422 1279 410 q 1297 447 1290 435 q 1317 451 1307 444 l 1279 375 l 1265 347 q 1263 340 1264 344 q 1260 331 1261 335 q 1261 324 1260 326 q 1269 325 1263 322 q 1286 338 1279 328 q 1297 356 1293 347 l 1303 353 q 1289 332 1296 342 q 1271 317 1282 322 q 1251 315 1261 311 q 1243 329 1242 318 q 1226 317 1235 321 q 1207 315 1217 311 q 1199 331 1197 318 q 1185 318 1192 324 q 1171 313 1179 313 q 1157 321 1158 313 q 1160 338 1156 329 q 1137 318 1151 328 q 1111 315 1122 308 m 1547 538 l 1472 538 l 1472 749 l 1503 749 l 1503 564 l 1547 564 l 1547 538 m 881 538 l 806 538 l 806 749 l 836 749 l 836 564 l 881 564 l 881 538 m 1028 29 q 1045 28 1036 29 q 1061 33 1054 28 q 1076 61 1074 44 q 1079 92 1079 78 q 1076 125 1079 107 q 1063 154 1074 143 q 1046 160 1056 161 q 1028 160 1036 160 l 1028 29 m 938 400 q 957 404 946 399 q 949 390 953 396 q 940 376 946 383 l 940 375 q 960 394 949 385 q 985 404 972 403 q 1001 392 1001 404 q 994 368 1000 379 q 981 348 992 363 q 975 326 971 333 q 984 324 978 321 q 996 334 990 328 q 1006 347 1001 340 q 1013 356 1011 353 l 1018 353 q 1004 333 1011 343 q 986 317 997 324 q 967 314 976 311 q 958 331 957 317 q 967 352 960 342 q 979 372 975 363 q 982 378 981 374 q 984 385 983 382 q 983 392 985 389 q 976 393 982 394 q 949 374 961 390 q 931 346 938 357 l 914 313 l 897 313 l 903 325 q 897 320 900 322 q 892 317 894 318 q 871 315 881 311 q 864 332 861 318 q 870 353 864 343 q 881 374 876 363 q 893 399 889 386 q 914 404 907 399 l 888 351 q 881 338 885 347 q 881 325 876 329 q 890 324 885 321 q 901 334 896 328 q 911 347 907 340 q 917 356 915 353 l 938 400 m 1310 725 q 1297 715 1301 725 q 1292 690 1293 704 q 1291 663 1290 676 q 1292 643 1292 649 q 1291 624 1292 638 q 1292 597 1290 611 q 1297 573 1293 583 q 1310 563 1301 563 q 1322 573 1318 563 q 1328 597 1326 583 q 1328 624 1329 611 q 1328 643 1328 638 q 1328 663 1328 649 q 1328 690 1329 676 q 1322 715 1326 704 q 1310 725 1318 725 m 540 725 q 528 715 532 725 q 522 690 524 704 q 522 663 521 676 q 522 643 522 649 q 522 624 522 638 q 522 597 521 611 q 528 573 524 583 q 540 563 532 563 q 552 573 549 563 q 557 597 556 583 q 558 624 558 611 q 557 643 557 638 q 558 663 557 649 q 557 690 558 676 q 552 715 556 704 q 540 725 549 725 m 1653 749 l 1683 749 q 1682 671 1683 710 q 1678 592 1681 632 l 1658 592 q 1654 670 1656 632 q 1653 749 1653 708 m 211 450 q 185 440 200 453 q 164 421 171 428 q 124 367 142 396 l 182 367 l 200 404 q 206 415 201 408 q 213 430 210 422 q 216 443 215 438 q 211 450 217 449 m 1443 432 q 1434 433 1436 428 q 1433 443 1432 438 q 1410 435 1418 449 q 1400 413 1403 422 l 1419 413 l 1415 404 l 1396 404 l 1335 279 q 1315 276 1329 279 l 1379 404 l 1358 404 l 1363 413 l 1383 413 q 1394 435 1388 424 q 1415 449 1401 446 q 1436 447 1424 451 q 1444 441 1439 446 q 1443 432 1449 436 m 1160 432 q 1150 433 1153 428 q 1149 443 1147 438 q 1126 435 1133 449 q 1115 413 1118 422 l 1135 413 l 1131 404 l 1111 404 l 1050 279 q 1032 276 1043 279 l 1094 404 l 1074 404 l 1079 413 l 1099 413 q 1110 435 1103 424 q 1131 449 1117 446 q 1151 447 1139 451 q 1159 441 1154 446 q 1160 432 1164 436 m 864 43 q 860 15 861 29 q 856 -12 858 1 l 896 -12 q 885 69 892 28 q 875 151 878 110 q 870 97 874 124 q 864 43 867 71 m 122 632 q 135 631 129 632 q 146 636 142 631 q 153 656 153 643 q 154 678 154 668 q 153 700 154 688 q 146 719 153 713 q 135 726 142 726 q 122 725 129 725 l 122 632 m 1451 397 q 1431 385 1440 397 q 1415 358 1421 372 q 1410 331 1410 343 q 1421 319 1410 319 q 1439 332 1429 319 q 1455 359 1449 344 q 1461 385 1461 374 q 1451 397 1461 397 m 1289 -112 q 1281 -133 1289 -126 q 1262 -140 1272 -140 q 1243 -133 1251 -140 q 1235 -112 1235 -126 q 1243 -92 1235 -99 q 1262 -85 1251 -85 q 1281 -92 1272 -85 q 1289 -112 1289 -99 m 781 -112 q 772 -133 781 -126 q 753 -140 764 -140 q 735 -133 743 -140 q 726 -112 726 -126 q 735 -92 726 -99 q 753 -85 743 -85 q 772 -92 764 -85 q 781 -112 781 -99 m 642 393 q 624 386 632 393 q 610 369 617 379 q 599 347 604 358 q 590 328 594 335 q 619 328 606 317 q 640 350 633 339 q 646 360 642 353 q 651 374 650 367 q 651 388 653 382 q 642 393 650 393 m 321 322 q 339 331 331 322 q 353 350 347 339 q 365 373 360 361 q 374 393 369 385 q 346 389 360 400 q 325 367 332 378 q 319 357 324 364 q 313 342 315 350 q 312 328 311 335 q 321 322 313 322 m 313 644 q 324 644 318 644 q 333 646 329 643 q 343 664 342 653 q 344 685 344 675 q 343 705 344 693 q 333 722 342 717 q 324 725 329 725 q 313 725 319 725 l 313 644 m 508 322 q 526 331 518 322 q 541 350 535 339 q 552 373 547 361 q 561 393 557 385 q 533 389 546 400 q 513 367 519 378 q 507 357 511 364 q 501 342 503 350 q 499 328 499 335 q 508 322 500 322 m 749 364 q 743 353 744 357 q 740 344 742 349 q 774 358 756 344 q 793 388 793 371 q 785 397 793 399 q 771 392 778 396 q 758 378 764 386 q 749 364 753 371 m 740 651 l 736 618 l 760 618 q 753 668 757 643 q 749 718 750 693 q 745 686 747 703 q 740 651 743 669 m 1685 556 q 1679 542 1685 547 q 1667 538 1674 538 q 1656 542 1661 538 q 1651 556 1651 547 q 1656 569 1651 564 q 1667 574 1661 574 q 1679 569 1674 574 q 1685 556 1685 564 m 926 428 q 910 421 921 418 q 903 435 900 424 q 910 442 904 440 q 920 443 915 444 q 927 438 925 442 q 926 428 929 433 m 454 428 q 440 421 450 418 q 432 435 429 424 q 438 442 433 440 q 448 443 443 444 q 456 438 453 442 q 454 428 458 433 m 1658 321 q 1642 315 1653 310 q 1638 329 1632 319 q 1653 335 1643 340 q 1658 321 1664 331 m 1686 385 q 1679 378 1683 379 q 1671 378 1675 376 q 1665 384 1667 381 q 1667 393 1664 388 q 1682 399 1672 403 q 1686 385 1692 394 z "},"\u0000":{"ha":0,"x_min":0,"x_max":0,"o":""},"\r":{"ha":694,"x_min":0,"x_max":0,"o":""}," ":{"ha":356,"x_min":0,"x_max":0,"o":""},"N":{"ha":833,"x_min":11,"x_max":964,"o":"m 364 715 q 399 777 382 756 q 439 811 415 799 l 479 825 l 479 832 q 413 823 443 829 q 351 800 382 817 q 288 756 321 783 q 217 682 256 728 q 188 724 196 700 q 182 774 179 749 q 200 823 185 800 q 240 863 215 846 q 322 892 276 886 q 413 892 368 899 q 497 869 457 886 q 560 831 536 853 l 581 810 l 601 308 l 579 168 l 586 161 q 682 408 642 303 q 749 589 722 514 q 792 714 776 664 q 816 795 808 764 q 824 844 824 826 q 819 872 824 861 q 901 882 863 888 q 956 844 940 876 q 964 809 964 828 q 960 770 964 790 q 948 731 956 750 q 932 696 940 713 l 597 0 l 478 0 l 465 690 l 410 519 l 167 0 q 90 -4 132 3 q 11 -21 47 -11 l 364 715 z "},"M":{"ha":1004,"x_min":10,"x_max":1192,"o":"m 363 715 q 399 777 382 756 q 438 811 415 799 l 478 825 l 478 832 q 411 823 442 829 q 350 800 381 817 q 287 756 319 783 q 215 682 254 728 q 186 724 194 700 q 181 774 178 749 q 199 823 185 800 q 239 863 214 846 q 321 892 275 886 q 411 892 367 899 q 495 869 456 886 q 558 831 535 853 l 596 793 l 560 389 l 514 308 l 515 306 l 1029 876 q 1065 874 1044 874 q 1109 877 1086 875 q 1153 882 1132 879 q 1192 889 1175 885 l 843 147 q 808 58 815 90 q 813 1 801 26 q 733 -6 772 -12 q 679 32 694 0 q 677 104 664 64 q 708 181 690 144 l 908 596 l 981 724 l 974 726 l 890 617 l 517 136 l 392 136 l 474 706 l 465 704 l 389 493 l 158 0 q 85 -4 124 3 q 10 -21 47 -11 l 363 715 z "},"L":{"ha":844,"x_min":3,"x_max":963,"o":"m 928 582 q 867 501 901 529 q 801 464 833 472 q 740 466 768 456 q 697 500 713 476 q 756 558 726 519 q 807 647 786 596 q 828 711 821 679 q 836 769 836 743 q 826 815 836 796 q 794 843 817 835 q 707 828 756 857 q 621 736 658 800 q 556 604 586 678 q 496 457 525 531 q 437 317 467 383 q 374 208 407 251 q 338 170 357 188 q 301 140 319 153 q 300 132 301 133 q 389 154 336 149 q 453 152 418 157 q 525 140 489 147 q 594 126 561 132 q 653 119 628 119 q 718 127 688 119 q 776 156 749 135 q 742 64 774 103 q 656 10 710 25 q 618 3 638 4 q 575 3 599 1 q 503 13 540 4 q 425 29 465 21 q 343 44 385 38 q 258 50 301 50 q 210 20 236 32 q 156 3 183 8 q 100 1 128 -1 q 50 15 72 4 q 10 56 18 32 q 15 102 3 79 q 54 142 26 125 q 121 161 82 158 q 179 161 150 165 q 228 149 208 157 q 286 278 260 206 q 340 427 313 351 q 398 578 367 503 q 469 714 429 653 q 599 842 525 797 q 757 889 674 886 q 873 867 826 892 q 941 798 919 842 q 960 698 963 754 q 928 582 957 642 z "},"K":{"ha":776,"x_min":31,"x_max":988,"o":"m 681 668 q 703 719 692 692 q 730 774 715 747 q 763 826 744 801 q 807 865 782 850 q 900 894 850 893 q 988 881 950 896 l 988 846 q 946 834 964 843 q 907 801 928 825 q 851 715 874 764 q 804 607 828 667 q 723 495 772 531 q 611 447 674 460 l 544 446 l 553 439 q 653 378 625 429 q 672 297 672 344 q 654 183 671 249 q 638 103 642 133 q 639 58 635 74 q 653 38 643 42 q 675 33 663 33 l 675 1 q 578 -10 626 -17 q 508 26 531 -4 q 485 110 485 57 q 514 257 485 163 q 401 453 572 447 l 189 0 q 113 -4 158 3 q 31 -21 67 -11 l 383 717 q 420 778 403 757 q 460 811 438 800 l 499 825 l 499 832 q 426 822 460 831 q 363 797 393 814 q 301 751 332 779 q 238 682 271 724 q 208 724 217 700 q 201 774 199 749 q 219 822 204 799 q 260 863 235 846 q 340 892 294 885 q 431 892 386 899 q 516 869 476 886 q 579 831 556 853 l 419 492 q 506 494 468 486 q 574 522 543 501 q 630 579 604 543 q 681 668 656 615 z "},"J":{"ha":688,"x_min":11,"x_max":850,"o":"m 271 307 q 206 252 236 288 q 154 175 175 217 q 126 56 121 108 q 174 -12 132 3 q 223 -17 197 -21 q 276 8 249 -12 q 331 68 303 29 q 390 169 360 107 l 658 721 q 694 780 676 758 q 731 813 711 801 l 768 821 l 768 828 q 660 826 718 831 q 544 806 603 822 q 433 762 486 790 q 340 686 379 733 q 311 727 319 704 q 306 774 303 750 q 322 820 308 799 q 358 858 335 842 q 456 893 393 883 q 589 899 518 903 q 729 876 660 894 q 850 828 799 858 l 528 142 q 367 -47 461 1 q 156 -54 272 -94 q 74 -7 107 -37 q 26 63 42 24 q 13 145 11 101 q 35 233 15 189 q 80 300 53 274 q 139 337 107 326 q 205 340 171 347 q 271 307 239 333 z "},"I":{"ha":440,"x_min":76,"x_max":571,"o":"m 115 181 q 210 376 171 294 q 277 514 250 457 q 322 606 304 571 q 349 663 339 642 q 365 697 360 685 q 374 717 369 708 q 412 778 393 757 q 451 811 431 800 l 492 825 l 492 832 q 420 822 453 829 q 357 797 388 814 q 295 753 326 781 q 229 682 264 725 q 199 724 208 700 q 194 774 190 749 q 212 822 197 799 q 253 863 226 844 q 333 893 288 886 q 424 894 379 900 q 508 870 469 888 q 571 831 547 853 l 251 147 q 217 58 224 90 q 221 1 210 26 q 140 -7 179 -12 q 85 32 100 -1 q 78 69 76 50 q 85 108 79 89 q 99 146 90 128 q 115 181 107 164 z "},"H":{"ha":838,"x_min":13,"x_max":1032,"o":"m 193 319 l 71 313 l 13 392 l 228 392 l 383 717 q 420 778 403 757 q 460 811 438 800 l 499 825 l 499 832 q 426 822 460 831 q 363 797 393 814 q 301 751 332 779 q 238 682 271 724 q 208 724 217 700 q 201 774 199 749 q 219 822 204 799 q 260 863 235 846 q 340 892 294 885 q 431 892 386 899 q 516 869 476 886 q 579 831 556 853 l 372 392 l 650 392 l 883 876 q 917 875 897 874 q 958 878 938 876 q 999 883 979 881 q 1032 889 1018 886 l 683 147 q 649 58 656 90 q 653 1 642 26 q 569 -6 608 -12 q 515 32 531 0 q 510 68 508 49 q 517 107 511 88 q 532 145 524 126 q 549 181 540 164 l 626 343 l 343 328 l 189 0 q 113 -4 158 3 q 31 -21 67 -11 l 193 319 z "},"G":{"ha":660,"x_min":15,"x_max":789,"o":"m 254 58 q 298 62 276 56 q 340 82 319 68 l 474 358 q 550 363 504 356 q 632 379 596 369 l 397 -110 q 363 -110 382 -108 q 322 -115 343 -111 q 278 -122 300 -118 q 239 -131 257 -126 l 297 -4 l 343 29 q 290 7 317 14 q 240 0 264 0 q 108 37 158 0 q 36 136 57 74 q 24 281 15 199 q 69 456 32 364 q 170 638 108 551 q 308 786 232 725 q 473 876 385 847 q 653 888 561 906 q 759 801 729 872 q 744 619 789 731 q 685 526 721 561 q 612 478 649 492 q 542 474 575 465 q 490 511 508 482 q 562 576 531 539 q 617 657 593 614 q 658 781 656 729 q 629 847 660 832 q 549 840 600 861 q 442 769 499 819 q 327 638 385 718 q 224 456 269 558 q 157 170 146 272 q 254 58 168 68 z "},"F":{"ha":674,"x_min":24,"x_max":944,"o":"m 233 263 q 186 217 207 249 q 159 163 169 192 q 147 110 149 135 q 152 65 144 85 q 179 36 160 44 q 244 40 211 21 q 300 111 276 60 l 444 408 l 128 392 l 69 471 l 475 471 l 550 626 q 590 698 571 671 q 632 736 610 725 l 678 743 l 678 751 q 553 760 615 754 q 433 765 490 767 q 324 751 375 764 q 233 703 272 738 q 212 744 217 721 q 212 791 207 768 q 231 834 217 814 q 268 867 246 854 q 358 891 303 888 q 476 890 413 894 q 608 876 540 885 q 738 863 676 867 q 885 889 818 904 q 930 864 915 882 q 941 826 944 846 q 917 788 938 806 q 858 761 897 769 q 805 753 832 756 q 751 750 778 751 l 618 471 l 833 471 l 833 429 l 592 415 l 461 143 q 397 47 433 83 q 321 -6 361 11 q 238 -22 281 -22 q 154 -10 196 -22 q 80 32 110 4 q 37 94 50 60 q 26 166 24 128 q 46 240 28 204 q 87 292 61 274 q 140 313 113 310 q 193 303 168 315 q 233 263 218 290 z "},"E":{"ha":710,"x_min":24,"x_max":851,"o":"m 633 115 q 581 76 613 96 q 510 40 549 56 q 429 13 472 24 q 343 0 386 1 q 188 17 254 -7 q 83 83 122 40 q 34 183 44 126 q 46 301 24 240 q 110 406 68 361 q 206 478 153 450 q 319 520 260 507 q 433 533 379 533 l 489 524 l 489 533 l 421 556 q 378 592 396 569 q 352 642 361 615 q 342 699 343 669 q 353 757 342 729 q 405 836 369 804 q 489 885 440 868 q 596 903 538 901 q 717 890 654 904 q 792 855 763 879 q 835 799 821 831 q 851 733 850 768 q 838 667 851 697 q 786 599 817 621 q 726 575 756 578 q 670 585 696 572 q 635 618 644 597 q 713 706 686 651 q 728 792 733 751 q 689 850 724 833 q 637 862 665 861 q 581 850 608 863 q 528 812 553 838 q 490 746 504 786 q 482 685 481 717 q 497 624 483 653 q 539 570 511 594 q 608 532 567 546 l 638 501 q 490 492 560 503 q 363 456 421 481 q 263 389 306 431 q 199 288 221 347 q 186 208 182 247 q 212 137 190 168 q 272 85 233 106 q 363 64 310 65 q 438 71 399 63 q 513 93 476 79 q 581 126 550 107 q 633 165 613 144 l 633 115 z "},"D":{"ha":956,"x_min":-1,"x_max":983,"o":"m 240 401 q 183 345 208 378 q 143 261 158 313 q 140 160 128 211 q 199 78 153 110 l 529 761 q 603 765 558 758 q 688 782 647 771 l 354 93 q 282 89 325 96 q 204 75 239 82 q 335 40 254 42 q 480 65 413 38 q 604 146 547 93 q 708 274 661 199 q 792 442 754 350 q 837 588 825 518 q 839 711 849 657 q 797 802 829 765 q 708 850 764 839 q 599 854 654 861 q 492 824 543 847 q 398 765 440 801 q 328 679 356 728 q 283 567 296 624 q 278 465 271 510 q 211 474 240 458 q 169 523 182 490 q 162 601 156 556 q 200 697 168 646 q 291 795 236 753 q 415 863 346 838 q 565 895 485 888 q 732 889 646 903 q 886 823 831 872 q 963 705 942 774 q 974 554 983 636 q 932 392 964 472 q 817 200 886 281 q 663 69 747 119 q 482 1 578 19 q 289 -3 386 -17 q 141 42 200 10 q 49 117 82 74 q 7 207 15 160 q 11 296 -1 254 q 48 364 24 336 q 103 405 72 392 q 170 418 135 418 q 240 401 206 418 z "},"C":{"ha":626,"x_min":22,"x_max":776,"o":"m 529 115 q 402 28 471 57 q 272 0 333 0 q 130 35 186 0 q 48 131 74 69 q 27 275 22 192 q 69 456 32 358 q 165 632 104 547 q 301 778 225 717 q 467 870 378 839 q 650 888 556 901 q 721 856 692 879 q 763 797 750 832 q 772 715 776 761 q 744 615 768 669 q 681 522 718 557 q 607 475 644 488 q 537 473 569 463 q 486 514 504 483 q 570 583 535 543 q 629 668 606 624 q 654 727 646 699 q 663 780 663 756 q 656 822 664 804 q 629 847 647 839 q 547 840 599 860 q 436 769 494 819 q 320 640 378 719 q 221 456 263 561 q 175 290 185 361 q 176 171 165 219 q 217 96 188 122 q 289 65 247 69 q 419 90 356 58 q 529 167 482 121 l 529 115 z "},"B":{"ha":919,"x_min":11,"x_max":989,"o":"m 249 401 q 192 344 217 375 q 151 263 167 314 q 145 224 146 246 q 150 180 144 203 q 169 133 156 157 q 204 90 182 110 l 529 761 q 603 765 558 758 q 688 782 647 771 l 551 500 l 575 496 q 739 526 668 483 q 840 654 810 568 q 833 780 867 728 q 710 849 799 832 q 599 855 656 861 q 492 827 543 849 q 397 768 440 806 q 322 679 353 731 q 269 472 263 575 q 203 484 231 467 q 164 533 175 501 q 159 609 153 565 q 194 699 165 653 q 283 794 229 753 q 406 861 336 836 q 558 894 475 886 q 732 889 640 901 q 860 853 808 878 q 941 797 911 829 q 980 725 971 764 q 981 646 989 686 q 910 523 965 572 q 776 454 856 474 l 707 454 l 714 449 q 792 417 761 442 q 839 358 824 393 q 854 283 854 324 q 838 201 854 242 q 755 87 810 135 q 626 13 700 39 q 465 -19 551 -14 q 289 -3 378 -24 q 144 50 201 15 q 56 127 88 85 q 18 215 25 169 q 24 300 11 260 q 63 367 38 340 q 118 408 88 394 q 183 419 149 421 q 249 401 217 418 m 354 93 q 292 90 329 96 q 221 78 254 85 q 335 39 265 47 q 451 42 396 32 q 553 78 507 53 q 633 142 599 104 q 688 228 667 181 q 705 306 704 267 q 690 378 706 346 q 640 432 674 410 q 557 458 607 454 q 544 459 550 458 q 532 460 538 460 l 354 93 z "},"Z":{"ha":697,"x_min":3,"x_max":853,"o":"m 853 860 q 579 564 714 706 q 460 439 522 503 q 338 315 399 375 q 222 200 278 254 q 119 106 165 146 l 125 100 q 184 140 154 119 q 250 165 214 161 q 310 164 278 168 q 374 153 342 160 q 438 139 406 146 q 497 132 469 132 q 621 168 564 132 q 607 110 619 140 q 571 56 594 81 q 512 16 547 32 q 429 0 476 0 q 336 12 382 0 q 242 31 290 24 q 142 35 194 39 q 28 0 89 31 l 3 31 l 739 800 l 733 806 q 701 781 719 793 q 662 757 682 768 q 620 738 642 746 q 581 728 599 731 q 519 727 549 724 q 460 735 489 731 q 403 744 431 740 q 347 744 375 747 q 275 727 303 742 q 233 693 247 713 q 228 761 224 728 q 250 822 233 794 q 294 867 267 849 q 358 889 322 885 q 462 881 408 894 q 572 858 515 868 q 692 850 629 847 q 824 889 754 853 l 853 860 z "},"Y":{"ha":649,"x_min":100,"x_max":826,"o":"m 331 361 q 299 367 314 364 q 275 376 285 369 q 233 421 247 393 q 217 484 219 449 q 222 558 215 519 q 244 635 229 597 q 267 687 253 660 q 299 739 282 714 q 335 783 317 764 q 367 811 353 803 l 407 825 l 407 832 q 339 823 371 829 q 275 800 307 817 q 210 755 243 783 q 140 682 178 726 q 110 724 119 700 q 104 772 101 747 q 122 821 107 797 q 163 863 136 844 q 246 892 199 886 q 340 892 293 899 q 426 867 386 885 q 490 828 467 850 q 429 719 457 769 q 388 636 401 669 q 356 553 369 593 q 335 482 342 514 q 329 428 328 450 q 344 400 331 406 q 393 408 361 392 q 463 457 425 424 q 541 538 501 490 q 613 642 581 586 q 665 757 646 697 q 683 876 685 817 q 724 888 700 885 q 769 885 747 892 q 806 862 790 879 q 825 811 822 844 q 798 699 826 765 q 719 569 769 633 q 604 451 669 504 q 468 376 539 399 q 451 372 460 374 q 431 367 442 369 l 258 0 q 182 -4 228 3 q 100 -21 136 -11 l 276 351 l 331 361 z "},"X":{"ha":788,"x_min":8,"x_max":946,"o":"m 392 685 q 432 759 406 725 q 486 811 458 793 l 526 825 l 526 832 q 458 823 490 829 q 394 800 426 817 q 330 755 363 783 q 260 682 297 726 q 230 724 239 700 q 224 772 221 747 q 241 821 226 797 q 282 863 256 844 q 365 892 318 886 q 459 892 413 899 q 546 867 506 885 q 610 828 586 850 q 559 740 576 769 q 535 686 542 710 q 493 551 500 599 q 510 493 486 504 q 555 495 526 486 q 617 527 583 504 q 684 585 650 550 q 745 666 718 621 q 788 764 772 711 q 803 876 804 817 q 843 888 819 885 q 888 885 867 892 q 926 862 910 879 q 944 811 942 844 q 924 714 946 765 q 861 615 903 663 q 762 529 819 568 q 633 469 704 490 q 691 384 686 446 q 643 218 696 322 q 605 135 618 169 q 588 76 592 101 q 590 33 585 51 q 604 1 594 15 q 514 -8 554 -17 q 457 32 474 0 q 449 115 440 67 q 497 240 457 164 q 540 329 525 293 q 560 388 556 365 q 557 423 564 411 q 532 440 550 435 q 468 438 507 451 q 387 394 429 425 q 301 316 344 363 q 224 213 258 269 q 170 92 190 157 q 151 -37 150 28 q 98 -47 125 -49 q 50 -31 71 -46 q 19 11 29 -17 q 15 82 8 39 q 63 205 25 144 q 159 317 101 265 q 290 408 217 368 q 440 469 363 449 q 374 553 386 496 q 392 685 363 610 z "},"W":{"ha":1050,"x_min":15,"x_max":1176,"o":"m 538 201 q 497 95 507 136 q 514 47 488 54 q 572 62 536 40 q 652 128 608 83 q 744 235 696 172 q 839 375 792 299 q 929 538 886 451 q 1006 713 972 624 q 1035 802 1024 760 q 1047 881 1046 844 q 1119 886 1090 894 q 1162 854 1147 878 q 1176 795 1176 831 q 1163 719 1176 760 q 1096 567 1139 649 q 998 406 1053 486 q 879 251 943 325 q 749 122 815 178 q 618 31 683 65 q 496 -3 553 -3 q 444 8 464 -3 q 415 37 425 19 q 403 75 406 54 q 406 115 401 96 q 421 185 408 157 q 453 251 433 213 l 444 254 q 304 69 376 132 q 169 0 232 6 q 86 11 124 -7 q 32 76 49 29 q 28 201 15 122 q 96 394 40 279 q 166 515 125 453 q 253 633 207 576 q 345 735 299 689 q 429 811 392 782 l 469 825 l 469 832 q 402 823 433 829 q 340 800 371 817 q 276 756 308 783 q 207 682 244 728 q 178 724 186 700 q 172 772 169 747 q 190 822 175 797 q 231 863 204 846 q 313 892 265 885 q 409 892 361 899 q 499 867 457 886 q 567 822 542 849 q 478 734 526 786 q 385 622 431 682 q 298 499 339 561 q 232 381 257 436 q 179 245 197 306 q 158 143 161 185 q 168 81 156 101 q 208 67 181 61 q 290 117 247 75 q 374 223 332 160 q 459 365 417 286 q 542 525 501 443 l 706 857 q 780 858 736 853 q 854 869 824 863 l 538 201 z "},"V":{"ha":758,"x_min":8,"x_max":903,"o":"m 188 226 q 156 160 171 190 q 133 105 140 129 q 129 64 126 81 q 149 42 132 47 q 217 54 174 32 q 314 122 261 76 q 425 233 367 168 q 540 376 483 299 q 647 540 597 454 q 732 713 696 626 q 762 801 751 758 q 774 881 772 844 q 845 886 817 894 q 888 854 874 878 q 903 795 903 831 q 889 719 903 760 q 817 568 865 649 q 707 407 769 488 q 570 252 644 326 q 421 121 496 178 q 273 30 346 64 q 139 -4 200 -4 q 56 17 85 -4 q 17 72 26 38 q 18 151 8 107 q 50 242 28 196 l 278 717 q 315 778 297 757 q 353 811 332 800 l 393 825 l 393 832 q 320 822 353 831 q 256 797 288 814 q 194 751 225 779 q 131 682 164 724 q 101 724 110 700 q 96 774 93 749 q 114 822 99 799 q 154 863 129 846 q 235 892 189 885 q 326 892 281 899 q 410 869 371 886 q 474 831 450 853 l 188 226 z "},"U":{"ha":768,"x_min":24,"x_max":954,"o":"m 606 147 q 571 58 578 90 q 575 1 564 26 q 493 -6 533 -12 q 439 32 453 0 q 433 80 428 56 q 447 128 438 104 l 483 197 l 539 288 l 536 293 l 506 253 q 326 67 410 125 q 178 0 242 8 q 94 10 132 -7 q 40 75 57 28 q 36 201 24 122 q 104 394 49 279 q 174 515 133 453 q 261 633 215 576 q 353 735 307 689 q 438 811 400 782 l 478 825 l 478 832 q 410 823 442 829 q 348 800 379 817 q 285 756 317 783 q 215 682 253 728 q 186 724 194 700 q 181 772 178 747 q 198 822 183 797 q 239 863 213 846 q 322 892 274 885 q 417 892 369 899 q 508 867 465 886 q 575 822 550 849 q 490 735 535 786 q 401 625 444 683 q 319 506 357 567 q 254 389 281 444 q 201 253 219 314 q 181 151 183 193 q 192 90 179 110 q 232 75 204 69 q 326 128 271 83 q 438 241 381 174 q 551 390 496 308 q 646 553 606 471 l 806 876 q 839 874 819 874 q 878 877 858 875 q 919 883 899 879 q 954 889 939 886 l 606 147 z "},"T":{"ha":690,"x_min":13,"x_max":933,"o":"m 228 288 q 211 276 221 285 q 191 254 201 267 q 170 228 181 242 q 154 201 160 214 q 133 147 140 174 q 125 99 125 121 q 134 60 125 76 q 164 35 143 43 q 231 40 197 21 q 289 111 265 60 l 539 626 q 579 698 560 671 q 621 736 599 725 l 667 743 l 667 751 q 542 760 604 754 q 422 765 479 767 q 313 751 364 764 q 222 703 261 738 q 201 744 206 721 q 201 791 196 768 q 220 834 206 814 q 257 867 235 854 q 347 891 292 888 q 465 890 401 894 q 597 876 529 885 q 726 863 665 867 q 874 889 807 904 q 919 864 904 882 q 930 826 933 846 q 906 788 926 806 q 847 761 886 769 q 794 753 821 756 q 740 750 767 751 l 450 143 q 386 47 422 83 q 310 -6 350 11 q 227 -22 269 -22 q 143 -10 185 -22 q 67 37 96 7 q 25 103 38 67 q 16 179 13 139 q 38 257 19 219 q 82 313 56 293 q 137 338 108 333 q 190 329 165 342 q 228 288 214 317 z "},"S":{"ha":749,"x_min":18,"x_max":865,"o":"m 653 614 q 735 699 708 643 q 751 780 754 739 q 711 839 747 821 q 664 851 690 850 q 612 842 638 851 q 564 813 586 833 q 528 761 542 793 q 519 640 506 706 q 594 494 532 574 q 654 385 638 440 q 666 276 671 329 q 635 174 661 222 q 568 85 610 125 q 480 24 531 46 q 375 -5 429 1 q 267 -2 321 -11 q 171 32 214 7 q 87 100 119 63 q 38 180 54 138 q 19 267 21 222 q 29 356 18 311 q 88 474 47 426 q 172 535 128 522 q 241 537 204 544 q 297 503 278 529 q 219 436 253 478 q 163 332 186 394 q 144 256 149 294 q 148 181 140 217 q 176 114 156 144 q 231 63 196 83 q 301 36 263 42 q 376 39 339 31 q 447 68 414 47 q 504 122 481 89 q 536 195 529 158 q 536 268 543 232 q 510 340 529 304 q 464 413 490 376 q 383 599 392 510 q 414 765 374 688 q 472 838 436 808 q 552 882 508 867 q 644 897 596 897 q 739 879 692 896 q 817 831 789 860 q 855 767 844 801 q 860 698 865 733 q 839 632 856 663 q 791 578 819 596 q 735 560 763 561 q 685 572 708 558 q 653 614 663 586 z "},"R":{"ha":769,"x_min":28,"x_max":850,"o":"m 507 238 q 510 379 536 336 q 392 425 483 422 l 186 0 q 108 -5 154 1 q 28 -21 63 -11 l 406 761 q 481 765 436 758 q 564 782 526 771 l 410 464 l 432 460 q 522 464 479 453 q 599 499 564 475 q 660 557 633 522 q 701 635 686 592 q 712 706 714 671 q 693 769 710 740 q 646 819 676 799 q 571 849 615 840 q 463 855 517 861 q 360 827 408 849 q 269 768 311 806 q 197 679 228 731 q 146 472 138 575 q 78 484 106 467 q 39 533 50 501 q 34 609 28 565 q 69 699 40 653 q 274 861 140 808 q 593 889 408 914 q 721 849 669 878 q 801 783 772 821 q 840 701 831 744 q 842 618 850 658 q 769 492 826 544 q 635 419 713 439 l 538 421 l 546 414 q 607 392 582 408 q 647 350 632 375 q 665 276 667 317 q 646 169 663 235 q 631 92 633 119 q 635 51 629 64 q 651 35 640 38 q 675 33 663 33 l 675 1 q 578 -10 626 -17 q 508 26 531 -4 q 490 59 497 42 q 481 100 482 76 q 486 157 481 124 q 507 238 492 190 z "},"Q":{"ha":767,"x_min":24,"x_max":806,"o":"m 624 889 q 730 849 688 883 q 789 755 772 814 q 796 615 806 696 q 744 436 786 533 q 617 216 692 307 q 471 79 543 125 q 517 -4 490 31 q 588 -49 544 -39 q 530 -112 568 -93 q 451 -121 492 -132 q 383 -74 413 -111 q 338 29 353 -36 q 287 7 318 18 q 217 -1 256 -4 q 83 49 126 3 q 32 164 40 94 q 44 318 24 233 q 101 486 64 403 q 195 649 140 574 q 317 781 250 725 q 461 865 383 836 q 624 889 539 894 m 614 846 q 549 840 586 851 q 465 786 511 828 q 366 668 419 744 q 253 469 313 592 q 202 356 236 433 q 133 181 168 278 l 138 175 q 198 257 160 226 q 278 292 236 288 q 362 274 321 297 q 432 196 403 251 q 517 315 478 249 q 593 460 557 381 q 656 626 636 556 q 677 743 676 696 q 660 815 678 790 q 614 846 643 840 m 326 76 q 300 165 319 135 q 258 203 281 194 q 212 203 235 211 q 175 181 189 196 q 153 138 157 160 q 153 97 149 115 q 171 65 158 78 q 199 46 183 51 q 267 46 232 35 q 326 76 303 57 z "},"P":{"ha":803,"x_min":28,"x_max":871,"o":"m 160 472 q 95 482 122 465 q 55 528 68 499 q 46 599 42 558 q 75 682 50 640 q 157 780 106 735 q 276 854 208 825 q 428 894 344 883 q 608 889 511 904 q 763 831 706 872 q 845 733 819 789 q 868 615 871 678 q 843 492 865 551 q 751 344 810 404 q 618 253 692 285 q 463 218 544 221 q 303 242 382 215 l 186 0 q 108 -5 154 1 q 28 -21 63 -11 l 406 761 q 481 765 436 758 q 564 782 526 771 l 319 278 q 415 272 364 267 q 517 303 467 276 q 615 383 568 331 q 694 519 661 435 q 725 640 721 583 q 714 740 729 697 q 665 812 699 783 q 585 849 632 840 q 478 852 532 860 q 374 822 424 844 q 282 763 324 800 q 213 679 240 726 q 170 578 183 628 q 160 472 157 528 z "},"n":{"ha":611,"x_min":-119,"x_max":653,"o":"m 136 535 q 210 537 167 529 q 294 556 254 544 l 258 482 l 200 411 l 204 404 q 351 527 276 492 q 481 557 426 563 q 561 490 546 550 q 551 399 572 447 q 492 282 529 350 q 444 198 465 236 q 413 132 424 160 q 404 88 403 104 q 424 72 406 72 q 468 90 443 72 q 520 134 493 107 q 573 195 547 161 q 619 263 599 229 l 653 243 q 581 146 615 190 q 510 69 546 101 q 437 18 474 36 q 358 0 400 0 q 289 28 318 0 q 263 106 260 57 q 285 184 264 142 q 339 279 307 226 q 397 383 376 342 q 423 449 418 425 q 419 483 428 474 q 390 490 411 492 q 347 472 374 489 q 285 421 319 456 q 208 331 250 386 q 124 199 167 276 l 28 0 l -119 0 l 136 535 z "},"m":{"ha":906,"x_min":-119,"x_max":947,"o":"m 483 283 l 483 282 l 346 0 l 199 0 l 331 279 q 366 347 346 308 q 398 417 386 385 q 409 472 410 450 q 382 490 408 493 q 340 473 365 489 q 280 422 314 457 q 206 333 246 388 q 124 199 167 278 l 28 0 l -119 0 l 136 535 q 210 537 167 529 q 294 556 254 544 l 258 482 l 200 413 l 204 406 q 347 528 275 493 q 472 557 418 563 q 528 532 508 554 q 551 476 549 510 l 518 422 l 521 418 q 654 529 588 497 q 774 558 721 561 q 854 490 843 554 q 844 395 864 442 q 785 282 824 349 q 739 201 760 239 q 708 134 718 163 q 699 89 697 106 q 718 72 700 72 q 762 90 736 72 q 814 134 788 107 q 867 195 840 161 q 914 263 893 229 l 947 243 q 874 146 910 190 q 803 69 839 101 q 731 18 768 36 q 653 0 693 0 q 584 28 613 0 q 558 104 556 56 q 581 185 561 144 q 633 279 601 226 q 690 383 671 342 q 715 449 710 425 q 713 483 721 474 q 683 490 704 492 q 604 442 656 488 q 485 285 553 396 l 483 283 z "},"l":{"ha":294,"x_min":-56,"x_max":440,"o":"m -51 115 q -17 216 -44 160 q 43 338 11 272 l 281 821 q 359 826 314 818 q 440 847 404 833 l 125 206 q 90 112 96 146 q 108 74 85 78 q 189 113 136 67 q 303 263 242 158 l 336 243 q 269 149 303 193 q 201 71 236 104 q 126 18 165 38 q 42 -1 88 -1 q 1 6 21 -1 q -31 28 -18 14 q -50 65 -44 43 q -51 115 -56 86 z "},"k":{"ha":567,"x_min":-119,"x_max":608,"o":"m 275 826 q 349 830 304 824 q 433 847 394 836 l 168 293 l 122 250 l 125 246 q 228 323 172 285 q 332 399 285 361 q 410 476 379 438 q 439 551 440 514 q 480 560 458 558 q 519 557 501 563 q 548 539 536 551 q 560 504 560 526 q 542 451 560 476 q 491 403 524 425 q 413 365 458 382 q 313 339 367 349 l 303 333 q 375 324 344 338 q 414 283 406 311 q 416 239 421 260 q 401 199 411 218 q 380 159 392 179 q 361 118 368 139 q 362 86 354 99 q 388 75 369 74 q 429 91 406 75 q 478 133 453 107 q 528 193 503 160 q 575 263 553 226 l 608 243 q 539 149 572 193 q 471 72 506 104 q 399 19 436 39 q 321 0 363 0 q 247 26 274 0 q 224 101 221 53 q 238 153 226 129 q 260 197 249 176 q 277 232 271 217 q 276 260 283 247 q 251 270 269 271 q 208 257 233 269 q 156 219 183 244 q 103 157 128 194 l 28 0 l -119 0 l 275 826 z "},"j":{"ha":272,"x_min":-376,"x_max":397,"o":"m 139 529 q 216 533 171 526 q 299 556 261 540 l 40 40 q 12 -13 25 11 q -14 -58 -1 -37 q 67 10 25 -28 q 149 91 110 49 q 223 177 189 133 q 281 263 257 221 l 314 244 q 227 127 279 188 q 119 13 175 67 q 11 -83 64 -42 q -79 -142 -42 -125 l -104 -162 q -208 -208 -149 -199 q -317 -190 -268 -217 q -353 -162 -339 -179 q -372 -126 -367 -144 q -373 -93 -376 -108 q -357 -71 -369 -78 q -330 -68 -343 -64 q -308 -85 -317 -72 q -294 -118 -299 -99 q -293 -162 -289 -137 q -256 -163 -274 -168 q -217 -137 -237 -158 q -171 -77 -196 -117 q -114 26 -146 -37 l 139 529 m 379 697 q 322 647 360 660 q 249 650 283 633 q 201 704 211 669 q 211 775 190 739 q 269 822 231 811 q 342 817 307 833 q 387 763 376 797 q 379 697 397 729 z "},"i":{"ha":296,"x_min":-60,"x_max":397,"o":"m -51 115 q -17 216 -46 160 q 43 338 11 272 l 139 529 q 218 533 174 526 q 299 556 263 540 l 125 206 q 114 74 63 74 q 194 117 146 74 q 303 263 243 160 l 336 243 q 274 153 306 197 q 207 75 243 110 q 129 19 171 40 q 36 -1 88 -1 q -31 27 -1 -1 q -51 115 -60 56 m 379 697 q 322 647 360 660 q 249 650 283 633 q 201 704 211 669 q 211 775 190 739 q 269 822 231 811 q 342 817 307 833 q 387 763 376 797 q 379 697 397 729 z "},"h":{"ha":611,"x_min":-119,"x_max":653,"o":"m 275 826 q 350 830 307 824 q 433 847 393 836 l 260 483 l 199 407 l 203 401 q 351 528 275 492 q 481 557 426 564 q 561 490 546 550 q 551 399 572 447 q 492 282 529 350 q 444 198 465 236 q 413 132 424 160 q 404 88 403 104 q 424 72 406 72 q 468 90 443 72 q 520 134 493 107 q 573 195 547 161 q 619 263 599 229 l 653 243 q 581 146 615 190 q 510 69 546 101 q 437 18 474 36 q 358 0 400 0 q 289 28 318 0 q 263 106 260 57 q 285 184 264 142 q 339 279 307 226 q 397 383 376 342 q 423 449 418 425 q 419 483 428 474 q 390 490 411 492 q 346 472 374 489 q 283 419 318 456 q 206 327 247 383 q 119 190 164 271 l 28 0 l -119 0 l 275 826 z "},"g":{"ha":593,"x_min":-81,"x_max":635,"o":"m -12 -183 q -56 -147 -40 -167 q -76 -108 -71 -126 q -76 -76 -81 -90 q -60 -54 -72 -61 q -33 -50 -47 -47 q -7 -65 -18 -53 q 10 -99 4 -78 q 11 -150 15 -121 q 92 -149 44 -171 q 178 -47 140 -126 l 244 85 l 286 143 l 281 143 l 261 125 q 197 78 233 97 q 118 63 161 60 q 41 90 72 64 q -1 158 10 115 q 1 258 -11 201 q 54 376 13 314 q 148 481 97 440 q 251 540 199 522 q 353 555 303 558 q 447 529 403 551 q 528 510 486 508 q 614 531 569 513 l 363 40 l 311 -53 q 392 16 350 -22 q 473 96 435 54 q 544 180 511 138 q 601 263 578 222 l 635 244 q 551 131 601 190 q 445 19 500 72 q 337 -77 390 -35 q 244 -140 283 -119 q 174 -190 213 -172 q 131 -203 154 -199 q 82 -208 107 -208 q 33 -202 57 -208 q -12 -183 8 -196 m 172 126 q 260 173 214 126 q 357 319 307 219 l 443 492 q 313 488 382 524 q 181 343 244 451 q 135 250 149 290 q 123 183 122 210 q 138 141 124 156 q 172 126 151 126 z "},"f":{"ha":290,"x_min":-235,"x_max":592,"o":"m 574 726 q 549 720 563 719 q 525 729 536 721 q 508 753 514 738 q 508 794 503 769 q 440 788 476 804 q 376 728 404 772 q 346 669 360 701 q 321 610 332 638 l 425 610 l 396 556 l 294 556 l -75 -207 q -150 -210 -104 -204 q -235 -228 -196 -217 l 150 556 l 49 556 l 79 610 l 178 610 q 251 749 210 696 q 351 828 293 801 q 394 840 369 836 q 443 844 418 844 q 492 839 468 844 q 538 822 517 833 q 585 769 579 799 q 574 726 592 739 z "},"e":{"ha":560,"x_min":-17,"x_max":600,"o":"m 218 43 q 301 56 254 43 q 397 94 349 68 q 489 163 444 121 q 567 263 533 204 l 600 243 q 525 146 569 190 q 428 69 481 101 q 315 19 375 38 q 194 0 256 0 q 73 27 121 0 q 4 99 25 54 q -10 204 -17 144 q 33 331 -3 264 q 117 442 69 396 q 217 515 165 488 q 322 551 269 542 q 419 556 374 561 q 483 533 458 551 q 518 488 507 514 q 526 428 529 461 q 507 363 524 396 q 443 274 483 314 q 352 208 403 235 q 242 169 301 182 q 124 158 183 156 q 143 74 118 104 q 218 43 168 43 m 176 307 q 129 189 140 242 q 266 246 200 196 q 382 383 332 296 q 414 476 415 440 q 393 515 413 511 q 303 475 363 525 q 176 307 243 425 z "},"d":{"ha":624,"x_min":-29,"x_max":778,"o":"m 50 347 q 147 463 96 415 q 253 534 199 511 q 361 556 307 557 q 465 525 415 554 l 607 818 q 689 823 639 815 q 778 847 739 831 q 740 774 767 826 q 679 652 714 721 q 606 508 644 583 q 535 367 568 432 q 478 254 501 301 q 450 197 456 207 q 418 106 419 138 q 440 74 417 74 q 520 116 471 74 q 632 263 569 158 l 665 243 q 608 161 639 204 q 540 82 576 118 q 460 22 503 46 q 368 -1 417 -1 q 304 22 331 -1 q 279 90 278 46 l 297 132 l 293 132 l 281 114 q 196 27 239 54 q 101 0 153 0 q 21 28 53 0 q -20 103 -11 56 q -12 214 -29 151 q 50 347 4 276 m 149 65 q 250 133 199 65 q 363 319 301 200 l 450 492 q 386 501 421 507 q 315 471 351 494 q 244 407 279 447 q 175 314 208 367 q 122 210 139 256 q 103 132 106 164 q 113 83 101 100 q 149 65 125 65 z "},"c":{"ha":549,"x_min":-18,"x_max":589,"o":"m 221 43 q 303 56 258 43 q 394 94 349 68 q 481 163 439 121 q 556 263 522 204 l 589 243 q 515 144 557 189 q 422 68 472 100 q 315 18 372 36 q 197 0 257 0 q 74 26 122 0 q 3 98 25 53 q -11 203 -18 143 q 35 331 -4 263 q 119 441 71 396 q 219 513 167 486 q 323 551 271 540 q 419 556 375 561 q 484 533 460 550 q 519 490 508 515 q 528 435 529 465 q 515 375 526 404 q 479 313 501 340 q 429 267 457 285 q 368 246 401 250 q 300 254 335 242 q 348 327 324 289 q 388 393 372 365 q 419 481 419 453 q 400 515 419 508 q 359 511 383 521 q 304 475 335 501 q 241 407 274 449 q 175 307 208 365 q 123 117 110 190 q 221 43 136 43 z "},"b":{"ha":614,"x_min":-50,"x_max":656,"o":"m 281 826 q 356 830 311 824 q 439 847 401 836 l 282 526 l 226 454 l 229 451 l 267 490 q 331 538 294 521 q 406 556 368 556 q 490 530 456 556 q 535 458 524 504 q 532 349 546 413 q 472 208 518 285 q 444 167 458 186 q 415 129 431 147 q 527 158 469 124 q 622 263 585 193 l 656 243 q 524 114 600 151 q 372 88 449 76 q 213 8 296 21 q 67 28 131 -6 q 38 46 54 33 q 6 74 22 58 q -26 108 -11 89 q -50 149 -40 128 l 281 826 m 364 496 q 267 442 318 496 q 156 263 217 389 l 63 72 q 128 60 92 54 q 203 88 165 65 q 278 151 242 111 q 343 242 314 190 q 412 426 408 358 q 364 496 415 494 z "},"z":{"ha":531,"x_min":-67,"x_max":585,"o":"m 585 517 l 65 94 l 71 89 q 124 124 94 106 q 188 146 153 142 q 237 143 215 149 q 277 130 258 138 q 315 115 296 122 q 360 107 335 107 q 456 152 408 107 q 539 263 503 197 l 572 243 q 517 161 546 204 q 453 83 489 118 q 375 24 418 47 q 278 0 332 0 q 196 12 231 0 q 127 31 161 24 q 52 35 93 39 q -50 0 11 31 l -67 33 l 467 471 l 461 478 q 415 447 440 463 q 363 425 390 431 q 317 426 342 421 q 269 439 293 432 q 223 450 246 446 q 179 447 200 454 q 143 418 160 440 q 109 365 126 396 q 71 294 92 333 q 24 217 50 256 l -8 235 q 43 326 18 274 q 97 428 68 379 q 163 513 126 476 q 247 556 199 549 q 328 553 294 561 q 397 536 363 544 q 472 528 432 528 q 569 556 511 529 l 585 517 z "},"y":{"ha":597,"x_min":-83,"x_max":639,"o":"m 236 -144 q 181 -187 210 -169 q 119 -211 151 -204 q 53 -213 88 -218 q -15 -189 19 -208 q -60 -151 -44 -172 q -79 -108 -75 -129 q -77 -72 -83 -87 q -58 -50 -71 -56 q -10 -70 -32 -40 q 8 -156 13 -100 q 47 -165 26 -164 q 90 -157 68 -167 q 133 -124 111 -147 q 175 -58 154 -100 l 258 113 l 297 165 l 292 165 q 174 70 233 101 q 71 40 115 39 q 13 56 38 40 q -22 98 -11 71 q -29 163 -33 125 q -1 247 -25 201 l 138 529 q 215 533 171 526 q 297 556 258 540 l 143 243 q 113 149 113 178 q 140 117 113 119 q 176 125 154 115 q 224 156 197 135 q 278 208 250 176 q 332 279 306 239 l 333 281 l 467 546 q 540 547 499 543 q 618 556 582 550 l 340 1 q 306 -58 322 -32 q 389 10 346 -28 q 472 91 432 49 q 547 177 513 133 q 606 263 582 221 l 639 244 q 549 125 603 188 q 438 8 496 63 q 326 -88 381 -47 q 236 -144 272 -129 z "},"x":{"ha":546,"x_min":-61,"x_max":588,"o":"m 142 558 q 270 553 219 578 q 325 446 321 528 q 324 392 326 421 q 319 333 322 364 q 392 395 365 361 q 433 463 419 429 q 448 528 447 497 q 443 579 449 558 q 484 592 461 588 q 528 592 507 596 q 563 574 549 589 q 578 526 578 558 q 558 461 576 494 q 505 397 539 428 q 423 338 471 365 q 314 289 375 310 q 306 206 310 246 q 306 134 303 165 q 323 85 310 103 q 364 69 336 67 q 408 86 385 69 q 456 129 431 103 q 506 190 481 156 q 554 263 531 225 l 588 243 q 501 126 544 183 q 406 32 458 68 q 347 4 378 13 q 286 0 315 -4 q 232 22 257 4 q 193 71 207 39 q 176 145 178 103 q 178 232 175 188 q 154 221 167 228 q 77 151 97 193 q 57 65 57 108 q 86 -28 58 8 q 47 -42 67 -39 q 8 -42 26 -46 q -26 -28 -11 -39 q -47 3 -40 -17 q -48 78 -61 40 q -7 148 -35 115 q 57 207 21 181 q 125 249 93 233 q 182 274 151 263 q 191 341 186 308 q 199 404 196 374 q 195 479 201 453 q 161 504 189 506 q 140 438 156 476 q 103 357 124 399 q 63 278 83 315 q 25 217 42 240 l -7 235 q 38 319 18 281 q 76 394 58 357 q 109 470 93 431 q 142 558 125 510 z "},"w":{"ha":825,"x_min":-51,"x_max":867,"o":"m 371 47 q 422 62 390 40 q 487 126 453 83 q 556 231 521 169 q 619 363 592 292 q 651 456 638 406 q 669 550 664 507 q 739 554 713 563 q 776 519 765 546 q 783 452 788 493 q 760 360 778 411 q 701 240 738 300 q 618 131 665 181 q 735 156 675 121 q 833 263 794 190 l 867 243 q 731 112 808 147 q 575 89 654 76 q 475 22 528 47 q 368 -3 422 -3 q 272 30 306 -3 q 236 119 238 63 q 149 28 192 57 q 58 0 106 0 q -1 15 24 0 q -39 58 -26 31 q -48 123 -51 85 q -22 207 -44 161 l 138 529 q 213 535 174 528 q 289 556 253 542 l 114 203 q 86 110 82 142 q 118 79 90 78 q 190 126 153 79 q 272 251 228 174 l 410 529 q 483 533 442 526 q 563 556 525 540 l 386 200 q 347 85 346 118 q 371 47 347 53 z "},"v":{"ha":572,"x_min":-37,"x_max":614,"o":"m 104 47 q 162 61 126 39 q 235 127 197 83 q 310 232 274 171 q 369 363 346 293 q 395 456 385 407 q 406 547 406 504 q 479 553 450 561 q 522 520 508 546 q 534 453 536 494 q 513 360 532 411 q 451 240 490 300 q 363 131 413 181 q 480 154 419 119 q 581 263 540 189 l 614 243 q 476 111 556 147 q 318 89 397 75 q 212 22 267 47 q 101 -3 157 -3 q 24 15 56 -3 q -22 66 -7 33 q -33 144 -37 99 q -4 243 -29 189 l 138 529 q 211 533 169 526 q 290 556 253 540 l 114 200 q 85 131 93 158 q 76 85 76 103 q 84 59 76 68 q 104 47 92 50 z "},"u":{"ha":613,"x_min":-50,"x_max":654,"o":"m 297 153 q 174 39 236 76 q 61 0 111 1 q 1 15 26 0 q -37 56 -25 29 q -47 122 -50 83 q -22 207 -44 161 l 138 529 q 217 535 174 528 q 297 556 261 542 l 122 203 q 94 113 93 144 q 124 78 94 81 q 165 87 142 75 q 215 121 189 99 q 267 176 240 143 q 319 249 294 208 l 361 338 l 465 546 q 537 547 497 544 q 617 556 576 550 l 443 206 q 431 71 381 75 q 509 113 458 68 q 621 263 560 158 l 654 243 q 586 147 619 192 q 517 69 553 103 q 443 17 482 36 q 357 -1 404 -1 q 296 24 321 0 q 272 88 271 47 l 274 104 l 301 153 l 297 153 z "},"t":{"ha":294,"x_min":-62,"x_max":433,"o":"m 296 556 l 125 206 q 88 106 93 139 q 108 74 83 74 q 192 117 139 74 q 303 263 244 161 l 336 243 q 277 158 308 201 q 208 80 246 115 q 126 22 171 44 q 31 -1 82 -1 q -36 27 -10 -1 q -53 115 -62 56 q -17 216 -46 160 q 43 338 11 272 l 150 556 l 85 556 l 115 610 l 176 610 l 249 757 q 329 762 283 754 q 408 783 375 769 l 322 610 l 433 610 l 404 556 l 296 556 z "},"r":{"ha":461,"x_min":-7,"x_max":504,"o":"m 168 551 q 396 474 374 592 q 395 425 400 450 q 378 373 390 400 q 351 317 367 346 q 318 258 335 289 q 256 132 275 179 q 258 75 236 85 q 283 72 268 69 q 313 85 297 75 q 346 108 329 94 q 376 139 363 122 q 422 195 401 167 q 471 263 443 224 l 504 243 q 439 155 474 203 q 356 64 404 107 q 311 31 336 46 q 260 8 286 17 q 208 -1 235 0 q 161 10 182 -1 q 113 53 126 25 q 101 116 99 81 q 120 192 104 151 q 161 274 136 233 q 199 337 181 307 q 233 392 218 367 q 255 440 247 418 q 260 476 263 461 q 228 506 256 501 q 168 504 201 511 q 142 440 160 479 q 104 358 125 400 q 63 278 83 317 q 25 217 42 240 l -7 235 q 33 309 15 276 q 67 372 51 342 q 96 433 82 401 q 124 503 110 464 q 104 522 110 508 q 99 551 99 535 l 168 551 z "},"q":{"ha":614,"x_min":-25,"x_max":656,"o":"m 292 -143 l 263 -203 q 187 -204 231 -200 q 111 -215 143 -208 l 146 -143 l 18 -143 l 49 -89 l 172 -89 l 221 11 l 296 128 l 289 128 l 263 93 q 185 20 225 44 q 93 3 144 -4 q 20 34 49 6 q -17 109 -8 63 q -10 217 -25 156 q 50 347 6 279 q 147 463 96 415 q 251 533 197 510 q 358 556 304 557 q 465 529 413 556 q 540 511 501 510 q 618 531 579 513 l 340 -42 q 412 21 374 -12 q 488 92 450 54 q 560 173 525 131 q 622 263 594 215 l 656 244 q 585 147 625 194 q 503 56 544 99 q 422 -25 461 13 q 351 -89 382 -62 l 408 -89 l 379 -143 l 292 -143 m 143 75 q 240 128 183 68 q 353 300 296 188 l 453 499 q 319 474 394 522 q 175 314 243 426 q 106 144 110 207 q 143 75 103 82 z "},"p":{"ha":613,"x_min":-228,"x_max":654,"o":"m 138 535 q 214 538 169 531 q 292 556 258 546 l 278 521 l 219 451 l 224 446 l 257 481 q 291 513 271 497 q 335 539 311 528 q 383 555 358 550 q 433 556 408 560 q 503 526 475 551 q 539 455 531 500 q 533 347 547 410 q 472 208 518 285 q 444 167 458 186 q 415 129 431 147 q 526 158 469 124 q 621 263 583 193 l 654 243 q 524 115 599 151 q 374 88 449 78 q 204 2 294 18 q 39 28 114 -14 l -75 -203 q -151 -203 -108 -200 q -228 -215 -193 -207 l 138 535 m 386 494 q 279 447 340 506 q 156 263 218 389 l 56 60 q 113 52 79 49 q 185 77 147 56 q 265 139 224 99 q 343 242 306 179 q 415 420 408 353 q 386 494 422 488 z "}}}
